<?xml version="1.0" encoding="UTF-8" standalone="no"?>
<svg
   xmlns:sketch="http://www.bohemiancoding.com/sketch/ns"
   xmlns:dc="http://purl.org/dc/elements/1.1/"
   xmlns:cc="http://creativecommons.org/ns#"
   xmlns:rdf="http://www.w3.org/1999/02/22-rdf-syntax-ns#"
   xmlns:svg="http://www.w3.org/2000/svg"
   xmlns="http://www.w3.org/2000/svg"
   xmlns:sodipodi="http://sodipodi.sourceforge.net/DTD/sodipodi-0.dtd"
   xmlns:inkscape="http://www.inkscape.org/namespaces/inkscape"
   width="150"
   height="100"
   viewBox="0 0 149.99999 99.999998"
   id="svg3344"
   version="1.1"
   inkscape:version="0.91 r13725"
   sodipodi:docname="signcrypt_error.svg">
  <sodipodi:namedview
     pagecolor="#ffffff"
     bordercolor="#666666"
     borderopacity="1"
     objecttolerance="10"
     gridtolerance="10"
     guidetolerance="10"
     inkscape:pageopacity="0"
     inkscape:pageshadow="2"
     inkscape:window-width="1280"
     inkscape:window-height="784"
     id="namedview12"
     showgrid="false"
     inkscape:zoom="2.36"
     inkscape:cx="11.016949"
     inkscape:cy="50"
     inkscape:window-x="0"
     inkscape:window-y="16"
     inkscape:window-maximized="0"
     inkscape:current-layer="layer1" />
  <defs
     id="defs3346" />
  <metadata
     id="metadata3349">
    <rdf:RDF>
      <cc:Work
         rdf:about="">
        <dc:format>image/svg+xml</dc:format>
        <dc:type
           rdf:resource="http://purl.org/dc/dcmitype/StillImage" />
        <dc:title></dc:title>
      </cc:Work>
    </rdf:RDF>
  </metadata>
  <g
     id="layer1"
     transform="translate(-17.144857,-22.362199)"
     style="fill:#669900;fill-opacity:1">
    <circle
       style="opacity:1;fill:none;fill-opacity:1;stroke:#bbbbbb;stroke-width:5;stroke-linecap:butt;stroke-linejoin:miter;stroke-miterlimit:4;stroke-dasharray:none;stroke-dashoffset:0;stroke-opacity:1"
       id="circle4219"
       cx="138.57143"
       cy="106.8622"
       r="13" />
    <circle
       r="13"
       cy="72.362198"
       cx="138.57143"
       id="circle4741"
       style="opacity:1;fill:none;fill-opacity:1;stroke:#bbbbbb;stroke-width:5;stroke-linecap:butt;stroke-linejoin:miter;stroke-miterlimit:4;stroke-dasharray:none;stroke-dashoffset:0;stroke-opacity:1" />
    <circle
       style="opacity:1;fill:none;fill-opacity:1;stroke:#bbbbbb;stroke-width:5;stroke-linecap:butt;stroke-linejoin:miter;stroke-miterlimit:4;stroke-dasharray:none;stroke-dashoffset:0;stroke-opacity:1"
       id="circle4743"
       cx="138.57143"
       cy="37.862198"
       r="13" />
    <g
       transform="translate(18.184849,22.191199)"
       style="fill:#cc0000;fill-rule:evenodd;stroke:none;stroke-width:1;fill-opacity:1"
       id="Page-1"
       sketch:type="MSPage">
      <g
         style="fill:#cc0000;fill-opacity:1"
         id="lock-error"
         sketch:type="MSArtboardGroup">
        <path
           d="m 80.459,45.474 -1.926,0 0,-15.648 C 78.435,10.633 65.344,0.183 49.433,0.183 33.527,0.183 19.265,11.128 19.761,29.826 l -0.016,15.628 c 0,0 0.24,0.021 -0.961,0.021 -1.27,0 -9.639,1.471 -9.639,8.932 l 0,35.821 c 0,7.959 9.42,9.943 9.639,9.943 l 61.2,0 c 0.219,0 9.154,-0.993 9.154,-9.943 l 0,-35.327 c 10e-4,-8.449 -8.454,-9.427 -8.679,-9.427 l 0,0 z M 33.234,30.033 c 0,-9.949 6.07,-17.902 15.906,-17.902 9.741,0 15.905,6.957 15.905,17.902 l 0.01,15.441 -31.837,0 0.016,-15.441 0,0 z M 59.403377,90.873 48.458282,79.927905 38.229659,90.364449 31.6365,83.756888 42.582495,72.815394 32.343971,62.593972 38.754412,56.107923 49.701306,67.050318 60.123449,56.710084 66.6365,63.224035 55.689605,74.167329 66.009137,84.477861 59.403377,90.873 Z"
           sketch:type="MSShapeGroup"
           id="path5450"
           style="fill:#cc0000;fill-opacity:1" />
      </g>
    </g>
  </g>
</svg>
