<?xml version="1.0" encoding="UTF-8" standalone="no"?>
<svg
   xmlns:sketch="http://www.bohemiancoding.com/sketch/ns"
   xmlns:dc="http://purl.org/dc/elements/1.1/"
   xmlns:cc="http://creativecommons.org/ns#"
   xmlns:rdf="http://www.w3.org/1999/02/22-rdf-syntax-ns#"
   xmlns:svg="http://www.w3.org/2000/svg"
   xmlns="http://www.w3.org/2000/svg"
   version="1.1"
   id="svg3344"
   viewBox="0 0 149.99999 99.999998"
   height="100"
   width="150">
  <defs
     id="defs3346" />
  <metadata
     id="metadata3349">
    <rdf:RDF>
      <cc:Work
         rdf:about="">
        <dc:format>image/svg+xml</dc:format>
        <dc:type
           rdf:resource="http://purl.org/dc/dcmitype/StillImage" />
        <dc:title></dc:title>
      </cc:Work>
    </rdf:RDF>
  </metadata>
  <g
     style="fill:#669900;fill-opacity:1"
     transform="translate(-17.144857,-22.362199)"
     id="layer1">
    <circle
       r="13"
       cy="106.8622"
       cx="138.57143"
       id="circle4219"
       style="opacity:1;fill:#ff8800;fill-opacity:1;stroke:#ff8800;stroke-width:5;stroke-linecap:butt;stroke-linejoin:miter;stroke-miterlimit:4;stroke-dasharray:none;stroke-dashoffset:0;stroke-opacity:1" />
    <circle
       style="opacity:1;fill:#ff8800;fill-opacity:1;stroke:#ff8800;stroke-width:5;stroke-linecap:butt;stroke-linejoin:miter;stroke-miterlimit:4;stroke-dasharray:none;stroke-dashoffset:0;stroke-opacity:1"
       id="circle4741"
       cx="138.57143"
       cy="72.362198"
       r="13" />
    <circle
       r="13"
       cy="37.862198"
       cx="138.57143"
       id="circle4743"
       style="opacity:1;fill:none;fill-opacity:1;stroke:#bbbbbb;stroke-width:5;stroke-linecap:butt;stroke-linejoin:miter;stroke-miterlimit:4;stroke-dasharray:none;stroke-dashoffset:0;stroke-opacity:1" />
    <g
       transform="translate(17.144849,22.526199)"
       style="fill:#ff8800;fill-rule:evenodd;stroke:none;stroke-width:1;fill-opacity:1"
       sketch:type="MSPage"
       id="Page-1">
      <g
         style="fill:#ff8800;fill-opacity:1"
         sketch:type="MSArtboardGroup"
         id="lock-closed">
        <path
           style="fill:#ff8800;fill-opacity:1"
           id="path12"
           sketch:type="MSShapeGroup"
           d="m 81.502,45.132 -1.925,0 0,-15.653 C 79.479,10.285 66.387,-0.164 50.476,-0.164 34.57,-0.164 20.304,10.782 20.801,29.479 l -0.016,15.633 c 0,0 0.24,0.021 -0.96,0.021 -1.27,0 -9.64,1.473 -9.64,8.936 l 0,35.824 c 0,7.959 9.42,9.943 9.64,9.943 l 61.202,0 c 0.22,0 9.154,-0.993 9.154,-9.943 l 0,-35.329 c 0.001,-8.455 -8.454,-9.432 -8.679,-9.432 z m -47.241,0 0.016,-15.446 c 0,-9.949 6.071,-17.903 15.906,-17.903 9.741,0 15.905,6.958 15.905,17.903 l 0.01,15.446 -31.837,0 z" />
      </g>
    </g>
  </g>
</svg>
