<svg width="1024" height="1024" viewBox="0 0 1024 1024" fill="none" xmlns="http://www.w3.org/2000/svg">
<path fill-rule="evenodd" clip-rule="evenodd" d="M595.604 720.943H938.38C949.358 720.943 958.264 712.05 958.264 701.059V812.67C958.264 893.805 892.491 959.565 811.369 959.565H468.593C457.614 959.565 448.709 950.672 448.709 939.681V867.838C448.709 786.716 514.481 720.943 595.604 720.943ZM504.586 887H535.523C544.387 887 552 885.253 558.364 881.759C564.756 878.264 569.657 873.25 573.066 866.716C576.503 860.182 578.222 852.369 578.222 843.278C578.222 834.216 576.503 826.432 573.066 819.926C569.657 813.42 564.785 808.435 558.449 804.969C552.114 801.474 544.557 799.727 535.779 799.727H504.586V887ZM534.756 871.19H523.037V815.537H534.799C540.253 815.537 544.841 816.503 548.563 818.435C552.285 820.366 555.083 823.378 556.958 827.469C558.861 831.56 559.813 836.83 559.813 843.278C559.813 849.784 558.861 855.097 556.958 859.216C555.083 863.307 552.27 866.332 548.52 868.293C544.799 870.224 540.211 871.19 534.756 871.19ZM591.89 799.727V887H650.868V871.787H610.342V850.949H647.672V835.736H610.342V814.94H650.697V799.727H591.89ZM665.367 799.727V887H702.654C709.188 887 714.685 885.949 719.145 883.847C723.606 881.744 726.972 878.889 729.245 875.281C731.546 871.645 732.697 867.511 732.697 862.881C732.697 858.591 731.787 854.898 729.969 851.801C728.151 848.676 725.779 846.247 722.853 844.514C719.955 842.781 716.844 841.844 713.52 841.702V840.849C716.56 840.168 719.259 839.017 721.617 837.398C724.003 835.75 725.878 833.648 727.242 831.091C728.606 828.506 729.287 825.509 729.287 822.099C729.287 817.724 728.208 813.861 726.049 810.509C723.89 807.128 720.665 804.486 716.375 802.582C712.086 800.679 706.731 799.727 700.31 799.727H665.367ZM698.861 871.915H683.819V848.733H699.287C702.242 848.733 704.785 849.259 706.915 850.31C709.074 851.361 710.736 852.81 711.901 854.656C713.066 856.503 713.648 858.634 713.648 861.048C713.648 864.344 712.469 866.986 710.111 868.974C707.753 870.935 704.003 871.915 698.861 871.915ZM697.498 836.247H683.819V814.642H697.839C701.929 814.642 705.083 815.608 707.299 817.54C709.543 819.472 710.665 822.014 710.665 825.168C710.665 827.469 710.083 829.443 708.918 831.091C707.782 832.739 706.219 834.017 704.231 834.926C702.27 835.807 700.026 836.247 697.498 836.247ZM817.061 799.727H798.609V854.827C798.609 858.151 797.871 861.105 796.393 863.69C794.944 866.276 792.885 868.307 790.214 869.784C787.572 871.261 784.461 872 780.882 872C777.331 872 774.22 871.261 771.549 869.784C768.879 868.307 766.805 866.276 765.328 863.69C763.879 861.105 763.155 858.151 763.155 854.827V799.727H744.703V856.403C744.703 862.767 746.209 868.335 749.22 873.108C752.231 877.881 756.45 881.602 761.876 884.273C767.302 886.915 773.638 888.236 780.882 888.236C788.098 888.236 794.419 886.915 799.845 884.273C805.271 881.602 809.49 877.881 812.501 873.108C815.541 868.335 817.061 862.767 817.061 856.403V799.727ZM887.597 822.44C888.677 824.031 889.515 825.864 890.111 827.938H908.861C908.265 823.619 906.915 819.67 904.813 816.091C902.711 812.483 899.998 809.372 896.674 806.759C893.378 804.145 889.6 802.128 885.339 800.707C881.077 799.259 876.475 798.534 871.532 798.534C865.765 798.534 860.41 799.543 855.466 801.56C850.523 803.577 846.191 806.517 842.469 810.381C838.748 814.244 835.85 818.96 833.776 824.528C831.731 830.068 830.708 836.375 830.708 843.449C830.708 852.653 832.427 860.608 835.864 867.312C839.33 873.989 844.16 879.145 850.353 882.781C856.546 886.389 863.733 888.193 871.915 888.193C879.245 888.193 885.75 886.716 891.432 883.761C897.114 880.778 901.574 876.545 904.813 871.062C908.052 865.551 909.671 858.96 909.671 851.29V840.295H873.151V854.188H891.895C891.82 857.676 891.026 860.716 889.515 863.307C887.952 866.034 885.679 868.151 882.697 869.656C879.742 871.134 876.177 871.872 872 871.872C867.398 871.872 863.407 870.764 860.026 868.548C856.645 866.304 854.032 863.051 852.185 858.79C850.339 854.528 849.415 849.358 849.415 843.278C849.415 837.199 850.353 832.057 852.228 827.852C854.103 823.619 856.716 820.395 860.069 818.179C863.449 815.963 867.37 814.855 871.83 814.855C874.216 814.855 876.39 815.153 878.35 815.75C880.339 816.347 882.1 817.213 883.634 818.349C885.197 819.457 886.518 820.821 887.597 822.44Z" fill="black"/>
<path fill-rule="evenodd" clip-rule="evenodd" d="M440.011 249.745L440.093 249.745C466.762 156.515 582.973 111 701.398 111C783.218 111 856.689 136.914 907.042 178.038C875.849 179.585 846.172 185.688 819.009 195.539C859.697 210.655 894.652 233.927 920.563 262.717C903.374 259.746 885.544 258.183 867.265 258.183C865.294 258.183 863.327 258.201 861.366 258.238C908.437 326.484 936 409.223 936 498.399C936 575.04 915.642 646.925 880.038 708.943H595.603C573.656 708.943 552.748 713.394 533.731 721.441C522.88 714.225 512.286 705.35 502.627 694.424C498.312 689.542 490.819 681.03 494.217 675.496C497.071 670.848 504.113 671.11 509.579 671.313L509.582 671.313C510.624 671.352 511.609 671.389 512.497 671.389C627.526 671.389 720.775 595.302 720.775 501.444C720.775 407.586 627.526 331.499 512.497 331.499C465.142 331.499 414.98 346.366 375.753 373.954C375.771 373.496 375.77 373.245 375.77 373.245C364.88 339.781 372.14 277.574 439.9 249.744L440.011 249.745ZM501.411 739.862C394.683 707.25 304.259 623.762 304.219 503.924C304.206 464.371 318.817 430.755 342.144 403.999L342.022 403.982L341.859 403.959C346.993 318.098 314.026 215.42 252.359 195.23C247.995 193.802 243.672 197.083 243.128 201.642C235.017 269.558 217.457 293.099 198.514 318.494C170.095 356.594 149.442 400.628 150.342 448.986C140.028 427.399 131.666 404.863 125.46 381.561C124.618 378.402 119.424 368.705 113.71 371.957C109.144 374.556 105.705 381.66 103.247 389.069C93.8494 424.337 89 461.966 89 498.399C89 703.234 241.341 878.215 436.708 914.854V867.838C436.708 815.346 462.168 768.795 501.411 739.862ZM541.719 246.493C564.008 239.474 562.058 217.408 562.058 217.408C562.058 217.408 550.905 204.289 528.823 211.56C508.152 218.368 504.949 233.085 504.949 233.085C504.949 233.085 516.241 254.516 541.719 246.493ZM341.611 435.266C341.611 435.266 433.481 541.313 464.155 573.238C494.828 605.164 520.915 606.885 554.952 572.774C588.988 538.664 677.854 435.128 677.854 435.128L670.367 435.71L529.345 542.801C518.668 550.737 503.311 550.815 492.536 542.989L348.722 435.572L341.611 435.266Z" fill="black"/>
<path opacity="0.9" fill-rule="evenodd" clip-rule="evenodd" d="M893.813 708.943C904.757 689.163 914.206 668.442 922.01 646.933C939.107 656.414 950.055 669.964 955.069 683.705C956.271 687 955.481 691.5 954 695C948.5 708 942.735 708.943 938.379 708.943H893.813ZM911.105 641.8C902.683 665.206 892.259 687.656 880.038 708.943L809 708.943V635.388L866.299 633.952C883.77 633.952 898.687 636.899 911.105 641.8ZM809 720.943V767H957.481C957.997 762.494 958.263 757.913 958.263 753.269V701.232C958.194 709.345 953.272 716.29 946.263 719.32C943.846 720.364 941.18 720.943 938.379 720.943L886.986 720.943L809 720.943Z" fill="black"/>
</svg>
