<svg width="1024" height="1024" viewBox="0 0 1024 1024" fill="none" xmlns="http://www.w3.org/2000/svg">
<path d="M867.299 633.952H494.447C483.468 633.952 474.562 642.857 474.562 653.836V713.488C474.562 801.355 545.781 872.573 633.648 872.573H839.958C905.843 872.573 959.263 819.153 959.263 753.269V701.06C959.263 671.234 929.436 633.952 867.299 633.952Z" fill="#008787"/>
<path d="M438.721 259.821H438.804C465.448 166.677 581.553 121.203 699.869 121.203C781.614 121.203 855.018 147.094 905.324 188.18C874.16 189.725 844.512 195.823 817.373 205.665C858.024 220.767 892.945 244.018 918.833 272.782C901.661 269.814 883.848 268.252 865.584 268.252C863.615 268.252 861.651 268.27 859.692 268.306C906.718 336.489 934.256 419.153 934.256 508.247C934.256 741.926 744.823 931.359 511.145 931.359C281.069 931.359 88.0322 738.719 88.0322 508.247C88.0322 471.848 92.8771 434.254 102.266 399.017C104.722 391.615 108.158 384.518 112.719 381.921C118.429 378.671 123.618 388.361 124.458 391.516C130.659 414.796 139.013 437.312 149.318 458.879C148.418 410.566 169.053 366.573 197.446 328.507C216.371 303.135 233.916 279.615 242.019 211.762C242.563 207.208 246.882 203.929 251.241 205.356C312.853 225.528 345.788 328.112 340.66 413.894C374.697 418.759 374.539 383.208 374.539 383.208C363.659 349.774 370.913 287.625 438.611 259.821H438.721Z" fill="url(#paint0_linear_2580_29376)"/>
<path opacity="0.9" d="M921.133 400.544C931.43 633.466 739.951 834.288 506.46 834.288C287.877 834.288 108.763 665.337 92.5612 450.904C89.6707 470.984 88.1507 491.238 88.0117 511.524C89.6694 740.962 282.407 931.885 511.506 931.885C745.395 931.885 935 742.28 935 508.39C935 471.123 930.172 434.981 921.133 400.544Z" fill="url(#paint1_radial_2580_29376)"/>
<path d="M501.173 290.603C496.611 282.532 475.546 270.59 466.338 268.509C501.185 156.888 678.714 122.621 787.37 142.368C832.587 150.596 888.9 175.231 906.034 188.033C855.674 146.905 782.204 121 700.385 121C581.964 121 465.757 166.507 439.089 259.736H438.895C371.136 287.566 363.876 349.796 374.766 383.252C385.22 343.334 434.963 294.281 501.173 290.603Z" fill="url(#paint2_radial_2580_29376)"/>
<path d="M624.239 213.514C529.11 232.232 498.026 238.355 466.191 268.617C501.946 173.96 593.215 154.769 701.969 197.917C676.086 203.252 650.175 208.455 624.239 213.526V213.514Z" fill="url(#paint3_linear_2580_29376)"/>
<path d="M110.99 386.097C84.9993 492.503 105.085 617.567 223.155 722.521C188.005 684.079 145.087 542.148 239.792 440.752C246.169 433.915 257.144 438.937 257.494 448.278C265.299 659.009 435.338 787.715 631.379 763.648C570.638 760.236 369.757 689.875 519.19 662.046C597.294 647.49 719.756 624.681 719.756 514.791C719.756 336.657 582.024 284.579 498.499 292.323C441.339 297.622 390.46 333.898 374.802 383.229C380.816 402.673 356.846 416.286 340.862 413.999C345.993 328.15 313.033 225.411 251.36 205.228C247.004 203.8 242.672 207.079 242.128 211.641C234.021 279.557 216.452 303.092 197.516 328.489C169.093 366.592 148.439 410.623 149.346 458.974C138.982 437.319 130.649 414.749 124.457 391.554C123.767 388.94 119.98 381.644 115.406 381.305C112.926 381.124 111.607 383.543 110.99 386.097Z" fill="url(#paint4_radial_2580_29376)"/>
<path d="M466.71 672.824C581.707 766.199 812.971 696.189 812.971 469.16C719.608 610.679 600.691 708.301 466.722 672.824H466.71Z" fill="url(#paint5_linear_2580_29376)"/>
<path d="M239.789 440.749C240.835 439.579 242.152 438.685 243.625 438.145C245.098 437.604 246.681 437.435 248.235 437.651C163.463 541.045 231.84 722.627 278.763 767.239C281.388 774.668 234.247 736.034 227.75 726.995C192.055 696.709 140.897 546.635 239.789 440.749Z" fill="url(#paint6_linear_2580_29376)"/>
<path d="M511.494 681.38C626.515 681.38 719.768 605.296 719.768 511.438C719.768 417.579 626.515 341.496 511.494 341.496C413.364 341.496 303.171 405.334 303.22 513.918C303.268 681.707 480.531 778.24 631.633 763.623C620.284 762.304 549.475 758.541 501.621 704.406C497.301 699.53 489.811 691.012 493.211 685.482C496.599 679.952 505.94 681.368 511.482 681.368L511.494 681.38Z" fill="url(#paint7_linear_2580_29376)"/>
<path opacity="0.7" d="M720.046 511.872C720.046 605.73 626.793 681.814 511.772 681.814C506.218 681.814 496.889 680.386 493.489 685.928C490.089 691.446 497.579 699.964 501.898 704.84C546.861 755.708 612.091 762.109 629.213 763.791L631.911 764.057C480.808 778.673 303.546 682.141 303.497 514.352C303.34 486.416 311.115 459.008 325.918 435.316L488.153 582.668C499.696 593.147 519.141 593.147 530.684 582.668L695.992 432.521C711.359 456.212 720.046 483.219 720.046 511.872Z" fill="url(#paint8_linear_2580_29376)"/>
<path d="M685.996 443.52L537.721 605.45C523.098 615.53 499.859 616.661 484.496 607.52L348.495 454.52C353.108 447.332 326.282 428.924 331.992 422.52L362.973 448.034C405.428 486.618 439.752 517.789 488.131 557.83C509.964 575.9 516.749 575.548 538.17 557.83C593.515 512.008 644.871 470.551 697.491 424.976C703.355 431.468 696.764 419.122 701.496 426.433L685.996 443.52Z" fill="#0768BA" fill-opacity="0.3"/>
<path d="M696.578 433.429C696.384 433.126 696.189 432.823 695.992 432.52L530.684 582.667C519.141 593.146 499.697 593.146 488.154 582.667L325.919 435.315C325.844 435.147 325.77 434.978 325.696 434.807C362.933 375.022 440.381 341.496 511.494 341.496C592.054 341.496 661.935 378.818 696.578 433.429Z" fill="url(#paint9_linear_2580_29376)"/>
<path d="M697.081 434.217L532.475 591.733C517.87 602.114 502.322 602.864 486.979 593.451L325.531 434.797C330.138 427.395 335.316 420.363 341.019 413.768L357.959 429.619C400.356 469.355 434.635 501.456 482.95 542.692C504.754 561.301 511.53 560.938 532.922 542.692C588.194 495.502 628.62 459.808 681.169 412.873C687.026 419.559 692.343 426.7 697.069 434.229L697.081 434.217Z" fill="#F2F9FF"/>
<path d="M540.715 256.48C563.003 249.462 561.042 227.404 561.042 227.404C561.042 227.404 549.898 214.276 527.816 221.548C507.15 228.36 503.943 243.086 503.943 243.086C503.943 243.086 515.232 264.502 540.715 256.48Z" fill="white"/>
<path opacity="0.9" d="M867.299 633.952H494.447C483.468 633.952 474.562 642.857 474.562 653.836V713.488C474.562 801.355 545.781 872.573 633.648 872.573H839.958C905.843 872.573 959.263 819.153 959.263 753.269V701.06C959.263 671.234 929.436 633.952 867.299 633.952Z" fill="url(#paint10_linear_2580_29376)"/>
<path d="M939.379 720.943H596.603C515.48 720.943 449.708 786.716 449.708 867.838V939.681C449.708 950.672 458.613 959.565 469.592 959.565H812.368C893.491 959.565 959.263 893.805 959.263 812.67V701.059C959.263 712.05 950.357 720.943 939.379 720.943Z" fill="url(#paint11_linear_2580_29376)"/>
<path d="M526.091 889H493.091V795.909H526.364C535.727 795.909 543.788 797.773 550.545 801.5C557.303 805.197 562.5 810.515 566.136 817.455C569.803 824.394 571.636 832.697 571.636 842.364C571.636 852.061 569.803 860.394 566.136 867.364C562.5 874.333 557.273 879.682 550.455 883.409C543.667 887.136 535.545 889 526.091 889ZM512.773 872.136H525.273C531.091 872.136 535.985 871.106 539.955 869.045C543.955 866.955 546.955 863.727 548.955 859.364C550.985 854.97 552 849.303 552 842.364C552 835.485 550.985 829.864 548.955 825.5C546.955 821.136 543.97 817.924 540 815.864C536.03 813.803 531.136 812.773 525.318 812.773H512.773V872.136ZM586.216 889V795.909H648.943V812.136H605.898V834.318H645.716V850.545H605.898V872.773H649.125V889H586.216ZM664.591 889V795.909H701.864C708.712 795.909 714.424 796.924 719 798.955C723.576 800.985 727.015 803.803 729.318 807.409C731.621 810.985 732.773 815.106 732.773 819.773C732.773 823.409 732.045 826.606 730.591 829.364C729.136 832.091 727.136 834.333 724.591 836.091C722.076 837.818 719.197 839.045 715.955 839.773V840.682C719.5 840.833 722.818 841.833 725.909 843.682C729.03 845.53 731.561 848.121 733.5 851.455C735.439 854.758 736.409 858.697 736.409 863.273C736.409 868.212 735.182 872.621 732.727 876.5C730.303 880.348 726.712 883.394 721.955 885.636C717.197 887.879 711.333 889 704.364 889H664.591ZM684.273 872.909H700.318C705.803 872.909 709.803 871.864 712.318 869.773C714.833 867.652 716.091 864.833 716.091 861.318C716.091 858.742 715.47 856.47 714.227 854.5C712.985 852.53 711.212 850.985 708.909 849.864C706.636 848.742 703.924 848.182 700.773 848.182H684.273V872.909ZM684.273 834.864H698.864C701.561 834.864 703.955 834.394 706.045 833.455C708.167 832.485 709.833 831.121 711.045 829.364C712.288 827.606 712.909 825.5 712.909 823.045C712.909 819.682 711.712 816.97 709.318 814.909C706.955 812.848 703.591 811.818 699.227 811.818H684.273V834.864ZM806.716 795.909H826.398V856.364C826.398 863.152 824.777 869.091 821.534 874.182C818.322 879.273 813.822 883.242 808.034 886.091C802.246 888.909 795.504 890.318 787.807 890.318C780.08 890.318 773.322 888.909 767.534 886.091C761.746 883.242 757.246 879.273 754.034 874.182C750.822 869.091 749.216 863.152 749.216 856.364V795.909H768.898V854.682C768.898 858.227 769.67 861.379 771.216 864.136C772.792 866.894 775.004 869.061 777.852 870.636C780.701 872.212 784.019 873 787.807 873C791.625 873 794.943 872.212 797.761 870.636C800.61 869.061 802.807 866.894 804.352 864.136C805.928 861.379 806.716 858.227 806.716 854.682V795.909ZM904.318 826C903.682 823.788 902.788 821.833 901.636 820.136C900.485 818.409 899.076 816.955 897.409 815.773C895.773 814.561 893.894 813.636 891.773 813C889.682 812.364 887.364 812.045 884.818 812.045C880.061 812.045 875.879 813.227 872.273 815.591C868.697 817.955 865.909 821.394 863.909 825.909C861.909 830.394 860.909 835.879 860.909 842.364C860.909 848.848 861.894 854.364 863.864 858.909C865.833 863.455 868.621 866.924 872.227 869.318C875.833 871.682 880.091 872.864 885 872.864C889.455 872.864 893.258 872.076 896.409 870.5C899.591 868.894 902.015 866.636 903.682 863.727C905.379 860.818 906.227 857.379 906.227 853.409L910.227 854H886.227V839.182H925.182V850.909C925.182 859.091 923.455 866.121 920 872C916.545 877.848 911.788 882.364 905.727 885.545C899.667 888.697 892.727 890.273 884.909 890.273C876.182 890.273 868.515 888.348 861.909 884.5C855.303 880.621 850.152 875.121 846.455 868C842.788 860.848 840.955 852.364 840.955 842.545C840.955 835 842.045 828.273 844.227 822.364C846.439 816.424 849.53 811.394 853.5 807.273C857.47 803.152 862.091 800.015 867.364 797.864C872.636 795.712 878.348 794.636 884.5 794.636C889.773 794.636 894.682 795.409 899.227 796.955C903.773 798.47 907.803 800.621 911.318 803.409C914.864 806.197 917.758 809.515 920 813.364C922.242 817.182 923.682 821.394 924.318 826H904.318Z" fill="black"/>
<defs>
<linearGradient id="paint0_linear_2580_29376" x1="395.854" y1="287.986" x2="831.352" y2="817.025" gradientUnits="userSpaceOnUse">
<stop stop-color="#F53DB8"/>
<stop offset="1" stop-color="#590DF2"/>
</linearGradient>
<radialGradient id="paint1_radial_2580_29376" cx="0" cy="0" r="1" gradientUnits="userSpaceOnUse" gradientTransform="translate(233.887 452.187) rotate(66.5177) scale(358.108 343.053)">
<stop offset="0.53" stop-color="#0B4186" stop-opacity="0"/>
<stop offset="1" stop-color="#0B4186" stop-opacity="0.45"/>
</radialGradient>
<radialGradient id="paint2_radial_2580_29376" cx="0" cy="0" r="1" gradientUnits="userSpaceOnUse" gradientTransform="translate(522.384 305.111) rotate(-127.996) scale(76.556 126.683)">
<stop stop-color="#D13AEF" stop-opacity="0"/>
<stop offset="1" stop-color="#F9D286" stop-opacity="0.64"/>
</radialGradient>
<linearGradient id="paint3_linear_2580_29376" x1="401.106" y1="403.131" x2="615.927" y2="163.99" gradientUnits="userSpaceOnUse">
<stop stop-color="#450FB0"/>
<stop offset="1" stop-color="#450FB0" stop-opacity="0"/>
</linearGradient>
<radialGradient id="paint4_radial_2580_29376" cx="0" cy="0" r="1" gradientUnits="userSpaceOnUse" gradientTransform="translate(351.776 739.134) rotate(-64.2625) scale(558.669 690.12)">
<stop offset="0.02" stop-color="#650877"/>
<stop offset="0.97" stop-color="#340B86" stop-opacity="0"/>
</radialGradient>
<linearGradient id="paint5_linear_2580_29376" x1="761.5" y1="591" x2="611.5" y2="756.5" gradientUnits="userSpaceOnUse">
<stop stop-color="#D647E2" stop-opacity="0"/>
<stop offset="1" stop-color="#E7BB65" stop-opacity="0.8"/>
</linearGradient>
<linearGradient id="paint6_linear_2580_29376" x1="182" y1="438" x2="246.19" y2="710.527" gradientUnits="userSpaceOnUse">
<stop offset="0.1" stop-color="#F9BF86"/>
<stop offset="1" stop-color="#D63AEF" stop-opacity="0"/>
</linearGradient>
<linearGradient id="paint7_linear_2580_29376" x1="511.494" y1="403.725" x2="511.494" y2="761.881" gradientUnits="userSpaceOnUse">
<stop stop-color="white"/>
<stop offset="0.91" stop-color="#BEE1FE"/>
<stop offset="1" stop-color="#96CEFD"/>
</linearGradient>
<linearGradient id="paint8_linear_2580_29376" x1="511.775" y1="635.512" x2="511.775" y2="740.186" gradientUnits="userSpaceOnUse">
<stop stop-color="#BCE0FD"/>
<stop offset="1" stop-color="#88CCFC"/>
</linearGradient>
<linearGradient id="paint9_linear_2580_29376" x1="511.137" y1="378.081" x2="511.137" y2="750.521" gradientUnits="userSpaceOnUse">
<stop stop-color="white"/>
<stop offset="0.91" stop-color="#BEE1FE"/>
<stop offset="1" stop-color="#96CEFD"/>
</linearGradient>
<linearGradient id="paint10_linear_2580_29376" x1="857.435" y1="862.856" x2="728.38" y2="740.675" gradientUnits="userSpaceOnUse">
<stop stop-color="#054096" stop-opacity="0.5"/>
<stop offset="0.054" stop-color="#0F3D9C" stop-opacity="0.441"/>
<stop offset="0.261" stop-color="#2F35B1" stop-opacity="0.249"/>
<stop offset="0.466" stop-color="#462FBF" stop-opacity="0.111"/>
<stop offset="0.669" stop-color="#542BC8" stop-opacity="0.028"/>
<stop offset="0.864" stop-color="#592ACB" stop-opacity="0"/>
</linearGradient>
<linearGradient id="paint11_linear_2580_29376" x1="505.676" y1="742.837" x2="971.565" y2="939.967" gradientUnits="userSpaceOnUse">
<stop offset="0.001" stop-color="#54FFBD"/>
<stop offset="1" stop-color="#00DDFF"/>
</linearGradient>
</defs>
</svg>
