<svg width="1024" height="1024" viewBox="0 0 1024 1024" fill="none" xmlns="http://www.w3.org/2000/svg">
<path d="M866.299 633.952H493.447C482.468 633.952 473.562 642.857 473.562 653.836V713.488C473.562 801.355 544.781 872.573 632.648 872.573H838.958C904.843 872.573 958.263 819.153 958.263 753.269V701.06C958.263 671.234 928.436 633.952 866.299 633.952Z" fill="#008787"/>
<path d="M439.511 260.212L439.593 260.213C466.262 166.983 582.472 121.468 700.898 121.468C782.718 121.468 856.188 147.382 906.542 188.506C875.348 190.052 845.672 196.156 818.508 206.007C859.197 221.123 894.151 244.395 920.062 273.184C902.874 270.214 885.044 268.651 866.765 268.651C864.793 268.651 862.827 268.669 860.866 268.705C907.937 336.952 935.5 419.691 935.5 508.867C935.5 742.759 745.893 932.366 512 932.366C281.713 932.366 88.5 739.549 88.5 508.866C88.5 472.434 93.3494 434.805 102.747 399.537C105.205 392.128 108.644 385.024 113.21 382.425C118.924 379.173 124.118 388.87 124.96 392.029C131.166 415.33 139.528 437.867 149.842 459.454C148.942 411.096 169.594 367.062 198.014 328.962C216.957 303.567 234.517 280.026 242.627 212.11C243.172 207.551 247.495 204.269 251.858 205.698C313.526 225.888 346.493 328.566 341.359 414.427C375.427 419.296 375.27 383.713 375.27 383.713C364.38 350.249 371.64 288.042 439.4 260.212L439.511 260.212Z" fill="url(#paint0_linear_3127_393)"/>
<path opacity="0.9" d="M921.645 401.019C931.944 633.948 740.461 834.763 506.96 834.763C288.379 834.763 109.258 665.816 93.0569 451.382C90.2023 471.193 88.657 491.426 88.5117 511.992C90.1705 741.459 282.915 932.366 512.001 932.366C745.893 932.366 935.5 742.759 935.5 508.867C935.5 471.597 930.686 435.452 921.645 401.019Z" fill="url(#paint1_radial_3127_393)"/>
<path d="M502.165 291.28C497.6 283.203 476.531 271.264 467.327 269.181C502.165 157.562 679.703 123.293 788.362 143.042C833.574 151.26 889.896 175.911 907.024 188.706C856.671 147.582 783.201 121.667 701.38 121.667C582.955 121.667 466.744 167.183 440.075 260.412L439.993 260.412L439.883 260.412C372.123 288.242 364.871 350.467 375.761 383.931C386.208 344.014 435.957 294.963 502.165 291.28Z" fill="url(#paint2_linear_3127_393)"/>
<path d="M624.748 213.994C529.618 232.712 498.53 238.829 466.689 269.096C502.448 174.43 593.725 155.249 702.482 198.396C672.549 204.589 646.91 209.634 624.748 213.994Z" fill="url(#paint3_linear_3127_393)"/>
<path d="M111.488 386.572C85.5 492.975 105.582 618.041 223.652 722.997C188.501 684.564 145.591 542.628 240.293 441.223C246.672 434.392 257.647 439.419 257.993 448.759C265.795 659.489 435.847 788.196 631.883 764.127C571.14 760.714 370.258 690.36 519.689 662.522C597.799 647.97 720.268 625.155 720.268 515.278C720.268 337.132 582.525 285.048 499.007 292.798C441.842 298.102 390.966 334.372 375.302 383.698C381.313 403.149 357.351 416.766 341.359 414.48C346.492 328.619 313.525 225.888 251.858 205.698C247.494 204.269 243.171 207.551 242.627 212.11C234.516 280.025 216.956 303.567 198.013 328.962C169.594 367.062 148.941 411.096 149.841 459.454C139.527 437.867 131.165 415.33 124.959 392.028C124.262 389.413 120.48 382.126 115.902 381.782C113.424 381.595 112.112 384.016 111.488 386.572Z" fill="url(#paint4_radial_3127_393)"/>
<path d="M467.217 673.305C582.21 766.677 813.483 696.675 813.483 469.634C720.111 611.166 601.194 708.784 467.217 673.305Z" fill="url(#paint5_linear_3127_393)"/>
<path d="M240.291 441.223C242.719 438.623 245.815 437.73 248.741 438.136C163.968 541.523 232.34 723.114 279.268 767.719C281.89 775.147 234.754 736.52 228.254 727.474C192.561 697.191 141.403 547.11 240.291 441.223Z" fill="url(#paint6_linear_3127_393)"/>
<path d="M511.997 681.856C627.026 681.856 720.275 605.769 720.275 511.911C720.275 418.053 627.026 341.966 511.997 341.966C413.866 341.966 303.683 405.809 303.719 514.392C303.774 682.19 481.037 778.721 632.138 764.108C620.79 762.791 549.985 759.03 502.127 704.891C497.812 700.01 490.319 691.498 493.717 685.963C497.115 680.429 506.453 681.856 511.997 681.856Z" fill="url(#paint7_linear_3127_393)"/>
<path opacity="0.7" d="M511.997 681.857C627.026 681.857 720.275 605.77 720.275 511.912C720.275 483.253 711.581 456.251 696.228 432.566L530.919 582.708C519.375 593.193 499.93 593.193 488.386 582.708L326.152 435.359C312.034 458.055 303.709 484.532 303.719 514.392C303.774 682.191 481.037 778.721 632.138 764.108C631.453 764.029 630.552 763.94 629.453 763.833L629.449 763.832C612.319 762.153 547.094 755.76 502.127 704.892C497.812 700.01 490.319 691.498 493.717 685.964C496.571 681.316 503.612 681.578 509.079 681.781C510.122 681.82 511.108 681.857 511.997 681.857Z" fill="url(#paint8_linear_3127_393)"/>
<path fill-rule="evenodd" clip-rule="evenodd" d="M446.659 602.83C408.544 561.69 326.5 435.5 326.5 435.5L328 433L487.894 568.516C498.669 576.342 514.027 576.263 524.704 568.327L680.609 435.245H696.5C696.5 435.245 612.244 555.64 568.684 602.83C525.124 650.02 484.773 643.97 446.659 602.83Z" fill="#B5DBF9"/>
<path fill-rule="evenodd" clip-rule="evenodd" d="M463.932 598.577C433.259 566.651 326.264 435.057 326.264 435.057L331.709 432.032L492.313 568.328C503.088 576.154 518.446 576.075 529.123 568.139L685.028 435.057H697.128C697.128 435.057 588.766 564.002 554.729 598.113C520.693 632.223 494.606 630.503 463.932 598.577Z" fill="#A8D3F6"/>
<path fill-rule="evenodd" clip-rule="evenodd" d="M463.934 593.737C433.26 561.811 335.945 444.737 335.945 444.737L348.502 456.071L492.315 563.488C503.09 571.314 518.448 571.236 529.124 563.3L670.147 456.209L682.61 448.972C682.61 448.972 588.768 559.163 554.731 593.273C520.694 627.384 494.608 625.663 463.934 593.737Z" fill="#93C5ED"/>
<path fill-rule="evenodd" clip-rule="evenodd" d="M463.651 583.706C432.977 551.78 341.107 445.733 341.107 445.733L348.219 446.039L492.032 553.456C502.807 561.282 518.165 561.204 528.842 553.268L669.864 446.177L677.351 445.596C677.351 445.596 588.485 549.131 554.448 583.242C520.411 617.352 494.325 615.631 463.651 583.706Z" fill="#7DB6E4"/>
<path d="M532.443 592.421L697.416 434.907C662.487 381.024 598.059 341.966 512.098 341.966C440.96 341.966 363.402 375.525 326.178 435.349L485.979 592.421C497.522 602.905 520.899 602.905 532.443 592.421Z" fill="url(#paint9_linear_3127_393)"/>
<path opacity="0.6" d="M697.587 434.703L532.985 592.199C518.377 602.575 502.827 603.339 487.475 593.914L326.049 435.27C330.596 427.94 335.775 420.915 341.527 414.243C347.344 419.682 352.975 424.957 358.471 430.104C400.879 469.826 435.157 501.932 483.468 543.164C505.277 561.778 512.055 561.412 533.436 543.164C588.718 495.981 629.135 460.274 681.693 413.355C687.604 420.12 692.922 427.252 697.587 434.703Z" fill="white"/>
<path d="M541.219 256.961C563.508 249.942 561.558 227.876 561.558 227.876C561.558 227.876 550.405 214.757 528.324 222.028C507.652 228.835 504.449 243.553 504.449 243.553C504.449 243.553 515.741 264.984 541.219 256.961Z" fill="white"/>
<path opacity="0.2" d="M891.01 698.363C821.485 837.161 677.935 932.446 512.129 932.446C483.759 932.446 455.952 929.52 429 923.957V859.426C429 770.479 497.282 698.363 581.501 698.363H891.01Z" fill="black"/>
<path opacity="0.9" d="M866.299 633.952H493.447C482.468 633.952 473.562 642.857 473.562 653.836V713.488C473.562 801.355 544.781 872.573 632.648 872.573H838.958C904.843 872.573 958.263 819.153 958.263 753.269V701.06C958.263 671.234 928.436 633.952 866.299 633.952Z" fill="url(#paint10_linear_3127_393)"/>
<path d="M938.38 720.944H595.604C514.481 720.944 448.709 786.717 448.709 867.839V939.682C448.709 950.673 457.614 959.566 468.593 959.566H811.369C892.491 959.566 958.264 893.806 958.264 812.671V701.06C958.264 712.051 949.358 720.944 938.38 720.944Z" fill="url(#paint11_linear_3127_393)"/>
<path d="M526.092 887H493.092V793.909H526.365C535.728 793.909 543.789 795.773 550.546 799.5C557.304 803.197 562.501 808.516 566.137 815.455C569.804 822.394 571.637 830.697 571.637 840.364C571.637 850.061 569.804 858.394 566.137 865.364C562.501 872.334 557.274 877.682 550.455 881.409C543.668 885.137 535.546 887 526.092 887ZM512.774 870.137H525.274C531.092 870.137 535.986 869.106 539.955 867.046C543.955 864.955 546.955 861.728 548.955 857.364C550.986 852.97 552.001 847.303 552.001 840.364C552.001 833.485 550.986 827.864 548.955 823.5C546.955 819.137 543.971 815.925 540.001 813.864C536.031 811.803 531.137 810.773 525.319 810.773H512.774V870.137Z" fill="black"/>
<path d="M586.217 887V793.909H648.944V810.137H605.899V832.319H645.717V848.546H605.899V870.773H649.126V887H586.217Z" fill="black"/>
<path d="M664.592 887V793.909H701.865C708.713 793.909 714.425 794.925 719.001 796.955C723.577 798.985 727.016 801.803 729.319 805.409C731.622 808.985 732.774 813.106 732.774 817.773C732.774 821.409 732.046 824.606 730.592 827.364C729.137 830.091 727.137 832.334 724.592 834.091C722.077 835.819 719.198 837.046 715.955 837.773V838.682C719.501 838.834 722.819 839.834 725.91 841.682C729.031 843.531 731.561 846.122 733.501 849.455C735.44 852.758 736.41 856.697 736.41 861.273C736.41 866.212 735.183 870.622 732.728 874.5C730.304 878.349 726.713 881.394 721.955 883.637C717.198 885.879 711.334 887 704.365 887H664.592ZM684.274 870.909H700.319C705.804 870.909 709.804 869.864 712.319 867.773C714.834 865.652 716.092 862.834 716.092 859.319C716.092 856.743 715.471 854.47 714.228 852.5C712.986 850.531 711.213 848.985 708.91 847.864C706.637 846.743 703.925 846.182 700.774 846.182H684.274V870.909ZM684.274 832.864H698.865C701.561 832.864 703.955 832.394 706.046 831.455C708.168 830.485 709.834 829.122 711.046 827.364C712.289 825.606 712.91 823.5 712.91 821.046C712.91 817.682 711.713 814.97 709.319 812.909C706.955 810.849 703.592 809.819 699.228 809.819H684.274V832.864Z" fill="black"/>
<path d="M806.717 793.909H826.399V854.364C826.399 861.152 824.777 867.091 821.535 872.182C818.323 877.273 813.823 881.243 808.035 884.091C802.247 886.909 795.505 888.319 787.808 888.319C780.08 888.319 773.323 886.909 767.535 884.091C761.747 881.243 757.247 877.273 754.035 872.182C750.823 867.091 749.217 861.152 749.217 854.364V793.909H768.899V852.682C768.899 856.228 769.671 859.379 771.217 862.137C772.793 864.894 775.005 867.061 777.853 868.637C780.702 870.212 784.02 871 787.808 871C791.626 871 794.944 870.212 797.762 868.637C800.611 867.061 802.808 864.894 804.353 862.137C805.929 859.379 806.717 856.228 806.717 852.682V793.909Z" fill="black"/>
<path d="M904.319 824C903.683 821.788 902.789 819.834 901.637 818.137C900.486 816.409 899.077 814.955 897.41 813.773C895.774 812.561 893.895 811.637 891.774 811C889.683 810.364 887.365 810.046 884.819 810.046C880.061 810.046 875.88 811.228 872.274 813.591C868.698 815.955 865.91 819.394 863.91 823.909C861.91 828.394 860.91 833.879 860.91 840.364C860.91 846.849 861.895 852.364 863.865 856.909C865.834 861.455 868.622 864.925 872.228 867.319C875.834 869.682 880.092 870.864 885.001 870.864C889.455 870.864 893.258 870.076 896.41 868.5C899.592 866.894 902.016 864.637 903.683 861.728C905.38 858.819 906.228 855.379 906.228 851.409L910.228 852H886.228V837.182H925.183V848.909C925.183 857.091 923.455 864.122 920.001 870C916.546 875.849 911.789 880.364 905.728 883.546C899.668 886.697 892.728 888.273 884.91 888.273C876.183 888.273 868.516 886.349 861.91 882.5C855.304 878.622 850.152 873.122 846.455 866C842.789 858.849 840.955 850.364 840.955 840.546C840.955 833 842.046 826.273 844.228 820.364C846.44 814.425 849.531 809.394 853.501 805.273C857.471 801.152 862.092 798.016 867.365 795.864C872.637 793.712 878.349 792.637 884.501 792.637C889.774 792.637 894.683 793.409 899.228 794.955C903.774 796.47 907.804 798.622 911.319 801.409C914.865 804.197 917.758 807.516 920.001 811.364C922.243 815.182 923.683 819.394 924.319 824H904.319Z" fill="black"/>
<defs>
<linearGradient id="paint0_linear_3127_393" x1="396.604" y1="288.404" x2="832.5" y2="817.927" gradientUnits="userSpaceOnUse">
<stop stop-color="#F53DB8"/>
<stop offset="1" stop-color="#590DF2"/>
</linearGradient>
<radialGradient id="paint1_radial_3127_393" cx="0" cy="0" r="1" gradientUnits="userSpaceOnUse" gradientTransform="translate(234.394 452.666) rotate(66.5179) scale(358.108 343.058)">
<stop offset="0.525579" stop-color="#0B4186" stop-opacity="0"/>
<stop offset="1" stop-color="#0B4186" stop-opacity="0.45"/>
</radialGradient>
<linearGradient id="paint2_linear_3127_393" x1="587.83" y1="332.812" x2="442.261" y2="230.985" gradientUnits="userSpaceOnUse">
<stop stop-color="#D13AEF" stop-opacity="0"/>
<stop offset="1" stop-color="#F9D286" stop-opacity="0.9"/>
</linearGradient>
<linearGradient id="paint3_linear_3127_393" x1="307.188" y1="473.709" x2="616.433" y2="164.465" gradientUnits="userSpaceOnUse">
<stop stop-color="#450FB0"/>
<stop offset="1" stop-color="#450FB0" stop-opacity="0"/>
</linearGradient>
<radialGradient id="paint4_radial_3127_393" cx="0" cy="0" r="1" gradientUnits="userSpaceOnUse" gradientTransform="translate(352.279 739.611) rotate(-64.2627) scale(558.681 690.131)">
<stop offset="0.0160882" stop-color="#650877"/>
<stop offset="0.967387" stop-color="#340B86" stop-opacity="0"/>
</radialGradient>
<linearGradient id="paint5_linear_3127_393" x1="778.098" y1="576.765" x2="630.057" y2="762.493" gradientUnits="userSpaceOnUse">
<stop stop-color="#D647E2" stop-opacity="0"/>
<stop offset="1" stop-color="#E7BB65" stop-opacity="0.64"/>
</linearGradient>
<linearGradient id="paint6_linear_3127_393" x1="173.15" y1="429.118" x2="241.4" y2="712.48" gradientUnits="userSpaceOnUse">
<stop offset="0.104632" stop-color="#F9BF86"/>
<stop offset="1" stop-color="#D63AEF" stop-opacity="0"/>
</linearGradient>
<linearGradient id="paint7_linear_3127_393" x1="512.004" y1="404.203" x2="512.004" y2="762.362" gradientUnits="userSpaceOnUse">
<stop stop-color="white"/>
<stop offset="0.90535" stop-color="#BEE1FE"/>
<stop offset="1" stop-color="#96CEFD"/>
</linearGradient>
<linearGradient id="paint8_linear_3127_393" x1="518.703" y1="606.878" x2="518.703" y2="756.918" gradientUnits="userSpaceOnUse">
<stop stop-color="#BCE0FD"/>
<stop offset="1" stop-color="#88CCFC"/>
</linearGradient>
<linearGradient id="paint9_linear_3127_393" x1="511.303" y1="378.492" x2="511.797" y2="771.561" gradientUnits="userSpaceOnUse">
<stop stop-color="white"/>
<stop offset="0.90535" stop-color="#BEE1FE"/>
<stop offset="1" stop-color="#96CEFD"/>
</linearGradient>
<linearGradient id="paint10_linear_3127_393" x1="856.435" y1="862.856" x2="727.38" y2="740.675" gradientUnits="userSpaceOnUse">
<stop stop-color="#054096" stop-opacity="0.5"/>
<stop offset="0.054" stop-color="#0F3D9C" stop-opacity="0.441"/>
<stop offset="0.261" stop-color="#2F35B1" stop-opacity="0.249"/>
<stop offset="0.466" stop-color="#462FBF" stop-opacity="0.111"/>
<stop offset="0.669" stop-color="#542BC8" stop-opacity="0.028"/>
<stop offset="0.864" stop-color="#592ACB" stop-opacity="0"/>
</linearGradient>
<linearGradient id="paint11_linear_3127_393" x1="504.677" y1="742.838" x2="970.566" y2="939.968" gradientUnits="userSpaceOnUse">
<stop offset="0.001" stop-color="#54FFBD"/>
<stop offset="1" stop-color="#00DDFF"/>
</linearGradient>
</defs>
</svg>
