<svg width="1024" height="1024" viewBox="0 0 1024 1024" fill="none" xmlns="http://www.w3.org/2000/svg">
<path d="M441.016 259.736H441.089C467.757 166.507 583.963 121 702.384 121C784.216 121 857.674 146.905 908.033 188.033C877.98 189.45 848.306 195.347 819.995 205.529C860.687 220.654 895.643 243.922 921.549 272.707C902.004 269.343 882.184 267.844 862.356 268.23C911.09 338.825 937.126 422.607 936.988 508.388C936.988 742.278 747.384 931.883 513.494 931.883C283.21 931.883 90 739.072 90 508.388C90 471.956 94.8399 434.337 104.241 399.054C106.71 391.649 110.146 384.546 114.708 381.945C120.419 378.69 125.622 388.394 126.457 391.552C132.649 414.747 140.981 437.318 151.346 458.972C150.439 410.621 171.093 366.578 199.503 328.488C218.452 303.09 236.021 279.556 244.128 211.639C244.672 207.078 248.992 203.799 253.36 205.227C315.02 225.409 347.98 328.088 342.862 413.949C376.923 418.825 376.766 383.24 376.766 383.24C365.876 349.771 373.136 287.566 440.895 259.736H441.016Z" fill="url(#paint0_linear_2580_29292)"/>
<path opacity="0.9" d="M923.133 400.544C933.43 633.466 741.951 834.288 508.46 834.288C289.877 834.288 110.763 665.337 94.5612 450.904C91.6707 470.984 90.1507 491.238 90.0117 511.524C91.6694 740.962 284.407 931.885 513.506 931.885C747.395 931.885 937 742.28 937 508.39C937 471.123 932.172 434.981 923.133 400.544Z" fill="url(#paint1_radial_2580_29292)"/>
<path d="M503.173 290.603C498.611 282.532 477.546 270.59 468.338 268.509C503.185 156.888 680.714 122.621 789.37 142.368C834.587 150.596 890.9 175.231 908.034 188.033C857.674 146.905 784.204 121 702.385 121C583.964 121 467.757 166.507 441.089 259.736H440.895C373.136 287.566 365.876 349.796 376.766 383.252C387.22 343.334 436.963 294.281 503.173 290.603Z" fill="url(#paint2_radial_2580_29292)"/>
<path d="M626.239 213.514C531.11 232.232 500.026 238.355 468.191 268.617C503.946 173.96 595.215 154.769 703.969 197.917C678.086 203.252 652.175 208.455 626.239 213.526V213.514Z" fill="url(#paint3_linear_2580_29292)"/>
<path d="M112.99 386.097C86.9993 492.503 107.085 617.567 225.155 722.521C190.005 684.079 147.087 542.148 241.792 440.752C248.169 433.915 259.144 438.937 259.494 448.278C267.299 659.009 437.338 787.715 633.379 763.648C572.638 760.236 371.757 689.875 521.19 662.046C599.294 647.49 721.756 624.681 721.756 514.791C721.756 336.657 584.024 284.579 500.499 292.323C443.339 297.622 392.46 333.898 376.802 383.229C382.816 402.673 358.846 416.286 342.862 413.999C347.993 328.15 315.033 225.411 253.36 205.228C249.004 203.8 244.672 207.079 244.128 211.641C236.021 279.557 218.452 303.092 199.516 328.489C171.093 366.592 150.439 410.623 151.346 458.974C140.982 437.319 132.649 414.749 126.457 391.554C125.767 388.94 121.98 381.644 117.406 381.305C114.926 381.124 113.607 383.543 112.99 386.097Z" fill="url(#paint4_radial_2580_29292)"/>
<path d="M468.71 672.824C583.707 766.199 814.971 696.189 814.971 469.16C721.608 610.679 602.691 708.301 468.722 672.824H468.71Z" fill="url(#paint5_linear_2580_29292)"/>
<path d="M241.789 440.749C242.835 439.579 244.152 438.685 245.625 438.145C247.098 437.604 248.681 437.435 250.235 437.651C165.463 541.045 233.84 722.627 280.763 767.239C283.388 774.668 236.247 736.034 229.75 726.995C194.055 696.709 142.897 546.635 241.789 440.749Z" fill="url(#paint6_linear_2580_29292)"/>
<path d="M513.494 681.38C628.515 681.38 721.768 605.296 721.768 511.438C721.768 417.579 628.515 341.496 513.494 341.496C415.364 341.496 305.171 405.334 305.22 513.918C305.268 681.707 482.531 778.24 633.633 763.623C622.284 762.304 551.475 758.541 503.621 704.406C499.301 699.53 491.811 691.012 495.211 685.482C498.599 679.952 507.94 681.368 513.482 681.368L513.494 681.38Z" fill="url(#paint7_linear_2580_29292)"/>
<path opacity="0.7" d="M722.046 511.872C722.046 605.73 628.793 681.814 513.772 681.814C508.218 681.814 498.889 680.386 495.489 685.928C492.089 691.446 499.579 699.964 503.898 704.84C548.861 755.708 614.091 762.109 631.213 763.791L633.911 764.057C482.808 778.673 305.546 682.141 305.497 514.352C305.34 486.416 313.115 459.008 327.918 435.316L490.153 582.668C501.696 593.147 521.141 593.147 532.684 582.668L697.992 432.521C713.359 456.212 722.046 483.219 722.046 511.872Z" fill="url(#paint8_linear_2580_29292)"/>
<path d="M687.996 443.52L539.721 605.45C525.098 615.53 501.859 616.661 486.496 607.52L350.495 454.52C355.108 447.332 328.282 428.924 333.992 422.52L364.973 448.034C407.428 486.618 441.752 517.789 490.131 557.83C511.964 575.9 518.749 575.548 540.17 557.83C595.515 512.008 646.871 470.551 699.491 424.976C705.355 431.468 698.764 419.122 703.496 426.433L687.996 443.52Z" fill="#0768BA" fill-opacity="0.3"/>
<path d="M698.578 433.429C698.384 433.126 698.189 432.823 697.992 432.52L532.684 582.667C521.141 593.146 501.697 593.146 490.154 582.667L327.919 435.315C327.844 435.147 327.77 434.978 327.696 434.807C364.933 375.022 442.381 341.496 513.494 341.496C594.054 341.496 663.935 378.818 698.578 433.429Z" fill="url(#paint9_linear_2580_29292)"/>
<path d="M699.081 434.217L534.475 591.733C519.87 602.114 504.322 602.864 488.979 593.451L327.531 434.797C332.138 427.395 337.316 420.363 343.019 413.768L359.959 429.619C402.356 469.355 436.635 501.456 484.95 542.692C506.754 561.301 513.53 560.938 534.922 542.692C590.194 495.502 630.62 459.808 683.169 412.873C689.026 419.559 694.343 426.7 699.069 434.229L699.081 434.217Z" fill="#F2F9FF"/>
<path d="M542.715 256.48C565.003 249.462 563.042 227.404 563.042 227.404C563.042 227.404 551.898 214.276 529.816 221.548C509.15 228.36 505.943 243.086 505.943 243.086C505.943 243.086 517.232 264.502 542.715 256.48Z" fill="white"/>
<defs>
<linearGradient id="paint0_linear_2580_29292" x1="236.989" y1="260.583" x2="833.995" y2="817.442" gradientUnits="userSpaceOnUse">
<stop stop-color="#1B91F3"/>
<stop offset="1" stop-color="#0B68CB"/>
</linearGradient>
<radialGradient id="paint1_radial_2580_29292" cx="0" cy="0" r="1" gradientUnits="userSpaceOnUse" gradientTransform="translate(235.887 452.187) rotate(66.5177) scale(358.108 343.053)">
<stop offset="0.53" stop-color="#0B4186" stop-opacity="0"/>
<stop offset="1" stop-color="#0B4186" stop-opacity="0.45"/>
</radialGradient>
<radialGradient id="paint2_radial_2580_29292" cx="0" cy="0" r="1" gradientUnits="userSpaceOnUse" gradientTransform="translate(524.384 305.111) rotate(-127.996) scale(76.556 126.683)">
<stop stop-color="#B39BF6" stop-opacity="0"/>
<stop offset="1" stop-color="#B39BF6" stop-opacity="0.9"/>
</radialGradient>
<linearGradient id="paint3_linear_2580_29292" x1="403.106" y1="403.131" x2="617.927" y2="163.99" gradientUnits="userSpaceOnUse">
<stop stop-color="#0F5DB0"/>
<stop offset="1" stop-color="#0F5DB0" stop-opacity="0"/>
</linearGradient>
<radialGradient id="paint4_radial_2580_29292" cx="0" cy="0" r="1" gradientUnits="userSpaceOnUse" gradientTransform="translate(353.776 739.134) rotate(-64.2625) scale(558.669 690.12)">
<stop offset="0.02" stop-color="#094188"/>
<stop offset="0.97" stop-color="#0B4186" stop-opacity="0"/>
</radialGradient>
<linearGradient id="paint5_linear_2580_29292" x1="763.5" y1="591" x2="613.5" y2="756.5" gradientUnits="userSpaceOnUse">
<stop stop-color="#B39BF6" stop-opacity="0"/>
<stop offset="1" stop-color="#B39BF6" stop-opacity="0.8"/>
</linearGradient>
<linearGradient id="paint6_linear_2580_29292" x1="184" y1="438" x2="248.19" y2="710.527" gradientUnits="userSpaceOnUse">
<stop offset="0.1" stop-color="#B39BF6"/>
<stop offset="1" stop-color="#B39BF6" stop-opacity="0"/>
</linearGradient>
<linearGradient id="paint7_linear_2580_29292" x1="513.494" y1="403.725" x2="513.494" y2="761.881" gradientUnits="userSpaceOnUse">
<stop stop-color="white"/>
<stop offset="0.91" stop-color="#BEE1FE"/>
<stop offset="1" stop-color="#96CEFD"/>
</linearGradient>
<linearGradient id="paint8_linear_2580_29292" x1="513.775" y1="635.512" x2="513.775" y2="740.186" gradientUnits="userSpaceOnUse">
<stop stop-color="#BCE0FD"/>
<stop offset="1" stop-color="#88CCFC"/>
</linearGradient>
<linearGradient id="paint9_linear_2580_29292" x1="513.137" y1="378.081" x2="513.137" y2="750.521" gradientUnits="userSpaceOnUse">
<stop stop-color="white"/>
<stop offset="0.91" stop-color="#BEE1FE"/>
<stop offset="1" stop-color="#96CEFD"/>
</linearGradient>
</defs>
</svg>
