<svg width="1024" height="1024" viewBox="0 0 1024 1024" fill="none" xmlns="http://www.w3.org/2000/svg">
<path fill-rule="evenodd" clip-rule="evenodd" d="M595.604 720.943H938.38C949.358 720.943 958.264 712.05 958.264 701.059V812.67C958.264 893.805 892.491 959.565 811.369 959.565H468.593C457.614 959.565 448.709 950.672 448.709 939.681V867.838C448.709 786.716 514.481 720.943 595.604 720.943ZM521.091 890H554.091C563.546 890 571.667 888.136 578.455 884.409C585.273 880.682 590.5 875.333 594.137 868.364C597.804 861.394 599.637 853.061 599.637 843.364C599.637 833.697 597.804 825.394 594.137 818.455C590.5 811.515 585.304 806.197 578.546 802.5C571.788 798.773 563.728 796.909 554.364 796.909H521.091V890ZM553.273 873.136H540.773V813.773H553.319C559.137 813.773 564.031 814.803 568 816.864C571.97 818.924 574.955 822.136 576.955 826.5C578.985 830.864 580 836.485 580 843.364C580 850.303 578.985 855.97 576.955 860.364C574.955 864.727 571.955 867.955 567.955 870.045C563.985 872.106 559.091 873.136 553.273 873.136ZM603.921 890H625.012L631.917 868.773H665.529L672.421 890H693.512L661.421 796.909H636.057L603.921 890ZM660.54 853.409L649.103 818.182H648.375L636.915 853.409H660.54ZM724.398 890V796.909H704.716V890H724.398ZM740.591 796.909V890H800.182V873.773H760.273V796.909H740.591ZM817.932 796.909H795.887L829.841 857.091V890H849.387V857.091L883.341 796.909H861.296L840.069 837H839.16L817.932 796.909Z" fill="black"/>
<path fill-rule="evenodd" clip-rule="evenodd" d="M440.011 249.745L440.093 249.745C466.762 156.515 582.973 111 701.398 111C783.218 111 856.689 136.914 907.042 178.038C875.849 179.585 846.172 185.688 819.009 195.539C859.697 210.655 894.652 233.927 920.563 262.717C903.374 259.746 885.544 258.183 867.265 258.183C865.294 258.183 863.327 258.201 861.366 258.238C908.437 326.484 936 409.223 936 498.399C936 575.04 915.642 646.925 880.038 708.943H595.603C573.656 708.943 552.748 713.394 533.731 721.441C522.88 714.225 512.286 705.35 502.627 694.424C498.312 689.542 490.819 681.03 494.217 675.496C497.071 670.848 504.113 671.11 509.579 671.313L509.582 671.313C510.624 671.352 511.609 671.389 512.497 671.389C627.526 671.389 720.775 595.302 720.775 501.444C720.775 407.586 627.526 331.499 512.497 331.499C465.142 331.499 414.98 346.366 375.753 373.954C375.771 373.496 375.77 373.245 375.77 373.245C364.88 339.781 372.14 277.574 439.9 249.744L440.011 249.745ZM501.411 739.862C394.683 707.25 304.259 623.762 304.219 503.924C304.206 464.371 318.817 430.755 342.144 403.999L342.022 403.982L341.859 403.959C346.993 318.098 314.026 215.42 252.359 195.23C247.995 193.802 243.672 197.083 243.128 201.642C235.017 269.558 217.457 293.099 198.514 318.494C170.095 356.594 149.442 400.628 150.342 448.986C140.028 427.399 131.666 404.863 125.46 381.561C124.618 378.402 119.424 368.705 113.71 371.957C109.144 374.556 105.705 381.66 103.247 389.069C93.8494 424.337 89 461.966 89 498.399C89 703.234 241.341 878.215 436.708 914.854V867.838C436.708 815.346 462.168 768.795 501.411 739.862ZM541.719 246.493C564.008 239.474 562.058 217.408 562.058 217.408C562.058 217.408 550.905 204.289 528.823 211.56C508.152 218.368 504.949 233.085 504.949 233.085C504.949 233.085 516.241 254.516 541.719 246.493ZM341.611 435.266C341.611 435.266 433.481 541.313 464.155 573.238C494.828 605.164 520.915 606.885 554.952 572.774C588.988 538.664 677.854 435.128 677.854 435.128L670.367 435.71L529.345 542.801C518.668 550.737 503.311 550.815 492.536 542.989L348.722 435.572L341.611 435.266Z" fill="black"/>
<path opacity="0.9" fill-rule="evenodd" clip-rule="evenodd" d="M893.813 708.943C904.757 689.163 914.206 668.442 922.01 646.933C939.107 656.414 950.055 669.964 955.069 683.705C956.271 687 955.481 691.5 954 695C948.5 708 942.735 708.943 938.379 708.943H893.813ZM911.105 641.8C902.683 665.206 892.259 687.656 880.038 708.943L809 708.943V635.388L866.299 633.952C883.77 633.952 898.687 636.899 911.105 641.8ZM809 720.943V767H957.481C957.997 762.494 958.263 757.913 958.263 753.269V701.232C958.194 709.345 953.272 716.29 946.263 719.32C943.846 720.364 941.18 720.943 938.379 720.943L886.986 720.943L809 720.943Z" fill="black"/>
</svg>
