<svg width="1024" height="1024" viewBox="0 0 1024 1024" fill="none" xmlns="http://www.w3.org/2000/svg">
<path d="M866.299 633.952H493.447C482.468 633.952 473.562 642.857 473.562 653.836V713.488C473.562 801.355 544.781 872.573 632.648 872.573H838.958C904.843 872.573 958.263 819.153 958.263 753.269V701.06C958.263 671.234 928.436 633.952 866.299 633.952Z" fill="#008787"/>
<path d="M439.511 260.213L439.593 260.213C466.262 166.983 582.472 121.468 700.898 121.468C782.718 121.468 856.188 147.383 906.542 188.507C875.348 190.053 845.672 196.156 818.508 206.007C859.197 221.123 894.151 244.395 920.062 273.185C902.874 270.214 885.044 268.651 866.765 268.651C864.793 268.651 862.827 268.67 860.866 268.706C907.937 336.952 935.5 419.691 935.5 508.867C935.5 742.76 745.893 932.367 512 932.367C281.713 932.367 88.5 739.55 88.5 508.867C88.5 472.434 93.3494 434.805 102.747 399.537C105.205 392.129 108.644 385.024 113.21 382.426C118.924 379.173 124.118 388.871 124.96 392.029C131.166 415.331 139.528 437.867 149.842 459.454C148.942 411.096 169.594 367.062 198.014 328.962C216.957 303.568 234.517 280.026 242.627 212.111C243.172 207.552 247.495 204.27 251.858 205.699C313.526 225.888 346.493 328.566 341.359 414.427C375.427 419.297 375.27 383.713 375.27 383.713C364.38 350.249 371.64 288.043 439.4 260.213L439.511 260.213Z" fill="url(#paint0_linear_3127_322)"/>
<path opacity="0.9" d="M921.645 401.019C931.944 633.948 740.461 834.763 506.96 834.763C288.379 834.763 109.258 665.817 93.0569 451.383C90.2023 471.193 88.657 491.427 88.5117 511.993C90.1705 741.459 282.915 932.367 512.001 932.367C745.893 932.367 935.5 742.76 935.5 508.867C935.5 471.597 930.686 435.452 921.645 401.019Z" fill="url(#paint1_radial_3127_322)"/>
<path d="M501.682 291.08C497.118 283.004 476.049 271.065 466.844 268.982C501.682 157.363 679.221 123.094 787.88 142.843C833.092 151.06 889.414 175.712 906.542 188.507C856.189 147.383 782.718 121.468 700.898 121.468C582.473 121.468 466.262 166.983 439.593 260.213L439.511 260.213L439.4 260.213C371.64 288.043 364.388 350.268 375.278 383.732C385.726 343.815 435.474 294.763 501.682 291.08Z" fill="url(#paint2_radial_3127_322)"/>
<path d="M624.749 213.995C529.619 232.713 498.531 238.83 466.69 269.096C502.449 174.43 593.726 155.25 702.483 198.396C672.549 204.59 646.911 209.634 624.749 213.995Z" fill="url(#paint3_linear_3127_322)"/>
<path d="M111.488 386.573C85.5 492.975 105.582 618.042 223.652 722.997C188.501 684.564 145.591 542.628 240.293 441.223C246.672 434.392 257.647 439.419 257.993 448.76C265.795 659.489 435.847 788.196 631.883 764.127C571.14 760.715 370.258 690.36 519.689 662.522C597.799 647.971 720.268 625.156 720.268 515.279C720.268 337.132 582.525 285.049 499.007 292.798C441.842 298.102 390.966 334.372 375.302 383.699C381.313 403.149 357.351 416.767 341.359 414.481C346.492 328.62 313.525 225.888 251.858 205.698C247.494 204.27 243.171 207.552 242.627 212.11C234.516 280.026 216.956 303.567 198.013 328.962C169.594 367.062 148.941 411.096 149.841 459.454C139.527 437.867 131.165 415.331 124.959 392.029C124.262 389.414 120.48 382.126 115.902 381.782C113.424 381.596 112.112 384.017 111.488 386.573Z" fill="url(#paint4_radial_3127_322)"/>
<path d="M467.218 673.306C582.211 766.677 813.484 696.675 813.484 469.635C720.112 611.167 601.195 708.785 467.218 673.306Z" fill="url(#paint5_linear_3127_322)"/>
<path d="M240.291 441.223C242.719 438.623 245.815 437.73 248.741 438.137C163.968 541.523 232.34 723.114 279.268 767.72C281.89 775.148 234.754 736.521 228.254 727.474C192.561 697.191 141.403 547.11 240.291 441.223Z" fill="url(#paint6_linear_3127_322)"/>
<path d="M511.998 681.857C627.027 681.857 720.276 605.77 720.276 511.912C720.276 418.054 627.027 341.967 511.998 341.967C413.867 341.967 303.684 405.809 303.72 514.392C303.775 682.191 481.038 778.721 632.139 764.108C620.79 762.791 549.986 759.03 502.128 704.892C497.813 700.01 490.32 691.498 493.718 685.964C497.116 680.429 506.453 681.857 511.998 681.857Z" fill="url(#paint7_linear_3127_322)"/>
<path opacity="0.7" d="M511.998 681.857C627.027 681.857 720.276 605.77 720.276 511.912C720.276 483.254 711.582 456.252 696.229 432.567L530.92 582.708C519.376 593.193 499.931 593.193 488.387 582.708L326.153 435.359C312.035 458.056 303.71 484.532 303.72 514.393C303.775 682.191 481.038 778.722 632.139 764.109C631.454 764.029 630.553 763.941 629.454 763.833L629.45 763.833C612.32 762.154 547.095 755.761 502.128 704.892C497.813 700.011 490.32 691.499 493.718 685.964C496.572 681.317 503.613 681.579 509.08 681.782C510.123 681.821 511.109 681.857 511.998 681.857Z" fill="url(#paint8_linear_3127_322)"/>
<path fill-rule="evenodd" clip-rule="evenodd" d="M446.66 602.831C408.545 561.691 326.5 435.5 326.5 435.5L328 432L487.895 568.516C498.67 576.342 514.028 576.264 524.705 568.328L680.61 435.246H697C697 435.246 612.245 555.641 568.685 602.831C525.125 650.02 484.775 643.97 446.66 602.831Z" fill="#B5DBF9"/>
<path fill-rule="evenodd" clip-rule="evenodd" d="M463.934 598.578C433.261 566.652 326.266 435.058 326.266 435.058L331.711 432.033L492.315 568.328C503.09 576.154 518.448 576.076 529.125 568.14L685.03 435.058H697.13C697.13 435.058 588.768 564.003 554.731 598.113C520.695 632.224 494.608 630.503 463.934 598.578Z" fill="#A8D3F6"/>
<path fill-rule="evenodd" clip-rule="evenodd" d="M463.934 593.738C433.26 561.812 335.945 444.738 335.945 444.738L348.502 456.071L492.315 563.488C503.09 571.315 518.448 571.236 529.124 563.3L670.147 456.209L682.61 448.973C682.61 448.973 588.768 559.163 554.731 593.274C520.694 627.384 494.608 625.663 463.934 593.738Z" fill="#93C5ED"/>
<path fill-rule="evenodd" clip-rule="evenodd" d="M463.653 583.706C432.979 551.78 341.109 445.734 341.109 445.734L348.221 446.039L492.034 553.457C502.809 561.283 518.167 561.204 528.844 553.268L669.866 446.178L677.353 445.596C677.353 445.596 588.487 549.131 554.45 583.242C520.413 617.353 494.327 615.632 463.653 583.706Z" fill="#7DB6E4"/>
<path d="M532.444 592.421L697.417 434.908C662.488 381.024 598.06 341.967 512.099 341.967C440.961 341.967 363.403 375.526 326.179 435.349L485.98 592.421C497.523 602.906 520.9 602.906 532.444 592.421Z" fill="url(#paint9_linear_3127_322)"/>
<path opacity="0.6" d="M697.589 434.703L532.987 592.199C518.379 602.576 502.829 603.34 487.477 593.915L326.051 435.27C330.598 427.94 335.777 420.915 341.529 414.243C347.345 419.682 352.977 424.957 358.473 430.105C400.881 469.826 435.159 501.932 483.47 543.164C505.279 561.779 512.057 561.412 533.438 543.164C588.72 495.982 629.137 460.275 681.694 413.356C687.606 420.12 692.924 427.253 697.589 434.703Z" fill="white"/>
<path d="M541.219 256.961C563.508 249.943 561.558 227.877 561.558 227.877C561.558 227.877 550.405 214.757 528.324 222.029C507.652 228.836 504.449 243.554 504.449 243.554C504.449 243.554 515.741 264.985 541.219 256.961Z" fill="white"/>
<path opacity="0.2" d="M891.01 698.363C821.485 837.161 677.935 932.446 512.129 932.446C483.759 932.446 455.952 929.52 429 923.957V859.426C429 770.479 497.282 698.363 581.501 698.363H891.01Z" fill="black"/>
<path opacity="0.9" d="M866.299 633.952H493.447C482.468 633.952 473.562 642.857 473.562 653.836V713.488C473.562 801.355 544.781 872.573 632.648 872.573H838.958C904.843 872.573 958.263 819.153 958.263 753.269V701.06C958.263 671.234 928.436 633.952 866.299 633.952Z" fill="url(#paint10_linear_3127_322)"/>
<path d="M938.38 720.944H595.604C514.481 720.944 448.709 786.717 448.709 867.839V939.682C448.709 950.673 457.614 959.566 468.593 959.566H811.369C892.491 959.566 958.264 893.806 958.264 812.671V701.06C958.264 712.051 949.358 720.944 938.38 720.944Z" fill="url(#paint11_linear_3127_322)"/>
<path d="M536.986 790.901H578.153C600.248 790.901 612.651 800.855 612.651 818.716C612.815 822.812 611.829 826.873 609.805 830.438C607.781 834.002 604.799 836.929 601.197 838.887C609.516 843.121 614.15 850.615 614.15 860.982C614.15 880.616 600.511 890.434 578.428 890.434H536.986V790.901ZM555.934 807.95V830.981H578.84C589.07 830.981 593.429 825.948 593.429 819.128C593.429 812.171 588.645 807.95 578.566 807.95H555.934ZM555.934 848.305V873.11H578.703C589.207 873.11 594.653 868.339 594.653 860.57C594.653 852.814 590.031 848.305 577.891 848.305H555.934ZM632.547 790.901H699.481V809.036H651.77V831.393H699.481V849.529H651.77V872.161H699.481V890.434H632.547V790.901ZM743.658 808.624H715.981V790.913H790.009V808.624H762.606V890.434H743.646L743.658 808.624ZM822.583 790.901H841.53L879.15 890.434H859.391L852.846 872.298H811.267L804.722 890.434H784.95L822.583 790.901ZM817.674 854.85H846.439L832.125 815.306L817.674 854.85Z" fill="#20123A"/>
<defs>
<linearGradient id="paint0_linear_3127_322" x1="235.493" y1="261.055" x2="832.5" y2="817.927" gradientUnits="userSpaceOnUse">
<stop stop-color="#1B91F3"/>
<stop offset="1" stop-color="#0B68CB"/>
</linearGradient>
<radialGradient id="paint1_radial_3127_322" cx="0" cy="0" r="1" gradientUnits="userSpaceOnUse" gradientTransform="translate(234.394 452.666) rotate(66.5179) scale(358.108 343.058)">
<stop offset="0.525579" stop-color="#0B4186" stop-opacity="0"/>
<stop offset="1" stop-color="#0B4186" stop-opacity="0.45"/>
</radialGradient>
<radialGradient id="paint2_radial_3127_322" cx="0" cy="0" r="1" gradientUnits="userSpaceOnUse" gradientTransform="translate(522.888 305.588) rotate(-127.994) scale(76.5579 126.685)">
<stop stop-color="#A29CF6" stop-opacity="0"/>
<stop offset="1" stop-color="#A39BF6"/>
</radialGradient>
<linearGradient id="paint3_linear_3127_322" x1="401.609" y1="403.611" x2="616.434" y2="164.465" gradientUnits="userSpaceOnUse">
<stop stop-color="#0F5DB0"/>
<stop offset="1" stop-color="#0F5DB0" stop-opacity="0"/>
</linearGradient>
<radialGradient id="paint4_radial_3127_322" cx="0" cy="0" r="1" gradientUnits="userSpaceOnUse" gradientTransform="translate(352.279 739.612) rotate(-64.2627) scale(558.681 690.131)">
<stop offset="0.0160882" stop-color="#094188"/>
<stop offset="0.967387" stop-color="#0B4186" stop-opacity="0"/>
</radialGradient>
<linearGradient id="paint5_linear_3127_322" x1="778.099" y1="576.766" x2="709.156" y2="769.602" gradientUnits="userSpaceOnUse">
<stop stop-color="#7B8BE9" stop-opacity="0"/>
<stop offset="1" stop-color="#7B8BE9"/>
</linearGradient>
<linearGradient id="paint6_linear_3127_322" x1="182.88" y1="437.478" x2="240.833" y2="713.25" gradientUnits="userSpaceOnUse">
<stop offset="0.104632" stop-color="#C59FF9"/>
<stop offset="1" stop-color="#C59FF9" stop-opacity="0"/>
</linearGradient>
<linearGradient id="paint7_linear_3127_322" x1="512.005" y1="404.203" x2="512.005" y2="762.363" gradientUnits="userSpaceOnUse">
<stop stop-color="white"/>
<stop offset="0.90535" stop-color="#BEE1FE"/>
<stop offset="1" stop-color="#96CEFD"/>
</linearGradient>
<linearGradient id="paint8_linear_3127_322" x1="518.704" y1="606.878" x2="518.704" y2="756.918" gradientUnits="userSpaceOnUse">
<stop stop-color="#BCE0FD"/>
<stop offset="1" stop-color="#88CCFC"/>
</linearGradient>
<linearGradient id="paint9_linear_3127_322" x1="511.304" y1="378.493" x2="511.798" y2="771.562" gradientUnits="userSpaceOnUse">
<stop stop-color="white"/>
<stop offset="0.90535" stop-color="#BEE1FE"/>
<stop offset="1" stop-color="#96CEFD"/>
</linearGradient>
<linearGradient id="paint10_linear_3127_322" x1="856.435" y1="862.856" x2="727.38" y2="740.675" gradientUnits="userSpaceOnUse">
<stop stop-color="#054096" stop-opacity="0.5"/>
<stop offset="0.054" stop-color="#0F3D9C" stop-opacity="0.441"/>
<stop offset="0.261" stop-color="#2F35B1" stop-opacity="0.249"/>
<stop offset="0.466" stop-color="#462FBF" stop-opacity="0.111"/>
<stop offset="0.669" stop-color="#542BC8" stop-opacity="0.028"/>
<stop offset="0.864" stop-color="#592ACB" stop-opacity="0"/>
</linearGradient>
<linearGradient id="paint11_linear_3127_322" x1="504.677" y1="742.838" x2="970.566" y2="939.968" gradientUnits="userSpaceOnUse">
<stop offset="0.001" stop-color="#54FFBD"/>
<stop offset="1" stop-color="#00DDFF"/>
</linearGradient>
</defs>
</svg>
