<svg width="1024" height="1024" viewBox="0 0 1024 1024" fill="none" xmlns="http://www.w3.org/2000/svg">
<path fill-rule="evenodd" clip-rule="evenodd" d="M440.093 249.745L440.011 249.745L439.9 249.744C372.14 277.574 364.88 339.781 375.77 373.245C375.77 373.245 375.771 373.496 375.753 373.954C414.98 346.366 465.142 331.499 512.497 331.499C627.526 331.499 720.775 407.586 720.775 501.444C720.775 595.302 627.526 671.389 512.497 671.389C511.609 671.389 510.624 671.352 509.582 671.313L509.579 671.313C504.113 671.11 497.071 670.848 494.217 675.496C490.819 681.03 498.312 689.542 502.627 694.424C547.595 745.292 612.82 751.685 629.95 753.364C631.051 753.472 631.953 753.56 632.639 753.64C481.537 768.253 304.275 671.722 304.219 503.924C304.206 464.371 318.817 430.755 342.144 403.999C342.049 403.986 341.955 403.972 341.859 403.959C346.993 318.098 314.026 215.42 252.359 195.23C247.995 193.802 243.672 197.083 243.128 201.642C235.017 269.558 217.457 293.099 198.514 318.494C170.095 356.594 149.442 400.628 150.342 448.986C140.028 427.399 131.666 404.863 125.46 381.561C124.618 378.402 119.424 368.705 113.71 371.957C109.144 374.556 105.705 381.66 103.247 389.069C93.8494 424.337 89 461.966 89 498.399C89 729.081 282.213 921.898 512.501 921.898C746.393 921.898 936 732.291 936 498.399C936 409.223 908.437 326.484 861.366 258.238C863.327 258.201 865.294 258.183 867.265 258.183C885.544 258.183 903.374 259.746 920.563 262.717C894.652 233.927 859.697 210.655 819.009 195.539C846.172 185.688 875.849 179.585 907.042 178.038C856.689 136.914 783.218 111 701.398 111C582.973 111 466.762 156.515 440.093 249.745ZM562.058 217.408C562.058 217.408 564.008 239.474 541.719 246.493C516.241 254.516 504.949 233.085 504.949 233.085C504.949 233.085 508.152 218.368 528.823 211.56C550.905 204.289 562.058 217.408 562.058 217.408Z" fill="black"/>
<path d="M464.155 573.238C433.481 541.313 341.611 435.266 341.611 435.266L348.722 435.572L492.536 542.989C503.311 550.815 518.668 550.737 529.345 542.801L670.367 435.71L677.854 435.128C677.854 435.128 588.988 538.664 554.952 572.774C520.915 606.885 494.828 605.164 464.155 573.238Z" fill="black"/>
</svg>
