<svg width="1024" height="1024" viewBox="0 0 1024 1024" fill="none" xmlns="http://www.w3.org/2000/svg">
<path d="M424.362 189.738L424.462 189.739C456.704 77.0266 597.2 22 740.373 22C839.291 22 928.115 53.3298 988.99 103.047C951.279 104.917 915.4 112.296 882.561 124.205C931.752 142.48 974.011 170.615 1005.34 205.421C984.556 201.83 963 199.941 940.901 199.941C938.518 199.941 936.14 199.962 933.77 200.006C990.677 282.515 1024 382.543 1024 490.355C1024 773.125 794.77 1002.35 512.001 1002.35C233.589 1002.35 0 769.244 0 490.355C0 446.309 5.86275 400.816 17.2241 358.178C20.1962 349.221 24.3532 340.632 29.8733 337.49C36.7822 333.558 43.0615 345.282 44.0786 349.101C51.5821 377.272 61.6912 404.518 74.1609 430.616C73.0722 372.152 98.041 318.917 132.4 272.855C155.301 242.153 176.531 213.692 186.336 131.584C186.994 126.073 192.221 122.105 197.496 123.832C272.05 148.241 311.906 272.376 305.7 376.179C346.887 382.067 346.697 339.047 346.697 339.047C333.531 298.59 342.309 223.384 424.229 189.738L424.362 189.738Z" fill="url(#paint0_linear_374_130)"/>
<path opacity="0.9" d="M1007.25 359.969C1019.7 641.574 788.203 884.355 505.906 884.355C241.648 884.355 25.096 680.102 5.50894 420.858C2.05773 444.808 0.189563 469.27 0.013916 494.134C2.01936 771.552 235.042 1002.35 512.001 1002.35C794.77 1002.35 1024 773.125 1024 490.355C1024 445.297 1018.18 401.598 1007.25 359.969Z" fill="url(#paint1_radial_374_130)"/>
<path d="M499.526 227.057C494.007 217.293 468.536 202.859 457.408 200.34C499.526 65.3957 714.165 23.965 845.531 47.8414C900.191 57.776 968.283 87.5793 988.99 103.047C928.115 53.3298 839.291 22 740.373 22C597.199 22 456.704 77.0266 424.461 189.739L424.362 189.738L424.229 189.738C342.309 223.384 333.541 298.613 346.707 339.07C359.338 290.812 419.482 231.509 499.526 227.057Z" fill="url(#paint2_radial_374_130)"/>
<path d="M648.31 133.862C533.302 156.492 495.717 163.887 457.222 200.478C500.453 86.0295 610.805 62.8413 742.289 115.004C706.1 122.492 675.104 128.59 648.31 133.862Z" fill="url(#paint3_linear_374_130)"/>
<path d="M27.7927 342.504C-3.62631 471.142 20.6518 622.344 163.396 749.232C120.899 702.768 69.0223 531.171 183.514 408.575C191.226 400.317 204.495 406.394 204.913 417.686C214.346 672.453 419.933 828.056 656.936 798.958C583.5 794.832 340.639 709.775 521.297 676.12C615.73 658.528 763.791 630.945 763.791 498.107C763.791 282.732 597.264 219.765 496.292 229.133C427.181 235.546 365.674 279.395 346.736 339.03C354.004 362.545 325.034 379.008 305.7 376.244C311.906 272.441 272.05 148.241 197.496 123.832C192.221 122.105 186.994 126.072 186.336 131.584C176.531 213.692 155.301 242.153 132.399 272.855C98.0408 318.916 73.0719 372.152 74.1606 430.616C61.6909 404.518 51.5818 377.272 44.0783 349.101C43.2362 345.939 38.6639 337.129 33.1293 336.713C30.1333 336.487 28.5475 339.414 27.7927 342.504Z" fill="url(#paint4_radial_374_130)"/>
<path d="M457.859 689.157C596.883 802.04 876.486 717.41 876.487 442.924C763.602 614.032 619.834 732.05 457.859 689.157Z" fill="url(#paint5_linear_374_130)"/>
<path d="M183.511 408.575C186.446 405.432 190.189 404.353 193.726 404.844C91.2381 529.835 173.898 749.374 230.633 803.301C233.803 812.281 176.817 765.582 168.958 754.645C125.807 718.034 63.9582 536.59 183.511 408.575Z" fill="url(#paint6_linear_374_130)"/>
<path d="M511.997 699.495C651.064 699.495 763.8 607.507 763.8 494.036C763.8 380.564 651.064 288.577 511.997 288.577C393.359 288.577 260.151 365.761 260.195 497.035C260.262 699.898 474.568 816.601 657.245 798.934C643.525 797.342 557.924 792.795 500.065 727.343C494.848 721.441 485.789 711.151 489.898 704.46C494.006 697.769 505.294 699.495 511.997 699.495Z" fill="url(#paint7_linear_374_130)"/>
<path opacity="0.7" d="M511.997 699.495C651.064 699.495 763.8 607.508 763.8 494.036C763.8 459.389 753.289 426.744 734.728 398.11L534.874 579.627C520.918 592.303 497.409 592.303 483.453 579.627L287.316 401.486C270.248 428.925 260.183 460.935 260.195 497.035C260.262 699.899 474.568 816.602 657.245 798.935C656.417 798.839 655.328 798.732 653.999 798.602L653.994 798.601C633.285 796.572 554.429 788.842 500.065 727.344C494.848 721.442 485.789 711.152 489.898 704.461C493.348 698.842 501.861 699.158 508.47 699.404C509.731 699.451 510.923 699.495 511.997 699.495Z" fill="url(#paint8_linear_374_130)"/>
<path fill-rule="evenodd" clip-rule="evenodd" d="M433.006 603.954C386.926 554.217 287.736 401.051 287.736 401.051L288.945 398.633L482.859 562.469C495.886 571.93 514.453 571.836 527.361 562.241L715.846 401.348H735.661C735.661 401.348 633.195 546.902 580.532 603.954C527.869 661.005 479.086 653.691 433.006 603.954Z" fill="#B5DBF9"/>
<path fill-rule="evenodd" clip-rule="evenodd" d="M453.89 598.812C416.806 560.215 287.452 401.121 287.452 401.121L294.035 397.464L488.201 562.241C501.228 571.703 519.795 571.608 532.703 562.014L721.188 401.121H735.817C735.817 401.121 604.81 557.012 563.661 598.251C522.511 639.49 490.973 637.41 453.89 598.812Z" fill="#A8D3F6"/>
<path fill-rule="evenodd" clip-rule="evenodd" d="M453.89 592.961C416.806 554.364 299.155 412.824 299.155 412.824L314.335 426.526L488.201 556.39C501.228 565.852 519.795 565.757 532.703 556.163L703.195 426.693L718.263 417.944C718.263 417.944 604.81 551.161 563.661 592.4C522.511 633.639 490.973 631.559 453.89 592.961Z" fill="#93C5ED"/>
<path fill-rule="evenodd" clip-rule="evenodd" d="M453.55 580.833C416.466 542.236 305.398 414.028 305.398 414.028L313.995 414.398L487.862 544.262C500.888 553.724 519.455 553.629 532.363 544.035L702.855 414.565L711.907 413.862C711.907 413.862 604.47 539.033 563.321 580.272C522.171 621.511 490.634 619.43 453.55 580.833Z" fill="#7DB6E4"/>
<path d="M536.716 591.369L736.165 400.94C693.936 335.796 616.044 288.577 512.119 288.577C426.116 288.577 332.35 329.148 287.347 401.474L480.543 591.369C494.499 604.045 522.76 604.045 536.716 591.369Z" fill="url(#paint9_linear_374_130)"/>
<path opacity="0.6" d="M736.372 400.692L537.372 591.101C519.711 603.646 500.912 604.57 482.352 593.175L287.192 401.378C292.689 392.516 298.95 384.023 305.905 375.957C312.937 382.533 319.745 388.91 326.389 395.133C377.66 443.155 419.101 481.971 477.507 531.819C503.875 554.323 512.069 553.88 537.917 531.819C604.752 474.777 653.616 431.608 717.156 374.884C724.302 383.062 730.732 391.685 736.372 400.692Z" fill="white"/>
<path d="M547.325 185.808C574.271 177.322 571.914 150.645 571.914 150.645C571.914 150.645 558.431 134.784 531.735 143.575C506.744 151.805 502.871 169.598 502.871 169.598C502.871 169.598 516.523 195.507 547.325 185.808Z" fill="white"/>
<defs>
<linearGradient id="paint0_linear_374_130" x1="177.71" y1="190.757" x2="899.476" y2="864" gradientUnits="userSpaceOnUse">
<stop stop-color="#1B91F3"/>
<stop offset="1" stop-color="#0B68CB"/>
</linearGradient>
<radialGradient id="paint1_radial_374_130" cx="0" cy="0" r="1" gradientUnits="userSpaceOnUse" gradientTransform="translate(176.382 422.409) rotate(66.5179) scale(432.943 414.748)">
<stop offset="0.525579" stop-color="#0B4186" stop-opacity="0"/>
<stop offset="1" stop-color="#0B4186" stop-opacity="0.45"/>
</radialGradient>
<radialGradient id="paint2_radial_374_130" cx="0" cy="0" r="1" gradientUnits="userSpaceOnUse" gradientTransform="translate(525.163 244.596) rotate(-127.994) scale(92.5565 153.158)">
<stop stop-color="#A29CF6" stop-opacity="0"/>
<stop offset="1" stop-color="#A39BF6"/>
</radialGradient>
<linearGradient id="paint3_linear_374_130" x1="378.541" y1="363.103" x2="638.258" y2="73.9824" gradientUnits="userSpaceOnUse">
<stop stop-color="#0F5DB0"/>
<stop offset="1" stop-color="#0F5DB0" stop-opacity="0"/>
</linearGradient>
<radialGradient id="paint4_radial_374_130" cx="0" cy="0" r="1" gradientUnits="userSpaceOnUse" gradientTransform="translate(318.902 769.319) rotate(-64.2627) scale(675.43 834.35)">
<stop offset="0.0160882" stop-color="#094188"/>
<stop offset="0.967387" stop-color="#0B4186" stop-opacity="0"/>
</radialGradient>
<linearGradient id="paint5_linear_374_130" x1="833.706" y1="572.443" x2="750.356" y2="805.576" gradientUnits="userSpaceOnUse">
<stop stop-color="#7B8BE9" stop-opacity="0"/>
<stop offset="1" stop-color="#7B8BE9"/>
</linearGradient>
<linearGradient id="paint6_linear_374_130" x1="114.102" y1="404.047" x2="184.166" y2="737.448" gradientUnits="userSpaceOnUse">
<stop offset="0.104632" stop-color="#C59FF9"/>
<stop offset="1" stop-color="#C59FF9" stop-opacity="0"/>
</linearGradient>
<linearGradient id="paint7_linear_374_130" x1="512.006" y1="363.819" x2="512.006" y2="796.824" gradientUnits="userSpaceOnUse">
<stop stop-color="white"/>
<stop offset="0.90535" stop-color="#BEE1FE"/>
<stop offset="1" stop-color="#96CEFD"/>
</linearGradient>
<linearGradient id="paint8_linear_374_130" x1="520.104" y1="608.848" x2="520.104" y2="790.242" gradientUnits="userSpaceOnUse">
<stop stop-color="#BCE0FD"/>
<stop offset="1" stop-color="#88CCFC"/>
</linearGradient>
<linearGradient id="paint9_linear_374_130" x1="511.159" y1="332.736" x2="511.756" y2="807.945" gradientUnits="userSpaceOnUse">
<stop stop-color="white"/>
<stop offset="0.90535" stop-color="#BEE1FE"/>
<stop offset="1" stop-color="#96CEFD"/>
</linearGradient>
</defs>
</svg>
