<?xml version="1.0" encoding="utf-8"?>
<!-- Generator: Adobe Illustrator 16.0.0, SVG Export Plug-In . SVG Version: 6.00 Build 0)  -->
<!DOCTYPE svg PUBLIC "-//W3C//DTD SVG 1.1//EN" "http://www.w3.org/Graphics/SVG/1.1/DTD/svg11.dtd">
<svg version="1.1" id="Layer_1" xmlns="http://www.w3.org/2000/svg" xmlns:xlink="http://www.w3.org/1999/xlink" x="0px" y="0px"
	 width="24px" height="24px" viewBox="0 0 24 24" enable-background="new 0 0 24 24" xml:space="preserve">
<path fill="#FFFFFF" d="M17.5,10.156L17,19.313c0,0-2.281,1.469-5,1.469S7,19.25,7,19.25l-0.5-9.094c0,0,2.969,0.938,5.5,0.938
	S17.5,10.156,17.5,10.156z"/>
<path fill="#FFFFFF" d="M14.479,6.17V3.844H9.521V6.17C7.428,6.469,5.969,7.133,5.969,7.906c0,1.053,2.7,1.906,6.031,1.906
	s6.031-0.854,6.031-1.906C18.031,7.133,16.572,6.469,14.479,6.17z M10.306,6.078V4.656h3.375v1.42C13.146,6.027,12.584,6,12,6
	C11.411,6,10.844,6.028,10.306,6.078z"/>
</svg>
