<?xml version="1.0" encoding="UTF-8" standalone="no"?>
<!-- Created with Inkscape (http://www.inkscape.org/) -->

<svg
   xmlns:dc="http://purl.org/dc/elements/1.1/"
   xmlns:cc="http://creativecommons.org/ns#"
   xmlns:rdf="http://www.w3.org/1999/02/22-rdf-syntax-ns#"
   xmlns:svg="http://www.w3.org/2000/svg"
   xmlns="http://www.w3.org/2000/svg"
   xmlns:sodipodi="http://sodipodi.sourceforge.net/DTD/sodipodi-0.dtd"
   xmlns:inkscape="http://www.inkscape.org/namespaces/inkscape"
   width="48"
   height="48"
   id="svg3870"
   version="1.1"
   inkscape:version="0.48.2 r9819"
   sodipodi:docname="ic_action_request_read_receipt_dark.svg"
   inkscape:export-xdpi="45"
   inkscape:export-ydpi="45">
  <defs
     id="defs3872">
    <clipPath
       clipPathUnits="userSpaceOnUse"
       id="clipPath1512">
      <path
         inkscape:connector-curvature="0"
         d="M 0,96 96,96 96,0 0,0 0,96 z"
         id="path1514" />
    </clipPath>
    <clipPath
       clipPathUnits="userSpaceOnUse"
       id="clipPath1272">
      <path
         inkscape:connector-curvature="0"
         d="M 0,96 96,96 96,0 0,0 0,96 z"
         id="path1274" />
    </clipPath>
  </defs>
  <sodipodi:namedview
     id="base"
     pagecolor="#ffffff"
     bordercolor="#666666"
     borderopacity="1.0"
     inkscape:pageopacity="0.0"
     inkscape:pageshadow="2"
     inkscape:zoom="11.313709"
     inkscape:cx="25.235612"
     inkscape:cy="19.434664"
     inkscape:document-units="px"
     inkscape:current-layer="layer1"
     showgrid="false"
     inkscape:window-width="1920"
     inkscape:window-height="1138"
     inkscape:window-x="1592"
     inkscape:window-y="-8"
     inkscape:window-maximized="1" />
  <metadata
     id="metadata3875">
    <rdf:RDF>
      <cc:Work
         rdf:about="">
        <dc:format>image/svg+xml</dc:format>
        <dc:type
           rdf:resource="http://purl.org/dc/dcmitype/StillImage" />
        <dc:title></dc:title>
      </cc:Work>
    </rdf:RDF>
  </metadata>
  <g
     inkscape:label="Layer 1"
     inkscape:groupmode="layer"
     id="layer1"
     transform="translate(0,-1004.3622)">
    <g
       id="g5056">
      <path
         id="path4928"
         d="m 23.968604,1038.3897 c -2.726957,0 -4.9456,-2.1554 -5.057229,-4.8554 l -12.853875,-6.3908 0,18.7398 35.885,0 0,-18.7398 -12.915171,6.3898 c -0.112627,2.701 -2.330273,4.8564 -5.058725,4.8564"
         style="fill:#ffffff;fill-opacity:0.50196081;fill-rule:nonzero;stroke:none"
         inkscape:connector-curvature="0" />
      <path
         id="path1278"
         d="m 16.75,1014.4247 -10.6875,5.3125 0,5.1875 3,0 0,-3.4687 13,0 c 0.05422,-0.061 0.0994,-0.1282 0.15625,-0.1875 0.458001,-0.4782 0.984985,-0.9244 1.59375,-1.4063 0.492732,-0.3871 0.899107,-0.7444 1.21875,-1.0312 0.283638,-0.2541 0.523574,-0.4869 0.6875,-0.7188 0.141767,-0.2005 0.22254,-0.42 0.28125,-0.625 0.06258,-0.2195 0.125,-0.5071 0.125,-0.8437 0,-0.4248 -0.101961,-0.5806 -0.34375,-0.8125 -0.157294,-0.1514 -0.508186,-0.3438 -1.28125,-0.3438 -0.685423,0 -1.446773,0.1333 -2.28125,0.4375 -0.911223,0.3328 -1.855872,0.7306 -2.84375,1.2188 a 1.2023317,1.2023317 0 0 1 -1.625,-0.5625 l -1,-2.1563 z m 16.9375,1.2188 c 0.0214,0.2542 0.03125,0.4862 0.03125,0.75 0,0.8442 -0.07523,1.6158 -0.28125,2.3437 -0.200744,0.7089 -0.511916,1.3909 -0.90625,2 -0.152557,0.2353 -0.322454,0.4878 -0.5,0.7188 l 6.9375,0 0,3.4687 2.96875,0 0,-5.1875 -8.25,-4.0937 z"
         style="fill:#ffffff;fill-opacity:0.50196081;fill-rule:nonzero;stroke:none"
         inkscape:connector-curvature="0" />
      <path
         id="path4900"
         d="m 20.715646,1034.057 c 0,-0.5655 0.08122,-1.0441 0.244118,-1.4353 0.162018,-0.3913 0.387794,-0.7073 0.676457,-0.9483 0.289098,-0.241 0.629292,-0.4147 1.020577,-0.5232 0.390851,-0.1079 0.809213,-0.1628 1.254651,-0.1628 0.421422,0 0.821877,0.055 1.200939,0.1628 0.379059,0.1093 0.713138,0.2822 1.002237,0.5232 0.288661,0.241 0.517494,0.557 0.686061,0.9483 0.168569,0.3912 0.25329,0.8698 0.25329,1.4353 0,0.5418 -0.08471,1.0052 -0.25329,1.3904 -0.168567,0.3851 -0.3974,0.7044 -0.686061,0.9573 -0.289099,0.2524 -0.623178,0.4359 -1.002237,0.5508 -0.379062,0.1136 -0.779517,0.171 -1.200939,0.171 -0.445438,0 -0.8638,-0.057 -1.254651,-0.171 -0.391285,-0.1151 -0.731479,-0.2984 -1.020577,-0.5508 -0.288663,-0.2529 -0.514439,-0.5722 -0.676457,-0.9573 -0.162889,-0.3852 -0.244118,-0.8486 -0.244118,-1.3904"
         style="fill:#ffffff;fill-opacity:0.50196081;fill-rule:nonzero;stroke:none"
         inkscape:connector-curvature="0" />
      <path
         id="path1518"
         d="m 21.311312,1027.8812 0,-1.336 c 0,-0.6139 0.06332,-1.1706 0.189966,-1.6702 0.126208,-0.4996 0.318358,-0.9754 0.577323,-1.4269 0.259405,-0.451 0.593045,-0.8904 1.002237,-1.3178 0.409192,-0.4273 0.903105,-0.8699 1.480866,-1.3273 0.505703,-0.3973 0.9328,-0.7523 1.281728,-1.0655 0.349362,-0.3128 0.63191,-0.6232 0.848954,-0.9303 0.216602,-0.3064 0.37338,-0.6284 0.469894,-0.9655 0.09607,-0.3368 0.144111,-0.7289 0.144111,-1.1738 0,-0.6865 -0.231889,-1.2526 -0.695234,-1.6974 -0.46378,-0.4462 -1.171242,-0.6682 -2.121509,-0.6682 -0.831049,0 -1.724547,0.1745 -2.681803,0.5235 -0.956385,0.3493 -1.947266,0.7765 -2.970463,1.2822 l -1.842022,-3.9908 c 0.517497,-0.3007 1.08041,-0.5867 1.688739,-0.8575 0.607891,-0.2711 1.239803,-0.5117 1.895732,-0.7221 0.655931,-0.2107 1.32103,-0.3766 1.995303,-0.4969 0.674272,-0.1209 1.336315,-0.1806 1.98657,-0.1806 1.228013,0 2.335056,0.148 3.322446,0.4423 0.987391,0.2953 1.824116,0.7253 2.509742,1.2914 0.6865,0.5655 1.212727,1.2525 1.580432,2.0581 0.366832,0.807 0.550684,1.7277 0.550684,2.7631 0,0.7582 -0.08427,1.4359 -0.252852,2.0315 -0.168566,0.5953 -0.417925,1.15 -0.748947,1.6612 -0.331896,0.512 -0.746765,1.0055 -1.245918,1.4804 -0.500027,0.4756 -1.080843,0.9785 -1.742888,1.5081 -0.505703,0.3974 -0.917952,0.7437 -1.237621,1.0384 -0.318793,0.2948 -0.56815,0.5747 -0.748947,0.8395 -0.180796,0.2655 -0.303947,0.5393 -0.369887,0.8217 -0.06639,0.2827 -0.09956,0.6167 -0.09956,1.0018 l 0,1.0836 -4.767067,0 z"
         style="fill:#ffffff;fill-opacity:0.50196081;fill-rule:nonzero;stroke:none"
         inkscape:connector-curvature="0" />
    </g>
  </g>
</svg>
