<?xml version="1.0" encoding="UTF-8" standalone="no"?>
<!-- Created with Inkscape (http://www.inkscape.org/) -->

<svg
   xmlns:dc="http://purl.org/dc/elements/1.1/"
   xmlns:cc="http://creativecommons.org/ns#"
   xmlns:rdf="http://www.w3.org/1999/02/22-rdf-syntax-ns#"
   xmlns:svg="http://www.w3.org/2000/svg"
   xmlns="http://www.w3.org/2000/svg"
   xmlns:sodipodi="http://sodipodi.sourceforge.net/DTD/sodipodi-0.dtd"
   xmlns:inkscape="http://www.inkscape.org/namespaces/inkscape"
   width="24"
   height="24"
   id="svg4727"
   version="1.1"
   inkscape:version="0.48.2 r9819"
   sodipodi:docname="ic_notify_check_mail_anim_2.svg">
  <defs
     id="defs4729">
    <clipPath
       clipPathUnits="userSpaceOnUse"
       id="clipPath1562">
      <path
         inkscape:connector-curvature="0"
         d="M 0,96 96,96 96,0 0,0 0,96 z"
         id="path1564" />
    </clipPath>
  </defs>
  <sodipodi:namedview
     id="base"
     pagecolor="#ffffff"
     bordercolor="#666666"
     borderopacity="1.0"
     inkscape:pageopacity="0"
     inkscape:pageshadow="2"
     inkscape:zoom="22.4"
     inkscape:cx="5.5993257"
     inkscape:cy="11.436379"
     inkscape:document-units="px"
     inkscape:current-layer="layer1"
     showgrid="false"
     inkscape:window-width="1920"
     inkscape:window-height="1138"
     inkscape:window-x="1592"
     inkscape:window-y="-8"
     inkscape:window-maximized="1" />
  <metadata
     id="metadata4732">
    <rdf:RDF>
      <cc:Work
         rdf:about="">
        <dc:format>image/svg+xml</dc:format>
        <dc:type
           rdf:resource="http://purl.org/dc/dcmitype/StillImage" />
        <dc:title></dc:title>
      </cc:Work>
    </rdf:RDF>
  </metadata>
  <g
     inkscape:label="Layer 1"
     inkscape:groupmode="layer"
     id="layer1"
     transform="translate(0,-1028.3622)">
    <path
       inkscape:connector-curvature="0"
       id="path1568"
       style="fill:#ffffff;fill-opacity:1;fill-rule:evenodd;stroke:none"
       d="m 12.39161,1049.4131 c -0.926002,0.039 -1.849799,-0.064 -2.7312967,-0.2999 -1.4366246,-0.385 -2.7623107,-1.1371 -3.8646989,-2.1747 l -2.5008194,1.557 1.0256203,-5.8945 6.1484597,1.4277 -2.8188523,1.7578 c 1.3073739,1.0491 2.9593693,1.6023 4.6524743,1.5278 3.214782,-0.1417 5.89761,-2.4408 6.523184,-5.5866 l 2.058824,0.4095 c -0.813986,4.0984 -4.305926,7.0908 -8.492795,7.2765 m 3.959177,-14.4742 c -1.308894,-1.0525 -2.961257,-1.6046 -4.654293,-1.5287 -3.2146834,0.1389 -5.8937996,2.4359 -6.5237945,5.5867 l -2.0584209,-0.4102 c 0.8182468,-4.1023 4.3092347,-7.0922 8.4896194,-7.2766 2.449181,-0.1064 4.828488,0.7949 6.605014,2.474 l 2.497608,-1.554 -1.025298,5.8944 -6.151299,-1.431 2.820888,-1.7545 z" />
  </g>
</svg>
