<?xml version="1.0" encoding="UTF-8" standalone="no"?>
<!-- Created with Inkscape (http://www.inkscape.org/) -->

<svg
   xmlns:dc="http://purl.org/dc/elements/1.1/"
   xmlns:cc="http://creativecommons.org/ns#"
   xmlns:rdf="http://www.w3.org/1999/02/22-rdf-syntax-ns#"
   xmlns:svg="http://www.w3.org/2000/svg"
   xmlns="http://www.w3.org/2000/svg"
   xmlns:sodipodi="http://sodipodi.sourceforge.net/DTD/sodipodi-0.dtd"
   xmlns:inkscape="http://www.inkscape.org/namespaces/inkscape"
   width="24"
   height="24"
   id="svg4727"
   version="1.1"
   inkscape:version="0.48.2 r9819"
   sodipodi:docname="ic_notify_check_mail_anim_4.svg">
  <defs
     id="defs4729">
    <clipPath
       clipPathUnits="userSpaceOnUse"
       id="clipPath1562">
      <path
         inkscape:connector-curvature="0"
         d="M 0,96 96,96 96,0 0,0 0,96 z"
         id="path1564" />
    </clipPath>
  </defs>
  <sodipodi:namedview
     id="base"
     pagecolor="#ffffff"
     bordercolor="#666666"
     borderopacity="1.0"
     inkscape:pageopacity="0"
     inkscape:pageshadow="2"
     inkscape:zoom="22.4"
     inkscape:cx="5.5993257"
     inkscape:cy="11.436379"
     inkscape:document-units="px"
     inkscape:current-layer="layer1"
     showgrid="false"
     inkscape:window-width="1920"
     inkscape:window-height="1138"
     inkscape:window-x="1592"
     inkscape:window-y="-8"
     inkscape:window-maximized="1" />
  <metadata
     id="metadata4732">
    <rdf:RDF>
      <cc:Work
         rdf:about="">
        <dc:format>image/svg+xml</dc:format>
        <dc:type
           rdf:resource="http://purl.org/dc/dcmitype/StillImage" />
        <dc:title></dc:title>
      </cc:Work>
    </rdf:RDF>
  </metadata>
  <g
     inkscape:label="Layer 1"
     inkscape:groupmode="layer"
     id="layer1"
     transform="translate(0,-1028.3622)">
    <path
       inkscape:connector-curvature="0"
       id="path1568"
       style="fill:#ffffff;fill-opacity:1;fill-rule:evenodd;stroke:none"
       d="m 4.3569509,1045.2268 c -0.4967889,-0.7824 -0.8694864,-1.6339 -1.105962,-2.5152 -0.3848585,-1.4367 -0.3963542,-2.9609 -0.049001,-4.4343 l -2.59881535,-1.3873 5.61760865,-2.059 1.8378325,6.0385 -2.9317389,-1.5623 c -0.2548433,1.6568 0.092061,3.364 1.0030988,4.7931 1.730144,2.7132 5.0626048,3.8871 8.0997568,2.8559 l 0.67475,1.9878 c -3.956299,1.3442 -8.2937519,-0.1837 -10.5480139,-3.7168 m 14.5145949,-3.8083 c 0.257076,-1.6598 -0.09098,-3.3668 -1.003223,-4.7951 -1.727658,-2.7145 -5.056475,-3.8862 -8.1001079,-2.8565 l -0.6739938,-1.9877 c 3.9618327,-1.3425 8.2966387,0.1859 10.5465247,3.714 1.316759,2.0678 1.725864,4.579 1.159987,6.957 l 2.594608,1.386 -5.617373,2.0593 -1.836384,-6.0426 2.929887,1.5657 z" />
  </g>
</svg>
