<?xml version="1.0" encoding="UTF-8" standalone="no"?>
<!-- Created with Inkscape (http://www.inkscape.org/) -->

<svg
   xmlns:dc="http://purl.org/dc/elements/1.1/"
   xmlns:cc="http://creativecommons.org/ns#"
   xmlns:rdf="http://www.w3.org/1999/02/22-rdf-syntax-ns#"
   xmlns:svg="http://www.w3.org/2000/svg"
   xmlns="http://www.w3.org/2000/svg"
   xmlns:sodipodi="http://sodipodi.sourceforge.net/DTD/sodipodi-0.dtd"
   xmlns:inkscape="http://www.inkscape.org/namespaces/inkscape"
   width="24"
   height="24"
   id="svg4727"
   version="1.1"
   inkscape:version="0.48.2 r9819"
   sodipodi:docname="ic_notify_check_mail_anim_0.svg">
  <defs
     id="defs4729">
    <clipPath
       clipPathUnits="userSpaceOnUse"
       id="clipPath1562">
      <path
         inkscape:connector-curvature="0"
         d="M 0,96 96,96 96,0 0,0 0,96 z"
         id="path1564" />
    </clipPath>
  </defs>
  <sodipodi:namedview
     id="base"
     pagecolor="#ffffff"
     bordercolor="#666666"
     borderopacity="1.0"
     inkscape:pageopacity="0"
     inkscape:pageshadow="2"
     inkscape:zoom="22.4"
     inkscape:cx="5.5993257"
     inkscape:cy="11.436379"
     inkscape:document-units="px"
     inkscape:current-layer="layer1"
     showgrid="false"
     inkscape:window-width="1920"
     inkscape:window-height="1138"
     inkscape:window-x="1592"
     inkscape:window-y="-8"
     inkscape:window-maximized="1" />
  <metadata
     id="metadata4732">
    <rdf:RDF>
      <cc:Work
         rdf:about="">
        <dc:format>image/svg+xml</dc:format>
        <dc:type
           rdf:resource="http://purl.org/dc/dcmitype/StillImage" />
        <dc:title />
      </cc:Work>
    </rdf:RDF>
  </metadata>
  <g
     inkscape:label="Layer 1"
     inkscape:groupmode="layer"
     id="layer1"
     transform="translate(0,-1028.3622)">
    <path
       inkscape:connector-curvature="0"
       id="path1568"
       style="fill:#ffffff;fill-opacity:1;fill-rule:evenodd;stroke:none"
       d="m 20.034171,1044.5482 c -0.4293,0.8214 -0.9801,1.5701 -1.6254,2.2154 -1.0517,1.0517 -2.3659,1.8237 -3.8158,2.2594 l 0.098,2.9443 -4.592,-3.8355 4.3107,-4.6108 0.1128,3.32 c 1.5623,-0.6076 2.8672,-1.762 3.6494,-3.2652 1.4847,-2.8549 0.835,-6.3279 -1.5765,-8.4425 l 1.384,-1.5783 c 3.1423,2.7541 3.9879,7.2745 2.0552,10.9932 M 9.4791713,1033.8824 c -1.5659,0.6073 -2.8705,1.7618 -3.651,3.2664 -1.4871,2.8534 -0.8374,6.3221 1.5763,8.4431 l -1.3844,1.5776 c -3.1437,-2.7599 -3.9875,-7.2781 -2.057,-10.9906 1.1325,-2.1742 3.1027,-3.7841 5.4451,-4.4831 l -0.097,-2.94 4.5919997,3.8351 -4.3148997,4.6117 -0.109,-3.3202 z" />
  </g>
</svg>
