<?xml version="1.0" encoding="UTF-8" standalone="no"?>
<!-- Created with Inkscape (http://www.inkscape.org/) -->

<svg
   xmlns:dc="http://purl.org/dc/elements/1.1/"
   xmlns:cc="http://creativecommons.org/ns#"
   xmlns:rdf="http://www.w3.org/1999/02/22-rdf-syntax-ns#"
   xmlns:svg="http://www.w3.org/2000/svg"
   xmlns="http://www.w3.org/2000/svg"
   xmlns:sodipodi="http://sodipodi.sourceforge.net/DTD/sodipodi-0.dtd"
   xmlns:inkscape="http://www.inkscape.org/namespaces/inkscape"
   width="24"
   height="24"
   id="svg4727"
   version="1.1"
   inkscape:version="0.48.2 r9819"
   sodipodi:docname="ic_notify_check_mail_anim_1.svg">
  <defs
     id="defs4729">
    <clipPath
       clipPathUnits="userSpaceOnUse"
       id="clipPath1562">
      <path
         inkscape:connector-curvature="0"
         d="M 0,96 96,96 96,0 0,0 0,96 z"
         id="path1564" />
    </clipPath>
  </defs>
  <sodipodi:namedview
     id="base"
     pagecolor="#ffffff"
     bordercolor="#666666"
     borderopacity="1.0"
     inkscape:pageopacity="0"
     inkscape:pageshadow="2"
     inkscape:zoom="22.4"
     inkscape:cx="5.5993257"
     inkscape:cy="11.436379"
     inkscape:document-units="px"
     inkscape:current-layer="layer1"
     showgrid="false"
     inkscape:window-width="1920"
     inkscape:window-height="1138"
     inkscape:window-x="1592"
     inkscape:window-y="-8"
     inkscape:window-maximized="1" />
  <metadata
     id="metadata4732">
    <rdf:RDF>
      <cc:Work
         rdf:about="">
        <dc:format>image/svg+xml</dc:format>
        <dc:type
           rdf:resource="http://purl.org/dc/dcmitype/StillImage" />
        <dc:title></dc:title>
      </cc:Work>
    </rdf:RDF>
  </metadata>
  <g
     inkscape:label="Layer 1"
     inkscape:groupmode="layer"
     id="layer1"
     transform="translate(0,-1028.3622)">
    <path
       inkscape:connector-curvature="0"
       id="path1568"
       style="fill:#ffffff;fill-opacity:1;fill-rule:evenodd;stroke:none"
       d="m 16.864391,1048.0047 c -0.782485,0.4967 -1.633842,0.8697 -2.515338,1.1059 -1.436649,0.3849 -2.96078,0.3964 -4.4342797,0.049 l -1.3872796,2.5988 -2.0590386,-5.6176 6.0385759,-1.8378 -1.562313,2.9317 c 1.656792,0.2549 3.364069,-0.092 4.793074,-1.0031 2.713237,-1.7301 3.887081,-5.0626 2.855961,-8.0997 l 1.987729,-0.6748 c 1.344261,3.9563 -0.183628,8.2938 -3.716745,10.548 m -3.808344,-14.5146 c -1.659759,-0.257 -3.3668261,0.091 -4.7950589,1.0033 -2.7145664,1.7276 -3.8862597,5.0564 -2.8564342,8.1001 l -1.9877256,0.674 c -1.342574,-3.9619 0.1857737,-8.2967 3.7138858,-10.5466 2.0678737,-1.3167 4.5790669,-1.7258 6.9571449,-1.1599 l 1.385996,-2.5946 2.059238,5.6173 -6.042663,1.8364 1.565703,-2.9299 z" />
  </g>
</svg>
