<?xml version="1.0" encoding="UTF-8" standalone="no"?>
<!-- Created with Inkscape (http://www.inkscape.org/) -->

<svg
   xmlns:dc="http://purl.org/dc/elements/1.1/"
   xmlns:cc="http://creativecommons.org/ns#"
   xmlns:rdf="http://www.w3.org/1999/02/22-rdf-syntax-ns#"
   xmlns:svg="http://www.w3.org/2000/svg"
   xmlns="http://www.w3.org/2000/svg"
   xmlns:sodipodi="http://sodipodi.sourceforge.net/DTD/sodipodi-0.dtd"
   xmlns:inkscape="http://www.inkscape.org/namespaces/inkscape"
   width="24"
   height="24"
   id="svg4727"
   version="1.1"
   inkscape:version="0.48.2 r9819"
   sodipodi:docname="ic_notify_check_mail_anim_3.svg">
  <defs
     id="defs4729">
    <clipPath
       clipPathUnits="userSpaceOnUse"
       id="clipPath1562">
      <path
         inkscape:connector-curvature="0"
         d="M 0,96 96,96 96,0 0,0 0,96 z"
         id="path1564" />
    </clipPath>
  </defs>
  <sodipodi:namedview
     id="base"
     pagecolor="#ffffff"
     bordercolor="#666666"
     borderopacity="1.0"
     inkscape:pageopacity="0"
     inkscape:pageshadow="2"
     inkscape:zoom="22.4"
     inkscape:cx="5.5993257"
     inkscape:cy="11.436379"
     inkscape:document-units="px"
     inkscape:current-layer="layer1"
     showgrid="false"
     inkscape:window-width="1920"
     inkscape:window-height="1138"
     inkscape:window-x="1592"
     inkscape:window-y="-8"
     inkscape:window-maximized="1" />
  <metadata
     id="metadata4732">
    <rdf:RDF>
      <cc:Work
         rdf:about="">
        <dc:format>image/svg+xml</dc:format>
        <dc:type
           rdf:resource="http://purl.org/dc/dcmitype/StillImage" />
        <dc:title></dc:title>
      </cc:Work>
    </rdf:RDF>
  </metadata>
  <g
     inkscape:label="Layer 1"
     inkscape:groupmode="layer"
     id="layer1"
     transform="translate(0,-1028.3622)">
    <path
       inkscape:connector-curvature="0"
       id="path1568"
       style="fill:#ffffff;fill-opacity:1;fill-rule:evenodd;stroke:none"
       d="m 7.8133687,1048.3965 c -0.8214412,-0.4292 -1.5699729,-0.9803 -2.2154223,-1.6253 -1.0516534,-1.0518 -1.8236812,-2.366 -2.2595774,-3.8157 l -2.94427316,0.098 3.83546326,-4.592 4.6108723,4.3106 -3.3200977,0.1129 c 0.607669,1.5622 1.761739,2.8673 3.2652609,3.6494 2.8549324,1.4846 6.3278804,0.835 8.4425434,-1.5766 l 1.578244,1.3841 c -2.754133,3.1423 -7.274442,3.9878 -10.9932267,2.0552 m 10.6658477,-10.5554 c -0.607285,-1.566 -1.762224,-2.8703 -3.266386,-3.6511 -2.853447,-1.487 -6.32213,-0.8373 -8.4431216,1.5763 l -1.5775447,-1.3844 c 2.7597725,-3.1436 7.2780063,-3.9874 10.9905263,-2.0569 2.174253,1.1324 3.784143,3.1026 4.48311,5.445 l 2.939992,-0.097 -3.835134,4.5921 -4.611682,-4.3149 3.320211,-0.109 z" />
  </g>
</svg>
