<?xml version="1.0" encoding="UTF-8" standalone="no"?>
<!-- Created with Inkscape (http://www.inkscape.org/) -->

<svg
   xmlns:dc="http://purl.org/dc/elements/1.1/"
   xmlns:cc="http://creativecommons.org/ns#"
   xmlns:rdf="http://www.w3.org/1999/02/22-rdf-syntax-ns#"
   xmlns:svg="http://www.w3.org/2000/svg"
   xmlns="http://www.w3.org/2000/svg"
   xmlns:sodipodi="http://sodipodi.sourceforge.net/DTD/sodipodi-0.dtd"
   xmlns:inkscape="http://www.inkscape.org/namespaces/inkscape"
   width="24"
   height="24"
   id="svg4727"
   version="1.1"
   inkscape:version="0.48.2 r9819"
   sodipodi:docname="ic_notify_check_mail_anim_5.svg">
  <defs
     id="defs4729">
    <clipPath
       clipPathUnits="userSpaceOnUse"
       id="clipPath1562">
      <path
         inkscape:connector-curvature="0"
         d="M 0,96 96,96 96,0 0,0 0,96 z"
         id="path1564" />
    </clipPath>
  </defs>
  <sodipodi:namedview
     id="base"
     pagecolor="#ffffff"
     bordercolor="#666666"
     borderopacity="1.0"
     inkscape:pageopacity="0"
     inkscape:pageshadow="2"
     inkscape:zoom="22.4"
     inkscape:cx="5.5993257"
     inkscape:cy="11.436379"
     inkscape:document-units="px"
     inkscape:current-layer="layer1"
     showgrid="false"
     inkscape:window-width="1920"
     inkscape:window-height="1138"
     inkscape:window-x="1592"
     inkscape:window-y="-8"
     inkscape:window-maximized="1" />
  <metadata
     id="metadata4732">
    <rdf:RDF>
      <cc:Work
         rdf:about="">
        <dc:format>image/svg+xml</dc:format>
        <dc:type
           rdf:resource="http://purl.org/dc/dcmitype/StillImage" />
        <dc:title></dc:title>
      </cc:Work>
    </rdf:RDF>
  </metadata>
  <g
     inkscape:label="Layer 1"
     inkscape:groupmode="layer"
     id="layer1"
     transform="translate(0,-1028.3622)">
    <path
       inkscape:connector-curvature="0"
       id="path1568"
       style="fill:#ffffff;fill-opacity:1;fill-rule:evenodd;stroke:none"
       d="m 2.9485344,1040.754 c -0.039032,-0.9259 0.063953,-1.8497 0.2998088,-2.7312 0.3850528,-1.4366 1.1371972,-2.7624 2.1747139,-3.8647 l -1.5569901,-2.5008 5.8944918,1.0256 -1.4276403,6.1484 -1.7578104,-2.8188 c -1.0491008,1.3074 -1.6022728,2.9593 -1.527841,4.6525 0.1417487,3.2148 2.4407944,5.8976 5.5866449,6.5231 l -0.409549,2.0589 c -4.0983555,-0.814 -7.0907499,-4.306 -7.2764481,-8.4928 m 14.4741581,3.9592 c 1.052534,-1.3089 1.604609,-2.9613 1.528733,-4.6543 -0.138945,-3.2147 -2.435936,-5.8938 -5.586649,-6.5239 l 0.410154,-2.0584 c 4.102298,0.8183 7.09215,4.3093 7.276559,8.4897 0.106446,2.4492 -0.794858,4.8285 -2.473922,6.6049 l 1.553996,2.4977 -5.894437,-1.0253 1.430944,-6.1513 1.754507,2.8209 z" />
  </g>
</svg>
