<?xml version="1.0" encoding="UTF-8" standalone="no"?>
<!-- Generator: Adobe Illustrator 16.0.0, SVG Export Plug-In . SVG Version: 6.00 Build 0)  -->

<svg
   xmlns:dc="http://purl.org/dc/elements/1.1/"
   xmlns:cc="http://creativecommons.org/ns#"
   xmlns:rdf="http://www.w3.org/1999/02/22-rdf-syntax-ns#"
   xmlns:svg="http://www.w3.org/2000/svg"
   xmlns="http://www.w3.org/2000/svg"
   xmlns:sodipodi="http://sodipodi.sourceforge.net/DTD/sodipodi-0.dtd"
   xmlns:inkscape="http://www.inkscape.org/namespaces/inkscape"
   version="1.1"
   id="Capa_1"
   x="0px"
   y="0px"
   width="457.47px"
   height="457.469px"
   viewBox="0 0 457.47 457.469"
   style="enable-background:new 0 0 457.47 457.469;"
   xml:space="preserve"
   inkscape:version="0.48.5 r10040"
   sodipodi:docname="circled_plus.svg"><metadata
     id="metadata41"><rdf:RDF><cc:Work
         rdf:about=""><dc:format>image/svg+xml</dc:format><dc:type
           rdf:resource="http://purl.org/dc/dcmitype/StillImage" /><dc:title></dc:title></cc:Work></rdf:RDF></metadata><defs
     id="defs39" /><sodipodi:namedview
     pagecolor="#ffffff"
     bordercolor="#666666"
     borderopacity="1"
     objecttolerance="10"
     gridtolerance="10"
     guidetolerance="10"
     inkscape:pageopacity="0"
     inkscape:pageshadow="2"
     inkscape:window-width="1920"
     inkscape:window-height="1056"
     id="namedview37"
     showgrid="false"
     inkscape:zoom="2.0635278"
     inkscape:cx="212.63748"
     inkscape:cy="200.65921"
     inkscape:window-x="0"
     inkscape:window-y="24"
     inkscape:window-maximized="0"
     inkscape:current-layer="Capa_1" /><g
     id="g3"
     transform="matrix(0.57627118,0,0,0.57627118,96.921399,96.921399)"><path
       d="M 228.734,0 C 102.41,0 0,102.41 0,228.735 0,355.06 102.41,457.469 228.734,457.469 355.059,457.469 457.469,355.06 457.469,228.735 457.47,102.41 355.06,0 228.734,0 z m 130.534,265.476 -255.005,0 c -16.674,0 -30.192,-13.512 -30.192,-30.187 0,-16.674 13.518,-30.188 30.192,-30.188 l 255.005,0.005 c 16.669,0 30.192,13.515 30.192,30.188 0,16.676 -13.523,30.182 -30.192,30.182 z"
       id="path5"
       inkscape:connector-curvature="0"
       sodipodi:nodetypes="sssssccsccsc" /></g><g
     id="g7" /><g
     id="g9" /><g
     id="g11" /><g
     id="g13" /><g
     id="g15" /><g
     id="g17" /><g
     id="g19" /><g
     id="g21" /><g
     id="g23" /><g
     id="g25" /><g
     id="g27" /><g
     id="g29" /><g
     id="g31" /><g
     id="g33" /><g
     id="g35" /></svg>