<?xml version="1.0" encoding="UTF-8" standalone="no"?>
<svg width="101px" height="100px" viewBox="0 0 101 100" version="1.1" xmlns="http://www.w3.org/2000/svg" xmlns:xlink="http://www.w3.org/1999/xlink" xmlns:sketch="http://www.bohemiancoding.com/sketch/ns">
    <!-- Generator: Sketch 3.0.4 (8053) - http://www.bohemiancoding.com/sketch -->
    <title>signature-unknown-cutout</title>
    <desc>Created with Sketch.</desc>
    <defs></defs>
    <g id="Page-1" stroke="none" stroke-width="1" fill="none" fill-rule="evenodd" sketch:type="MSPage">
        <g id="signature-unknown-cutout" sketch:type="MSArtboardGroup" transform="translate(0.915625, 0.000000)" fill="#000000">
            <path d="M11.4743662,97.2253545 C1.98936285,97.2253571 -1.69987039,86.6466353 1.98936288,81.2764443 C2.36018089,80.2888073 37.5445854,9.4248374 37.6406733,9.21698534 C41.524789,0.483122973 56.8650161,0.0416071437 60.7924391,9.21698534 C60.7572519,9.19524917 98.2991929,81.8687547 97.9337883,81.2642177 C101.323931,86.2404407 96.9260512,97.2253571 88.8978453,97.2253545 C88.8978453,97.2253545 11.4756386,97.2879401 11.4743662,97.2253545 Z M50.5378687,73.3388569 C47.2443918,73.3388569 44.2703808,76.046195 44.2703808,79.5061732 C44.2703808,82.9729198 47.1388056,85.6802579 50.5378687,85.6802579 C53.9369317,85.6802579 56.8040029,82.9729198 56.8040029,79.5061732 C56.8053565,76.046195 53.8313455,73.3388569 50.5378687,73.3388569 Z M50.3063913,28.5 C46.5729719,28.5 42.719076,30.2990258 43.0805057,32.9143334 L45.8826007,65.934287 L54.7315355,65.934287 L57.5322768,32.9143334 C57.8937065,30.2990258 54.0398106,28.5 50.3063913,28.5 Z" sketch:type="MSShapeGroup"></path>
        </g>
    </g>
</svg>