<?xml version="1.0" encoding="UTF-8" standalone="no"?>
<svg
   xmlns:sketch="http://www.bohemiancoding.com/sketch/ns"
   xmlns:dc="http://purl.org/dc/elements/1.1/"
   xmlns:cc="http://creativecommons.org/ns#"
   xmlns:rdf="http://www.w3.org/1999/02/22-rdf-syntax-ns#"
   xmlns:svg="http://www.w3.org/2000/svg"
   xmlns="http://www.w3.org/2000/svg"
   xmlns:sodipodi="http://sodipodi.sourceforge.net/DTD/sodipodi-0.dtd"
   xmlns:inkscape="http://www.inkscape.org/namespaces/inkscape"
   width="100px"
   height="100px"
   viewBox="0 0 100 100"
   version="1.1"
   id="svg2"
   inkscape:version="0.91 r13725"
   sodipodi:docname="status_lock_opportunistic.svg">
  <metadata
     id="metadata16">
    <rdf:RDF>
      <cc:Work
         rdf:about="">
        <dc:format>image/svg+xml</dc:format>
        <dc:type
           rdf:resource="http://purl.org/dc/dcmitype/StillImage" />
      </cc:Work>
    </rdf:RDF>
  </metadata>
  <sodipodi:namedview
     pagecolor="#ffffff"
     bordercolor="#666666"
     borderopacity="1"
     objecttolerance="10"
     gridtolerance="10"
     guidetolerance="10"
     inkscape:pageopacity="0"
     inkscape:pageshadow="2"
     inkscape:window-width="1280"
     inkscape:window-height="784"
     id="namedview14"
     showgrid="false"
     inkscape:zoom="2.36"
     inkscape:cx="-3.1779661"
     inkscape:cy="50"
     inkscape:window-x="0"
     inkscape:window-y="16"
     inkscape:window-maximized="0"
     inkscape:current-layer="lock-closed" />
  <!-- Generator: Sketch 3.0.4 (8053) - http://www.bohemiancoding.com/sketch -->
  <title
     id="title4">lock-closed</title>
  <desc
     id="desc6">Created with Sketch.</desc>
  <defs
     id="defs8" />
  <g
     id="Page-1"
     stroke="none"
     stroke-width="1"
     fill="none"
     fill-rule="evenodd"
     sketch:type="MSPage">
    <g
       id="lock-closed"
       sketch:type="MSArtboardGroup"
       fill="#000000">
      <path
         d="M 50.476562 -0.1640625 C 34.570563 -0.1640625 20.303781 10.781516 20.800781 29.478516 L 20.785156 45.111328 C 20.785156 45.111328 21.024219 45.132812 19.824219 45.132812 C 18.554219 45.132812 10.185547 46.605359 10.185547 54.068359 L 10.185547 89.892578 C 10.185547 97.851578 19.604219 99.835937 19.824219 99.835938 L 81.027344 99.835938 C 81.247344 99.835938 90.181641 98.842578 90.181641 89.892578 L 90.181641 54.564453 C 90.182641 46.109453 81.726953 45.132813 81.501953 45.132812 L 79.576172 45.132812 L 79.576172 29.478516 C 79.478172 10.284516 66.387563 -0.1640625 50.476562 -0.1640625 z M 50.183594 11.783203 C 59.924594 11.783203 66.087891 18.740547 66.087891 29.685547 L 66.097656 45.132812 L 34.261719 45.132812 L 34.277344 29.685547 C 34.277344 19.736547 40.348594 11.783203 50.183594 11.783203 z M 50.021484 51.683594 C 52.577103 51.683594 54.709884 52.042306 56.419922 52.757812 C 58.12933 53.47396 59.506388 54.36445 60.550781 55.429688 C 61.595176 56.494284 62.342495 57.641579 62.792969 58.871094 C 63.242813 60.101251 63.466797 61.247905 63.466797 62.3125 C 63.468097 64.073993 63.242813 65.523689 62.792969 66.660156 C 62.341866 67.797907 61.784784 68.770854 61.119141 69.578125 C 60.45161 70.386037 59.714646 71.075976 58.904297 71.644531 C 58.094577 72.214368 57.329126 72.780412 56.609375 73.349609 C 55.888995 73.920089 55.251418 74.570572 54.693359 75.304688 C 54.134042 76.039445 53.782749 76.957421 53.638672 78.058594 L 53.638672 80.150391 L 46.349609 80.150391 L 46.349609 77.671875 C 46.457823 76.095195 46.753899 74.772937 47.240234 73.708984 C 47.725311 72.64503 48.294008 71.735147 48.941406 70.982422 C 49.590063 70.230338 50.272436 69.579883 50.992188 69.029297 C 51.712567 68.479994 52.378068 67.926898 52.990234 67.376953 C 53.6024 66.826367 54.098442 66.221507 54.476562 65.560547 C 54.854684 64.899586 55.024143 64.074783 54.988281 63.083984 C 54.988281 61.395646 54.583157 60.146444 53.773438 59.337891 C 52.96246 58.531904 51.837309 58.126953 50.398438 58.126953 C 49.426395 58.126953 48.589483 58.320052 47.886719 58.705078 C 47.185214 59.090745 46.61 59.605696 46.160156 60.248047 C 45.709053 60.890398 45.376584 61.64209 45.160156 62.503906 C 44.943726 63.367647 44.835937 64.294357 44.835938 65.285156 L 36.898438 65.285156 C 36.933067 63.302275 37.268023 61.485102 37.898438 59.833984 C 38.527591 58.182224 39.408606 56.75128 40.542969 55.541016 C 41.677332 54.328827 43.046613 53.383978 44.648438 52.703125 C 46.250889 52.023555 48.042169 51.683594 50.021484 51.683594 z M 45.755859 83.3125 L 53.978516 83.3125 L 53.978516 91.535156 L 45.755859 91.535156 L 45.755859 83.3125 z "
         id="path12" />
    </g>
  </g>
</svg>
