<?xml version="1.0" encoding="UTF-8" standalone="no"?>
<svg width="101px" height="100px" viewBox="0 0 101 100" version="1.1" xmlns="http://www.w3.org/2000/svg" xmlns:xlink="http://www.w3.org/1999/xlink" xmlns:sketch="http://www.bohemiancoding.com/sketch/ns">
    <!-- Generator: Sketch 3.0.4 (8053) - http://www.bohemiancoding.com/sketch -->
    <title>signature-unverified-cutout</title>
    <desc>Created with Sketch.</desc>
    <defs></defs>
    <g id="Page-1" stroke="none" stroke-width="1" fill="none" fill-rule="evenodd" sketch:type="MSPage">
        <g id="signature-unverified-cutout" sketch:type="MSArtboardGroup" transform="translate(0.915625, 0.000000)" fill="#000000">
            <path d="M49.8900274,96.5521596 C75.8474106,96.5521596 96.8900274,75.5095428 96.8900274,49.5521596 C96.8900274,23.5947764 75.8474106,2.5521596 49.8900274,2.5521596 C23.9326441,2.5521596 2.89002736,23.5947764 2.89002736,49.5521596 C2.89002736,75.5095428 23.9326441,96.5521596 49.8900274,96.5521596 Z M42.9188472,79.4349375 L42.9188472,67.0146143 L55.3391704,67.0146143 L55.3391704,79.4349375 L42.9188472,79.4349375 Z M68.652586,41.8646591 C67.9712562,43.583078 67.1302842,45.0524085 66.1249189,46.2716815 C65.1167028,47.4919237 64.0039592,48.5318919 62.7800362,49.3906167 C61.5570634,50.25128 60.4006082,51.1080664 59.3135213,51.9677605 C58.2254842,52.829393 57.2609796,53.8121774 56.4181072,54.9209598 C55.5733342,56.0307115 55.0449948,57.4147511 54.8273874,59.0779247 L54.8273874,62.237567 L43.8168316,62.237567 L43.8168316,58.4954263 C43.9802747,56.114064 44.4278428,54.1165111 45.1623867,52.5095519 C45.89503,50.9025928 46.7531065,49.5292145 47.7309145,48.3923248 C48.7106231,47.2564044 49.7425954,46.2716815 50.8296823,45.4400947 C51.9177195,44.6104463 52.9230848,43.7769211 53.8476788,42.9463035 C54.7722728,42.1147166 55.5201202,41.2007465 56.0912209,40.2024546 C56.6623216,39.2041628 56.9188893,37.9577517 56.8647251,36.4612832 C56.8647251,33.9112774 56.2537138,32.0261534 55.030741,30.804942 C53.8058678,29.5876075 52.1058691,28.9760325 49.9326456,28.9760325 C48.4645081,28.9760325 47.2006746,29.2677664 46.1392445,29.8492956 C45.0797149,30.4317941 44.2092851,31.2071664 43.5298558,32.177351 C42.848526,33.1475357 42.3477439,34.2844253 42.0208576,35.5860816 C41.6939713,36.8906456 41.5305282,38.2901926 41.5305282,39.7866612 L29.5431146,39.7866612 C29.5953784,36.7917856 30.0999615,34.0479368 31.0521128,31.5541455 C32.0023636,29.0593851 33.3346152,26.8970655 35.0479174,25.0691252 C36.7612195,23.2382773 38.8270647,21.8115922 41.2464032,20.7832547 C43.6666919,19.7568556 46.3730062,19.2441406 49.3624951,19.2441406 C53.2224138,19.2441406 56.4447142,19.785932 59.0274958,20.8666072 C61.6093272,21.9482516 63.6894262,23.2935226 65.2668425,24.9024202 C66.8442588,26.5103485 67.9712562,28.2423365 68.6516357,30.0993532 C69.3310651,31.9573391 69.6703046,33.6883579 69.6703046,35.2962862 C69.6722051,37.9567825 69.3320153,40.1481786 68.652586,41.8646591 Z" sketch:type="MSShapeGroup"></path>
        </g>
    </g>
</svg>