<?xml version="1.0" encoding="UTF-8" standalone="no"?>
<!-- Created with Inkscape (http://www.inkscape.org/) -->

<svg
   width="192"
   height="191.99998"
   viewBox="0 0 192 191.99998"
   version="1.1"
   id="svg9113"
   inkscape:version="1.1.2 (0a00cf5339, 2022-02-04)"
   sodipodi:docname="K-9_Mail-no-shadows-debug.svg"
   xmlns:inkscape="http://www.inkscape.org/namespaces/inkscape"
   xmlns:sodipodi="http://sodipodi.sourceforge.net/DTD/sodipodi-0.dtd"
   xmlns="http://www.w3.org/2000/svg"
   xmlns:svg="http://www.w3.org/2000/svg"
   xmlns:rdf="http://www.w3.org/1999/02/22-rdf-syntax-ns#"
   xmlns:cc="http://creativecommons.org/ns#"
   xmlns:dc="http://purl.org/dc/elements/1.1/">
  <defs
     id="defs9107" />
  <sodipodi:namedview
     id="base"
     pagecolor="#ffffff"
     bordercolor="#666666"
     borderopacity="1.0"
     inkscape:pageopacity="0.0"
     inkscape:pageshadow="2"
     inkscape:zoom="2.8"
     inkscape:cx="230.53571"
     inkscape:cy="71.964286"
     inkscape:document-units="px"
     inkscape:current-layer="layer1"
     showgrid="false"
     fit-margin-top="0"
     fit-margin-left="0"
     fit-margin-right="0"
     fit-margin-bottom="0"
     inkscape:window-width="3384"
     inkscape:window-height="1376"
     inkscape:window-x="0"
     inkscape:window-y="0"
     inkscape:window-maximized="1"
     units="px"
     inkscape:pagecheckerboard="0" />
  <metadata
     id="metadata9110">
    <rdf:RDF>
      <cc:Work
         rdf:about="">
        <dc:format>image/svg+xml</dc:format>
        <dc:type
           rdf:resource="http://purl.org/dc/dcmitype/StillImage" />
      </cc:Work>
    </rdf:RDF>
  </metadata>
  <g
     inkscape:label="Layer 1"
     inkscape:groupmode="layer"
     id="layer1"
     transform="translate(-266.85715,-437.94824)">
    <g
       id="g1007">
      <path
         inkscape:connector-curvature="0"
         style="fill:#607d8b;fill-opacity:1;fill-rule:evenodd;stroke:none;stroke-width:0.376px;stroke-linecap:butt;stroke-linejoin:miter;stroke-opacity:1"
         d="m 298.85714,553.94826 v 12 l 25.60742,38 c 2.06983,3.58859 5.93583,6 10.39258,6 h 56 c 4.45675,0 8.32275,-2.41141 10.39258,-6 h 0.0117 l 25.59572,-38 v -12 z"
         id="path12541" />
      <rect
         style="color:#000000;clip-rule:nonzero;display:inline;overflow:visible;visibility:visible;color-interpolation:sRGB;color-interpolation-filters:linearRGB;fill:#263238;fill-opacity:1;fill-rule:nonzero;stroke:none;stroke-width:6;stroke-linecap:round;stroke-linejoin:miter;stroke-miterlimit:4;stroke-dasharray:none;stroke-dashoffset:0;stroke-opacity:1;marker:none;color-rendering:auto;image-rendering:auto;shape-rendering:auto;text-rendering:auto;enable-background:accumulate"
         id="rect11626"
         width="8"
         height="28.000004"
         x="330.85715"
         y="453.94827" />
      <rect
         y="453.94827"
         x="386.85715"
         height="28.000004"
         width="8"
         id="rect12099"
         style="color:#000000;clip-rule:nonzero;display:inline;overflow:visible;visibility:visible;color-interpolation:sRGB;color-interpolation-filters:linearRGB;fill:#263238;fill-opacity:1;fill-rule:nonzero;stroke:none;stroke-width:6;stroke-linecap:round;stroke-linejoin:miter;stroke-miterlimit:4;stroke-dasharray:none;stroke-dashoffset:0;stroke-opacity:1;marker:none;color-rendering:auto;image-rendering:auto;shape-rendering:auto;text-rendering:auto;enable-background:accumulate" />
      <path
         inkscape:connector-curvature="0"
         style="color:#000000;clip-rule:nonzero;display:inline;overflow:visible;visibility:visible;color-interpolation:sRGB;color-interpolation-filters:linearRGB;fill:#4d6570;fill-opacity:1;fill-rule:nonzero;stroke:none;stroke-width:0.340162;stroke-linecap:round;stroke-linejoin:miter;stroke-miterlimit:4;stroke-dasharray:none;stroke-dashoffset:0;stroke-opacity:1;marker:none;color-rendering:auto;image-rendering:auto;shape-rendering:auto;text-rendering:auto;enable-background:accumulate"
         d="m 298.85714,564.94826 v 1 l 25.60743,38 c 2.06982,3.58859 5.93583,6 10.39257,6 h 56.00001 c 4.45675,0 8.32275,-2.41141 10.39258,-6 h 0.0117 l 25.59572,-38 v -1 l -25.5957,38 h -0.0117 c -2.06983,3.58859 -5.93583,6 -10.39258,6 h -56.00003 c -4.45674,0 -8.32275,-2.41141 -10.39257,-6 z"
         id="path3138" />
      <rect
         ry="6.000001"
         style="color:#000000;clip-rule:nonzero;display:inline;overflow:visible;visibility:visible;color-interpolation:sRGB;color-interpolation-filters:linearRGB;fill:#607d8b;fill-opacity:1;fill-rule:nonzero;stroke:none;stroke-width:0.340162;stroke-linecap:round;stroke-linejoin:miter;stroke-miterlimit:4;stroke-dasharray:none;stroke-dashoffset:0;stroke-opacity:1;marker:none;color-rendering:auto;image-rendering:auto;shape-rendering:auto;text-rendering:auto;enable-background:accumulate"
         id="rect11624"
         width="19.999992"
         height="36"
         x="445.94827"
         y="-346.85715"
         rx="6.000001"
         transform="rotate(90)" />
      <rect
         transform="rotate(90)"
         rx="6.000001"
         y="-414.85715"
         x="445.94827"
         height="36"
         width="19.999992"
         id="rect12097"
         style="color:#000000;clip-rule:nonzero;display:inline;overflow:visible;visibility:visible;color-interpolation:sRGB;color-interpolation-filters:linearRGB;fill:#607d8b;fill-opacity:1;fill-rule:nonzero;stroke:none;stroke-width:0.340162;stroke-linecap:round;stroke-linejoin:miter;stroke-miterlimit:4;stroke-dasharray:none;stroke-dashoffset:0;stroke-opacity:1;marker:none;color-rendering:auto;image-rendering:auto;shape-rendering:auto;text-rendering:auto;enable-background:accumulate"
         ry="6.000001" />
      <path
         inkscape:connector-curvature="0"
         style="color:#000000;clip-rule:nonzero;display:inline;overflow:visible;visibility:visible;color-interpolation:sRGB;color-interpolation-filters:linearRGB;fill:#4d6570;fill-opacity:1;fill-rule:nonzero;stroke:none;stroke-width:0.340162;stroke-linecap:round;stroke-linejoin:miter;stroke-miterlimit:4;stroke-dasharray:none;stroke-dashoffset:0;stroke-opacity:1;marker:none;color-rendering:auto;image-rendering:auto;shape-rendering:auto;text-rendering:auto;enable-background:accumulate"
         d="m 310.85714,458.94826 v 1 c 0,3.324 2.676,6 6,6 h 24 c 3.324,0 6,-2.676 6,-6 v -1 c 0,3.324 -2.676,6 -6,6 h -24 c -3.324,0 -6,-2.676 -6,-6 z"
         id="rect12496" />
      <path
         inkscape:connector-curvature="0"
         style="color:#000000;clip-rule:nonzero;display:inline;overflow:visible;visibility:visible;color-interpolation:sRGB;color-interpolation-filters:linearRGB;fill:#4d6570;fill-opacity:1;fill-rule:nonzero;stroke:none;stroke-width:0.340162;stroke-linecap:round;stroke-linejoin:miter;stroke-miterlimit:4;stroke-dasharray:none;stroke-dashoffset:0;stroke-opacity:1;marker:none;color-rendering:auto;image-rendering:auto;shape-rendering:auto;text-rendering:auto;enable-background:accumulate"
         d="m 378.85715,458.94826 v 1 c 0,3.324 2.676,6 6,6 h 24 c 3.324,0 6,-2.676 6,-6 v -1 c 0,3.324 -2.676,6 -6,6 h -24 c -3.324,0 -6,-2.676 -6,-6 z"
         id="path12514" />
      <path
         inkscape:connector-curvature="0"
         style="color:#000000;clip-rule:nonzero;display:inline;overflow:visible;visibility:visible;color-interpolation:sRGB;color-interpolation-filters:linearRGB;fill:#8097a2;fill-opacity:1;fill-rule:nonzero;stroke:none;stroke-width:0.340162;stroke-linecap:round;stroke-linejoin:miter;stroke-miterlimit:4;stroke-dasharray:none;stroke-dashoffset:0;stroke-opacity:1;marker:none;color-rendering:auto;image-rendering:auto;shape-rendering:auto;text-rendering:auto;enable-background:accumulate"
         d="m 316.85714,445.94826 c -3.324,0 -6,2.676 -6,6 v 1 c 0,-3.324 2.676,-6 6,-6 h 24 c 3.324,0 6,2.676 6,6 v -1 c 0,-3.324 -2.676,-6 -6,-6 z"
         id="path12516" />
      <path
         inkscape:connector-curvature="0"
         style="color:#000000;clip-rule:nonzero;display:inline;overflow:visible;visibility:visible;color-interpolation:sRGB;color-interpolation-filters:linearRGB;fill:#8097a2;fill-opacity:1;fill-rule:nonzero;stroke:none;stroke-width:0.340162;stroke-linecap:round;stroke-linejoin:miter;stroke-miterlimit:4;stroke-dasharray:none;stroke-dashoffset:0;stroke-opacity:1;marker:none;color-rendering:auto;image-rendering:auto;shape-rendering:auto;text-rendering:auto;enable-background:accumulate"
         d="m 384.85715,445.94826 c -3.324,0 -6,2.676 -6,6 v 1 c 0,-3.324 2.676,-6 6,-6 h 24 c 3.324,0 6,2.676 6,6 v -1 c 0,-3.324 -2.676,-6 -6,-6 z"
         id="path12518" />
      <rect
         transform="rotate(90)"
         rx="12.000002"
         y="-438.85715"
         x="473.94827"
         height="152"
         width="92"
         id="rect11599"
         style="color:#000000;clip-rule:nonzero;display:inline;overflow:visible;visibility:visible;color-interpolation:sRGB;color-interpolation-filters:linearRGB;fill:#5917ff;fill-opacity:1;fill-rule:nonzero;stroke:none;stroke-width:0.340162;stroke-linecap:round;stroke-linejoin:miter;stroke-miterlimit:4;stroke-dasharray:none;stroke-dashoffset:0;stroke-opacity:1;marker:none;color-rendering:auto;image-rendering:auto;shape-rendering:auto;text-rendering:auto;enable-background:accumulate" />
      <path
         style="fill:none;fill-rule:evenodd;stroke:#fbe9e7;stroke-width:6;stroke-linecap:round;stroke-linejoin:miter;stroke-miterlimit:4;stroke-dasharray:none;stroke-opacity:1"
         d="m 302.85714,489.94826 60,32 60,-32"
         id="path11029-3"
         inkscape:connector-curvature="0"
         sodipodi:nodetypes="ccc" />
      <path
         inkscape:connector-curvature="0"
         style="color:#000000;clip-rule:nonzero;display:inline;overflow:visible;visibility:visible;color-interpolation:sRGB;color-interpolation-filters:linearRGB;fill:#7a45ff;fill-opacity:1;fill-rule:nonzero;stroke:none;stroke-width:0.340162;stroke-linecap:round;stroke-linejoin:miter;stroke-miterlimit:4;stroke-dasharray:none;stroke-dashoffset:0;stroke-opacity:1;marker:none;color-rendering:auto;image-rendering:auto;shape-rendering:auto;text-rendering:auto;enable-background:accumulate"
         d="m 298.85714,473.94826 c -6.648,0 -12,5.352 -12,12 v 1 c 0,-6.648 5.352,-12 12,-12 h 128 c 6.648,0 12,5.352 12,12 v -1 c 0,-6.648 -5.352,-12 -12,-12 z"
         id="rect12531" />
      <path
         inkscape:connector-curvature="0"
         style="color:#000000;clip-rule:nonzero;display:inline;overflow:visible;visibility:visible;color-interpolation:sRGB;color-interpolation-filters:linearRGB;fill:#531ad8;fill-opacity:1;fill-rule:nonzero;stroke:none;stroke-width:0.340162;stroke-linecap:round;stroke-linejoin:miter;stroke-miterlimit:4;stroke-dasharray:none;stroke-dashoffset:0;stroke-opacity:1;marker:none;color-rendering:auto;image-rendering:auto;shape-rendering:auto;text-rendering:auto;enable-background:accumulate"
         d="m 286.85714,552.94826 v 1 c 0,6.648 5.352,12 12,12 h 128 c 6.648,0 12,-5.352 12,-12 v -1 c 0,6.648 -5.352,12 -12,12 h -128 c -6.648,0 -12,-5.352 -12,-12 z"
         id="path12537" />
      <rect
         ry="6"
         style="color:#000000;clip-rule:nonzero;display:inline;overflow:visible;visibility:visible;color-interpolation:sRGB;color-interpolation-filters:linearRGB;fill:#263238;fill-opacity:1;fill-rule:nonzero;stroke:none;stroke-width:0.340162;stroke-linecap:round;stroke-linejoin:miter;stroke-miterlimit:4;stroke-dasharray:none;stroke-dashoffset:0;stroke-opacity:1;marker:none;color-rendering:auto;image-rendering:auto;shape-rendering:auto;text-rendering:auto;enable-background:accumulate"
         id="rect11618"
         width="24.000019"
         height="23.999996"
         x="589.94824"
         y="-374.85715"
         rx="6"
         transform="rotate(90)" />
      <circle
         r="11.999994"
         cy="609.94824"
         cx="362.85715"
         id="path11616"
         style="color:#000000;clip-rule:nonzero;display:inline;overflow:visible;visibility:visible;color-interpolation:sRGB;color-interpolation-filters:linearRGB;fill:#263238;fill-opacity:1;fill-rule:nonzero;stroke:none;stroke-width:9;stroke-linecap:round;stroke-linejoin:miter;stroke-miterlimit:4;stroke-dasharray:none;stroke-dashoffset:0;stroke-opacity:1;marker:none;color-rendering:auto;image-rendering:auto;shape-rendering:auto;text-rendering:auto;enable-background:accumulate" />
      <path
         inkscape:connector-curvature="0"
         style="color:#000000;clip-rule:nonzero;display:inline;overflow:visible;visibility:visible;color-interpolation:sRGB;color-interpolation-filters:linearRGB;fill:#37474f;fill-opacity:1;fill-rule:nonzero;stroke:none;stroke-width:0.340162;stroke-linecap:round;stroke-linejoin:miter;stroke-miterlimit:4;stroke-dasharray:none;stroke-dashoffset:0;stroke-opacity:1;marker:none;color-rendering:auto;image-rendering:auto;shape-rendering:auto;text-rendering:auto;enable-background:accumulate"
         d="m 356.85714,589.94826 c -3.324,0 -6,2.676 -6,6 v 1 c 0,-3.324 2.676,-6 6,-6 h 12 c 3.324,0 6,2.676 6,6 v -1 c 0,-3.324 -2.676,-6 -6,-6 z"
         id="rect12574" />
      <path
         inkscape:connector-curvature="0"
         style="color:#000000;clip-rule:nonzero;display:inline;overflow:visible;visibility:visible;color-interpolation:sRGB;color-interpolation-filters:linearRGB;fill:#1a252a;fill-opacity:1;fill-rule:nonzero;stroke:none;stroke-width:9;stroke-linecap:round;stroke-linejoin:miter;stroke-miterlimit:4;stroke-dasharray:none;stroke-dashoffset:0;stroke-opacity:1;marker:none;color-rendering:auto;image-rendering:auto;shape-rendering:auto;text-rendering:auto;enable-background:accumulate"
         d="m 350.87862,609.37795 a 11.999994,11.999994 0 0 0 -0.0215,0.57031 11.999994,11.999994 0 0 0 12,12 11.999994,11.999994 0 0 0 12,-12 11.999994,11.999994 0 0 0 -0.0195,-0.41406 11.999994,11.999994 0 0 1 -11.9805,11.41406 11.999994,11.999994 0 0 1 -11.97852,-11.57031 z"
         id="circle12577" />
    </g>
  </g>
</svg>
