<?xml version="1.0" encoding="UTF-8" standalone="no"?>
<svg
   width="192"
   height="192"
   viewBox="0 0 192 192"
   fill="none"
   version="1.1"
   id="svg326"
   sodipodi:docname="K-9_Mail-debug 2.svg"
   inkscape:version="1.2.2 (b0a84865, 2022-12-01)"
   xmlns:inkscape="http://www.inkscape.org/namespaces/inkscape"
   xmlns:sodipodi="http://sodipodi.sourceforge.net/DTD/sodipodi-0.dtd"
   xmlns="http://www.w3.org/2000/svg"
   xmlns:svg="http://www.w3.org/2000/svg">
  <sodipodi:namedview
     id="namedview328"
     pagecolor="#ffffff"
     bordercolor="#000000"
     borderopacity="0.25"
     inkscape:showpageshadow="2"
     inkscape:pageopacity="0.0"
     inkscape:pagecheckerboard="0"
     inkscape:deskcolor="#d1d1d1"
     showgrid="false"
     inkscape:zoom="4.6003373"
     inkscape:cx="80.863636"
     inkscape:cy="76.516129"
     inkscape:window-width="2483"
     inkscape:window-height="1548"
     inkscape:window-x="0"
     inkscape:window-y="25"
     inkscape:window-maximized="0"
     inkscape:current-layer="svg326" />
  <g
     opacity="0.2"
     filter="url(#filter0_f_235_6064)"
     id="g192">
    <path
       d="M50 12C46.676 12 44 14.676 44 18V26C44 29.324 46.676 32 50 32H64V48H72V32H74C77.324 32 80 29.324 80 26V18C80 14.676 77.324 12 74 12H50ZM118 12C114.676 12 112 14.676 112 18V26C112 29.324 114.676 32 118 32H120V48H128V32H142C145.324 32 148 29.324 148 26V18C148 14.676 145.324 12 142 12H118ZM32 120V132L57.607 170C59.6768 173.589 63.5428 176 68 176H124C128.457 176 132.323 173.589 134.393 170H134.405L160.001 132V120H32Z"
       fill="black"
       id="path190" />
  </g>
  <g
     opacity="0.2"
     filter="url(#filter1_f_235_6064)"
     id="g196">
    <path
       d="M50 8C46.676 8 44 10.676 44 14V22C44 25.324 46.676 28 50 28H64V44H72V28H74C77.324 28 80 25.324 80 22V14C80 10.676 77.324 8 74 8H50ZM118 8C114.676 8 112 10.676 112 14V22C112 25.324 114.676 28 118 28H120V44H128V28H142C145.324 28 148 25.324 148 22V14C148 10.676 145.324 8 142 8H118ZM32 116V128L57.607 166C59.6768 169.589 63.5428 172 68 172H124C128.457 172 132.323 169.589 134.393 166H134.405L160.001 128V116H32Z"
       fill="black"
       id="path194" />
  </g>
  <g
     opacity="0.2"
     filter="url(#filter2_f_235_6064)"
     id="g200">
    <path
       d="M24 116L32 128L57.607 166C59.6768 169.589 63.5428 172 68 172H124C128.457 172 132.323 169.589 134.393 166H134.405L160.001 128L168.001 116H24Z"
       fill="black"
       id="path198" />
  </g>
  <path
     fill-rule="evenodd"
     clip-rule="evenodd"
     d="M32 116V128L57.607 166C59.6768 169.589 63.5428 172 68 172H124C128.457 172 132.323 169.589 134.393 166H134.405L160.005 128V116H32Z"
     fill="#607D8B"
     id="path202" />
  <path
     d="M72 16H64V44H72V16Z"
     fill="#263238"
     id="path204" />
  <path
     d="M128 16H120V44H128V16Z"
     fill="#263238"
     id="path206" />
  <path
     d="M32 127V128L57.607 166C59.6768 169.589 63.5428 172 68 172H124C128.457 172 132.323 169.589 134.393 166H134.405L160.001 128V127L134.405 165H134.393C132.323 168.589 128.457 171 124 171H68C63.5433 171 59.6772 168.589 57.607 165L32 127Z"
     fill="#4D6570"
     id="path208" />
  <path
     d="M80 22V14C80 10.6863 77.3137 8 74 8L50 8C46.6863 8 44 10.6863 44 14V22C44 25.3137 46.6863 28 50 28L74 28C77.3137 28 80 25.3137 80 22Z"
     fill="#607D8B"
     id="path210" />
  <path
     d="M148 22V14C148 10.6863 145.314 8 142 8L118 8C114.686 8 112 10.6863 112 14V22C112 25.3137 114.686 28 118 28L142 28C145.314 28 148 25.3137 148 22Z"
     fill="#607D8B"
     id="path212" />
  <path
     d="M44 21V22C44 25.324 46.676 28 50 28H74C77.324 28 80 25.324 80 22V21C80 24.324 77.324 27 74 27H50C46.676 27 44 24.324 44 21Z"
     fill="#4D6570"
     id="path214" />
  <path
     d="M112 21V22C112 25.324 114.676 28 118 28H142C145.324 28 148 25.324 148 22V21C148 24.324 145.324 27 142 27H118C114.676 27 112 24.324 112 21Z"
     fill="#4D6570"
     id="path216" />
  <path
     d="M50 8C46.676 8 44 10.676 44 14V15C44 11.676 46.676 9 50 9H74C77.324 9 80 11.676 80 15V14C80 10.676 77.324 8 74 8H50Z"
     fill="#8097A2"
     id="path218" />
  <path
     d="M118 8C114.676 8 112 10.676 112 14V15C112 11.676 114.676 9 118 9H142C145.324 9 148 11.676 148 15V14C148 10.676 145.324 8 142 8H118Z"
     fill="#8097A2"
     id="path220" />
  <path
     fill-rule="evenodd"
     clip-rule="evenodd"
     d="M32 116V128L57.607 166C59.6768 169.589 63.5428 172 68 172H124C128.457 172 132.323 169.589 134.393 166H134.405L160.001 128V116H32Z"
     fill="url(#paint0_linear_235_6064)"
     id="path222" />
  <g
     opacity="0.2"
     filter="url(#filter3_f_235_6064)"
     id="g226"
     style="fill:#37abc8">
    <path
       d="M171.994 119.996V51.996C171.994 45.3686 166.622 39.996 159.994 39.996L31.9941 39.996C25.3667 39.996 19.9941 45.3686 19.9941 51.996V119.996C19.9941 126.623 25.3667 131.996 31.9941 131.996H159.994C166.622 131.996 171.994 126.623 171.994 119.996Z"
       fill="black"
       id="path224"
       style="fill:#37abc8" />
  </g>
  <g
     opacity="0.2"
     filter="url(#filter4_f_235_6064)"
     id="g230"
     style="fill:#80e5ff">
    <path
       d="M171.994 115.996V47.996C171.994 41.3686 166.622 35.996 159.994 35.996L31.9941 35.996C25.3667 35.996 19.9941 41.3686 19.9941 47.996V115.996C19.9941 122.623 25.3667 127.996 31.9941 127.996L159.994 127.996C166.622 127.996 171.994 122.623 171.994 115.996Z"
       fill="black"
       id="path228"
       style="fill:#5fbcd3" />
  </g>
  <path
     d="M172 116V48C172 41.3726 166.627 36 160 36L32 36C25.3726 36 20 41.3726 20 48V116C20 122.627 25.3726 128 32 128H160C166.627 128 172 122.627 172 116Z"
     fill="#5917FF"
     id="path232"
     style="fill:#ff9955;fill-opacity:1" />
  <path
     d="M36 52L96 84L156 52"
     stroke="#FBE9E7"
     stroke-width="6"
     stroke-linecap="round"
     id="path234" />
  <path
     d="M32 36C25.352 36 20 41.352 20 48V49C20 42.352 25.352 37 32 37H160C166.648 37 172 42.352 172 49V48C172 41.352 166.648 36 160 36H32Z"
     fill="#3034EB"
     id="path236"
     style="fill:#ff9955" />
  <path
     d="M20 115V116C20 122.648 25.352 128 32 128H160C166.648 128 172 122.648 172 116V115C172 121.648 166.648 127 160 127H32C25.352 127 20 121.648 20 115Z"
     fill="#3034EB"
     id="path238"
     style="fill:#ff7f2a" />
  <g
     opacity="0.2"
     filter="url(#filter5_f_235_6064)"
     id="g242">
    <path
       d="M90.0005 156C86.6765 156 84.0005 158.676 84.0005 162V174C84.0005 174.273 84.026 174.54 84.061 174.803C84.0613 174.805 84.0607 174.807 84.061 174.809C84.021 175.204 84.0006 175.601 84 175.999C84 179.181 85.2643 182.234 87.5147 184.484C89.7652 186.734 92.8174 187.999 96 187.999C99.1826 187.999 102.235 186.734 104.485 184.484C106.736 182.234 108 179.181 108 175.999C107.996 175.614 107.974 175.229 107.934 174.846C107.974 174.566 108.004 174.286 108.004 173.996V161.996C108.004 158.672 105.328 155.996 102.004 155.996L90.0005 156Z"
       fill="black"
       id="path240" />
  </g>
  <g
     opacity="0.2"
     filter="url(#filter6_f_235_6064)"
     id="g246">
    <path
       d="M90.0005 152C86.6765 152 84.0005 154.676 84.0005 158V170C84.0005 170.273 84.026 170.54 84.061 170.803C84.0613 170.805 84.0607 170.807 84.061 170.809C84.021 171.204 84.0006 171.601 84 171.999C84 175.181 85.2643 178.234 87.5147 180.484C89.7652 182.734 92.8174 183.999 96 183.999C99.1826 183.999 102.235 182.734 104.485 180.484C106.736 178.234 108 175.181 108 171.999C107.996 171.614 107.974 171.229 107.934 170.846C107.974 170.566 108.004 170.286 108.004 169.996V157.996C108.004 154.672 105.328 151.996 102.004 151.996L90.0005 152Z"
       fill="black"
       id="path244" />
  </g>
  <path
     d="M108 170V158C108 154.686 105.314 152 102 152H90C86.6863 152 84 154.686 84 158V170C84 173.314 86.6863 176 90 176H102C105.314 176 108 173.314 108 170Z"
     fill="#263238"
     id="path248" />
  <path
     d="M96 184C102.627 184 108 178.627 108 172C108 165.373 102.627 160 96 160C89.3726 160 84 165.373 84 172C84 178.627 89.3726 184 96 184Z"
     fill="#263238"
     id="path250" />
  <path
     d="M90 152C86.676 152 84 154.676 84 158V159C84 155.676 86.676 153 90 153H102C105.324 153 108 155.676 108 159V158C108 154.676 105.324 152 102 152H90Z"
     fill="#37474F"
     id="path252" />
  <path
     d="M84.021 171.43C84.0095 171.62 84.0025 171.81 84 172C84 175.183 85.2643 178.235 87.5147 180.485C89.7652 182.736 92.8174 184 96 184C99.1826 184 102.235 182.736 104.485 180.485C106.736 178.235 108 175.183 108 172C107.996 171.863 107.989 171.726 107.98 171.59C107.829 174.666 106.5 177.566 104.271 179.689C102.041 181.813 99.0795 182.999 96 183C92.8942 182.996 89.9106 181.789 87.6766 179.631C85.4427 177.474 84.1323 174.534 84.021 171.43Z"
     fill="#1A252A"
     id="path254" />
  <path
     fill-rule="evenodd"
     clip-rule="evenodd"
     d="M50 8C46.676 8 44 10.676 44 14V22C44 25.324 46.676 28 50 28H64V36H32C25.352 36 20 41.352 20 48V116C20 122.648 25.352 128 32 128L57.607 166C59.6768 169.589 63.5428 172 68 172H84C84 175.183 85.2643 178.235 87.5147 180.485C89.7652 182.736 92.8174 184 96 184C99.1823 183.999 102.234 182.735 104.484 180.485C106.734 178.234 107.998 175.182 107.998 172H124C128.457 172 132.323 169.589 134.393 166H134.403L160.001 128C166.648 127.999 172.001 122.647 172.001 116V48C172.001 41.352 166.647 36 159.999 36H128.001V28H141.999C145.323 28 148.001 25.324 148.001 22V14C148.001 10.676 145.323 8 141.999 8H118.001C114.677 8 112.001 10.676 112.001 14V22C112.001 25.324 114.677 28 118.001 28H120.001V36H72.001V28H73.999C77.323 28 80.001 25.324 80.001 22V14C80.001 10.676 77.323 8 73.999 8H50Z"
     fill="url(#paint1_radial_235_6064)"
     id="path256" />
  <path
     fill-rule="evenodd"
     clip-rule="evenodd"
     d="m 50,8.72 c -3.324,0 -6,2.676 -6,6 v 8 c 0,3.324 2.676,6 6,6 h 14 v 8 H 32 c -3.340866,0 -6.354436,1.351613 -8.525953,3.540081 C 21.324456,42.426453 20,45.412866 20,48.72 v 68 c 0,6.648 5.352,12 12,12 l 25.607,38 c 2.0698,3.589 5.9358,6 10.393,6 h 16 c 0,3.183 1.2643,6.235 3.5147,8.485 2.2505,2.251 5.3027,3.515 8.4853,3.515 3.1823,-0.001 6.234,-1.265 8.484,-3.515 2.25,-2.251 3.514,-5.303 3.514,-8.485 H 124 c 4.457,0 8.323,-2.411 10.393,-6 h 0.01 l 25.598,-38 c 6.647,-0.001 12,-5.353 12,-12 v -68 c 0,-6.648 -5.354,-12 -12.002,-12 h -31.998 v -8 h 13.998 c 3.324,0 6.002,-2.676 6.002,-6 v -8 c 0,-3.324 -2.678,-6 -6.002,-6 h -23.998 c -3.324,0 -6,2.676 -6,6 v 8 c 0,3.324 2.676,6 6,6 h 2 v 8 H 72.0011 v -8 h 1.998 c 3.324,0 6.002,-2.676 6.002,-6 v -8 c 0,-3.324 -2.678,-6 -6.002,-6 z"
     fill="url(#paint2_linear_235_6064)"
     id="path258"
     sodipodi:nodetypes="ssssccssssccscccccscccsssccssssssssccccsssss" />
  <defs
     id="defs324">
    <filter
       id="filter0_f_235_6064"
       x="26.16"
       y="6.16"
       width="139.681"
       height="175.68"
       filterUnits="userSpaceOnUse"
       color-interpolation-filters="sRGB">
      <feFlood
         flood-opacity="0"
         result="BackgroundImageFix"
         id="feFlood260" />
      <feBlend
         mode="normal"
         in="SourceGraphic"
         in2="BackgroundImageFix"
         result="shape"
         id="feBlend262" />
      <feGaussianBlur
         stdDeviation="2.92"
         result="effect1_foregroundBlur_235_6064"
         id="feGaussianBlur264" />
    </filter>
    <filter
       id="filter1_f_235_6064"
       x="26.16"
       y="2.16"
       width="139.681"
       height="175.68"
       filterUnits="userSpaceOnUse"
       color-interpolation-filters="sRGB">
      <feFlood
         flood-opacity="0"
         result="BackgroundImageFix"
         id="feFlood267" />
      <feBlend
         mode="normal"
         in="SourceGraphic"
         in2="BackgroundImageFix"
         result="shape"
         id="feBlend269" />
      <feGaussianBlur
         stdDeviation="2.92"
         result="effect1_foregroundBlur_235_6064"
         id="feGaussianBlur271" />
    </filter>
    <filter
       id="filter2_f_235_6064"
       x="20"
       y="112"
       width="152.001"
       height="64"
       filterUnits="userSpaceOnUse"
       color-interpolation-filters="sRGB">
      <feFlood
         flood-opacity="0"
         result="BackgroundImageFix"
         id="feFlood274" />
      <feBlend
         mode="normal"
         in="SourceGraphic"
         in2="BackgroundImageFix"
         result="shape"
         id="feBlend276" />
      <feGaussianBlur
         stdDeviation="2"
         result="effect1_foregroundBlur_235_6064"
         id="feGaussianBlur278" />
    </filter>
    <filter
       id="filter3_f_235_6064"
       x="15.1141"
       y="35.116"
       width="161.76"
       height="101.76"
       filterUnits="userSpaceOnUse"
       color-interpolation-filters="sRGB">
      <feFlood
         flood-opacity="0"
         result="BackgroundImageFix"
         id="feFlood281" />
      <feBlend
         mode="normal"
         in="SourceGraphic"
         in2="BackgroundImageFix"
         result="shape"
         id="feBlend283" />
      <feGaussianBlur
         stdDeviation="2.44"
         result="effect1_foregroundBlur_235_6064"
         id="feGaussianBlur285" />
    </filter>
    <filter
       id="filter4_f_235_6064"
       x="15.1141"
       y="31.116"
       width="161.76"
       height="101.76"
       filterUnits="userSpaceOnUse"
       color-interpolation-filters="sRGB">
      <feFlood
         flood-opacity="0"
         result="BackgroundImageFix"
         id="feFlood288" />
      <feBlend
         mode="normal"
         in="SourceGraphic"
         in2="BackgroundImageFix"
         result="shape"
         id="feBlend290" />
      <feGaussianBlur
         stdDeviation="2.44"
         result="effect1_foregroundBlur_235_6064"
         id="feGaussianBlur292" />
    </filter>
    <filter
       id="filter5_f_235_6064"
       x="81.2"
       y="153.196"
       width="29.6039"
       height="37.6023"
       filterUnits="userSpaceOnUse"
       color-interpolation-filters="sRGB">
      <feFlood
         flood-opacity="0"
         result="BackgroundImageFix"
         id="feFlood295" />
      <feBlend
         mode="normal"
         in="SourceGraphic"
         in2="BackgroundImageFix"
         result="shape"
         id="feBlend297" />
      <feGaussianBlur
         stdDeviation="1.4"
         result="effect1_foregroundBlur_235_6064"
         id="feGaussianBlur299" />
    </filter>
    <filter
       id="filter6_f_235_6064"
       x="82.88"
       y="150.876"
       width="26.2439"
       height="34.2423"
       filterUnits="userSpaceOnUse"
       color-interpolation-filters="sRGB">
      <feFlood
         flood-opacity="0"
         result="BackgroundImageFix"
         id="feFlood302" />
      <feBlend
         mode="normal"
         in="SourceGraphic"
         in2="BackgroundImageFix"
         result="shape"
         id="feBlend304" />
      <feGaussianBlur
         stdDeviation="0.56"
         result="effect1_foregroundBlur_235_6064"
         id="feGaussianBlur306" />
    </filter>
    <linearGradient
       id="paint0_linear_235_6064"
       x1="80"
       y1="112"
       x2="80"
       y2="140"
       gradientUnits="userSpaceOnUse">
      <stop
         stop-color="#4D6570"
         id="stop309" />
      <stop
         offset="1"
         stop-color="#4D6570"
         stop-opacity="0.06"
         id="stop311" />
    </linearGradient>
    <radialGradient
       id="paint1_radial_235_6064"
       cx="0"
       cy="0"
       r="1"
       gradientUnits="userSpaceOnUse"
       gradientTransform="translate(-0.00142478 0.00143102) rotate(45) scale(271.527)">
      <stop
         stop-color="#FBFCFC"
         stop-opacity="0.1"
         id="stop314" />
      <stop
         offset="1"
         stop-color="#FBFCFC"
         stop-opacity="0"
         id="stop316" />
    </radialGradient>
    <linearGradient
       id="paint2_linear_235_6064"
       x1="192"
       y1="0.720003"
       x2="192"
       y2="192.72"
       gradientUnits="userSpaceOnUse">
      <stop
         stop-color="#FBFCFC"
         stop-opacity="0.1"
         id="stop319" />
      <stop
         offset="1"
         stop-color="#FBFCFC"
         stop-opacity="0"
         id="stop321" />
    </linearGradient>
  </defs>
</svg>
