<?xml version="1.0" encoding="UTF-8" standalone="no"?>
<!-- Created with Inkscape (http://www.inkscape.org/) -->

<svg
   xmlns:dc="http://purl.org/dc/elements/1.1/"
   xmlns:cc="http://creativecommons.org/ns#"
   xmlns:rdf="http://www.w3.org/1999/02/22-rdf-syntax-ns#"
   xmlns:svg="http://www.w3.org/2000/svg"
   xmlns="http://www.w3.org/2000/svg"
   xmlns:xlink="http://www.w3.org/1999/xlink"
   xmlns:sodipodi="http://sodipodi.sourceforge.net/DTD/sodipodi-0.dtd"
   xmlns:inkscape="http://www.inkscape.org/namespaces/inkscape"
   width="192"
   height="191.99998"
   viewBox="0 0 192 191.99998"
   version="1.1"
   id="svg9113"
   inkscape:version="0.92.0 r"
   sodipodi:docname="K-9_Mail.svg">
  <defs
     id="defs9107">
    <linearGradient
       inkscape:collect="always"
       xlink:href="#linearGradient5100"
       id="linearGradient5094"
       gradientUnits="userSpaceOnUse"
       gradientTransform="translate(266.85692,297.64826)"
       x1="192.00021"
       y1="140.29999"
       x2="192"
       y2="332.29999" />
    <linearGradient
       inkscape:collect="always"
       id="linearGradient5100">
      <stop
         style="stop-color:#fbfcfc;stop-opacity:0.1"
         offset="0"
         id="stop5096" />
      <stop
         style="stop-color:#fbfcfc;stop-opacity:0;"
         offset="1"
         id="stop5098" />
    </linearGradient>
    <radialGradient
       inkscape:collect="always"
       xlink:href="#linearGradient5100"
       id="radialGradient5715"
       cx="2.5446666e-06"
       cy="243.20909"
       fx="2.5446666e-06"
       fy="243.20909"
       r="76.000107"
       gradientTransform="matrix(2.526312,2.526312,-2.5263122,2.5263122,881.27923,-176.47384)"
       gradientUnits="userSpaceOnUse" />
    <filter
       inkscape:collect="always"
       style="color-interpolation-filters:sRGB"
       id="filter13488"
       x="-0.14"
       width="1.28"
       y="-0.105"
       height="1.21">
      <feGaussianBlur
         inkscape:collect="always"
         stdDeviation="1.4"
         id="feGaussianBlur13490" />
    </filter>
    <filter
       inkscape:collect="always"
       style="color-interpolation-filters:sRGB"
       id="filter13338"
       x="-0.056000002"
       width="1.112"
       y="-0.041999999"
       height="1.084">
      <feGaussianBlur
         inkscape:collect="always"
         stdDeviation="0.56"
         id="feGaussianBlur13340" />
    </filter>
    <filter
       inkscape:collect="always"
       style="color-interpolation-filters:sRGB"
       id="filter13052"
       x="-0.038526315"
       width="1.0770526"
       y="-0.063652173"
       height="1.1273043">
      <feGaussianBlur
         inkscape:collect="always"
         stdDeviation="2.44"
         id="feGaussianBlur13054" />
    </filter>
    <filter
       inkscape:collect="always"
       style="color-interpolation-filters:sRGB"
       id="filter13165"
       x="-0.038526315"
       width="1.0770526"
       y="-0.063652173"
       height="1.1273043">
      <feGaussianBlur
         inkscape:collect="always"
         stdDeviation="2.44"
         id="feGaussianBlur13167" />
    </filter>
    <linearGradient
       inkscape:collect="always"
       xlink:href="#linearGradient14074"
       id="linearGradient14078"
       gradientUnits="userSpaceOnUse"
       x1="80"
       y1="252.29999"
       x2="80"
       y2="280.29999"
       gradientTransform="translate(266.85714,297.64826)" />
    <linearGradient
       inkscape:collect="always"
       id="linearGradient14074">
      <stop
         style="stop-color:#4d6570;stop-opacity:1"
         offset="0"
         id="stop14070" />
      <stop
         style="stop-color:#4d6570;stop-opacity:0.06"
         offset="1"
         id="stop14072" />
    </linearGradient>
    <filter
       inkscape:collect="always"
       style="color-interpolation-filters:sRGB"
       id="filter12606"
       x="-0.033333331"
       width="1.0666667"
       y="-0.085714288"
       height="1.1714286">
      <feGaussianBlur
         inkscape:collect="always"
         stdDeviation="2"
         id="feGaussianBlur12608" />
    </filter>
    <filter
       inkscape:collect="always"
       style="color-interpolation-filters:sRGB"
       id="filter13315"
       x="-0.054750007"
       width="1.1095001"
       y="-0.042731702"
       height="1.0854634">
      <feGaussianBlur
         inkscape:collect="always"
         stdDeviation="2.9199997"
         id="feGaussianBlur13317" />
    </filter>
  </defs>
  <sodipodi:namedview
     id="base"
     pagecolor="#ffffff"
     bordercolor="#666666"
     borderopacity="1.0"
     inkscape:pageopacity="0.0"
     inkscape:pageshadow="2"
     inkscape:zoom="1.4"
     inkscape:cx="-128.0609"
     inkscape:cy="59.045009"
     inkscape:document-units="px"
     inkscape:current-layer="layer1"
     showgrid="false"
     fit-margin-top="0"
     fit-margin-left="0"
     fit-margin-right="0"
     fit-margin-bottom="0"
     inkscape:window-width="1920"
     inkscape:window-height="1053"
     inkscape:window-x="1366"
     inkscape:window-y="27"
     inkscape:window-maximized="1"
     units="px" />
  <metadata
     id="metadata9110">
    <rdf:RDF>
      <cc:Work
         rdf:about="">
        <dc:format>image/svg+xml</dc:format>
        <dc:type
           rdf:resource="http://purl.org/dc/dcmitype/StillImage" />
        <dc:title />
      </cc:Work>
    </rdf:RDF>
  </metadata>
  <g
     inkscape:label="Layer 1"
     inkscape:groupmode="layer"
     id="layer1"
     transform="translate(-266.85715,-437.94824)">
    <path
       inkscape:connector-curvature="0"
       id="path13319"
       d="m 316.85714,449.94826 c -3.324,0 -6,2.67599 -6,6 v 8 c 0,3.324 2.676,6 6,6 h 14 v 16 h 8 v -16 h 2 c 3.324,0 6,-2.676 6,-6 v -8 c 0,-3.32401 -2.676,-6 -6,-6 z m 68.00001,0 c -3.324,0 -6,2.67599 -6,6 v 8 c 0,3.324 2.676,6 6,6 h 2 v 16 h 8 v -16 h 14 c 3.324,0 6,-2.676 6,-6 v -8 c 0,-3.32401 -2.676,-6 -6,-6 z m -86.00001,108 v 12 l 25.60742,38 c 2.06983,3.58859 5.93583,6 10.39258,6 h 56.00002 c 4.45674,0 8.32274,-2.41141 10.39257,-6 h 0.0117 l 25.59569,-38 v -12 z"
       style="color:#000000;clip-rule:nonzero;display:inline;overflow:visible;visibility:visible;opacity:0.2;color-interpolation:sRGB;color-interpolation-filters:linearRGB;fill:#000000;fill-opacity:1;fill-rule:nonzero;stroke:none;stroke-width:0.34016225;stroke-linecap:round;stroke-linejoin:miter;stroke-miterlimit:4;stroke-dasharray:none;stroke-dashoffset:0;stroke-opacity:1;marker:none;filter:url(#filter13315);color-rendering:auto;image-rendering:auto;shape-rendering:auto;text-rendering:auto;enable-background:accumulate" />
    <path
       style="color:#000000;clip-rule:nonzero;display:inline;overflow:visible;visibility:visible;opacity:0.2;color-interpolation:sRGB;color-interpolation-filters:linearRGB;fill:#000000;fill-opacity:1;fill-rule:nonzero;stroke:none;stroke-width:0.34016225;stroke-linecap:round;stroke-linejoin:miter;stroke-miterlimit:4;stroke-dasharray:none;stroke-dashoffset:0;stroke-opacity:1;marker:none;filter:url(#filter13315);color-rendering:auto;image-rendering:auto;shape-rendering:auto;text-rendering:auto;enable-background:accumulate"
       d="m 316.85714,445.94826 c -3.324,0 -6,2.67599 -6,6 v 8 c 0,3.324 2.676,6 6,6 h 14 v 16 h 8 v -16 h 2 c 3.324,0 6,-2.676 6,-6 v -8 c 0,-3.32401 -2.676,-6 -6,-6 z m 68.00001,0 c -3.324,0 -6,2.67599 -6,6 v 8 c 0,3.324 2.676,6 6,6 h 2 v 16 h 8 v -16 h 14 c 3.324,0 6,-2.676 6,-6 v -8 c 0,-3.32401 -2.676,-6 -6,-6 z m -86.00001,108 v 12 l 25.60742,38 c 2.06983,3.58859 5.93583,6 10.39258,6 h 56.00002 c 4.45674,0 8.32274,-2.41141 10.39257,-6 h 0.0117 l 25.59569,-38 v -12 z"
       id="path13272-9"
       inkscape:connector-curvature="0" />
    <path
       sodipodi:nodetypes="cccssccccc"
       inkscape:connector-curvature="0"
       id="path13149"
       d="m 290.85714,553.94826 8,12 25.60743,38 c 2.06982,3.58859 5.93583,6 10.39257,6 h 56.00001 c 4.45675,0 8.32275,-2.41141 10.39258,-6 h 0.0117 l 25.59572,-38 8,-12 z"
       style="color:#000000;clip-rule:nonzero;display:inline;overflow:visible;visibility:visible;opacity:0.2;color-interpolation:sRGB;color-interpolation-filters:linearRGB;fill:#000000;fill-opacity:1;fill-rule:nonzero;stroke:none;stroke-width:0.34016225;stroke-linecap:round;stroke-linejoin:miter;stroke-miterlimit:4;stroke-dasharray:none;stroke-dashoffset:0;stroke-opacity:1;marker:none;filter:url(#filter12606);color-rendering:auto;image-rendering:auto;shape-rendering:auto;text-rendering:auto;enable-background:accumulate" />
    <g
       transform="translate(266.85714,297.64826)"
       id="g13285">
      <path
         inkscape:connector-curvature="0"
         style="fill:#607d8b;fill-opacity:1;fill-rule:evenodd;stroke:none;stroke-width:0.37600005px;stroke-linecap:butt;stroke-linejoin:miter;stroke-opacity:1"
         d="m 32,116 v 12 l 25.607422,38 c 2.069825,3.58859 5.935831,6 10.392578,6 h 56 c 4.45675,0 8.32275,-2.41141 10.39258,-6 h 0.0117 L 160,128 v -12 z"
         transform="translate(0,140.3)"
         id="path12541" />
    </g>
    <rect
       style="color:#000000;clip-rule:nonzero;display:inline;overflow:visible;visibility:visible;opacity:1;color-interpolation:sRGB;color-interpolation-filters:linearRGB;fill:#263238;fill-opacity:1;fill-rule:nonzero;stroke:none;stroke-width:5.99999952;stroke-linecap:round;stroke-linejoin:miter;stroke-miterlimit:4;stroke-dasharray:none;stroke-dashoffset:0;stroke-opacity:1;marker:none;color-rendering:auto;image-rendering:auto;shape-rendering:auto;text-rendering:auto;enable-background:accumulate"
       id="rect11626"
       width="8"
       height="28.000004"
       x="330.85715"
       y="453.94827" />
    <rect
       y="453.94827"
       x="386.85715"
       height="28.000004"
       width="8"
       id="rect12099"
       style="color:#000000;clip-rule:nonzero;display:inline;overflow:visible;visibility:visible;opacity:1;color-interpolation:sRGB;color-interpolation-filters:linearRGB;fill:#263238;fill-opacity:1;fill-rule:nonzero;stroke:none;stroke-width:5.99999952;stroke-linecap:round;stroke-linejoin:miter;stroke-miterlimit:4;stroke-dasharray:none;stroke-dashoffset:0;stroke-opacity:1;marker:none;color-rendering:auto;image-rendering:auto;shape-rendering:auto;text-rendering:auto;enable-background:accumulate" />
    <path
       inkscape:connector-curvature="0"
       style="color:#000000;clip-rule:nonzero;display:inline;overflow:visible;visibility:visible;opacity:1;color-interpolation:sRGB;color-interpolation-filters:linearRGB;fill:#4d6570;fill-opacity:1;fill-rule:nonzero;stroke:none;stroke-width:0.34016225;stroke-linecap:round;stroke-linejoin:miter;stroke-miterlimit:4;stroke-dasharray:none;stroke-dashoffset:0;stroke-opacity:1;marker:none;color-rendering:auto;image-rendering:auto;shape-rendering:auto;text-rendering:auto;enable-background:accumulate"
       d="m 298.85714,564.94826 v 1 l 25.60743,38 c 2.06982,3.58859 5.93583,6 10.39257,6 h 56.00001 c 4.45675,0 8.32275,-2.41141 10.39258,-6 h 0.0117 l 25.59572,-38 v -1 l -25.5957,38 h -0.0117 c -2.06983,3.58859 -5.93583,6 -10.39258,6 h -56.00003 c -4.45674,0 -8.32275,-2.41141 -10.39257,-6 z"
       id="path3138" />
    <rect
       ry="6.000001"
       style="color:#000000;clip-rule:nonzero;display:inline;overflow:visible;visibility:visible;opacity:1;color-interpolation:sRGB;color-interpolation-filters:linearRGB;fill:#607d8b;fill-opacity:1;fill-rule:nonzero;stroke:none;stroke-width:0.34016225;stroke-linecap:round;stroke-linejoin:miter;stroke-miterlimit:4;stroke-dasharray:none;stroke-dashoffset:0;stroke-opacity:1;marker:none;color-rendering:auto;image-rendering:auto;shape-rendering:auto;text-rendering:auto;enable-background:accumulate"
       id="rect11624"
       width="19.999992"
       height="36"
       x="445.94827"
       y="-346.85715"
       rx="6.000001"
       transform="rotate(90)" />
    <rect
       transform="rotate(90)"
       rx="6.000001"
       y="-414.85715"
       x="445.94827"
       height="36"
       width="19.999992"
       id="rect12097"
       style="color:#000000;clip-rule:nonzero;display:inline;overflow:visible;visibility:visible;opacity:1;color-interpolation:sRGB;color-interpolation-filters:linearRGB;fill:#607d8b;fill-opacity:1;fill-rule:nonzero;stroke:none;stroke-width:0.34016225;stroke-linecap:round;stroke-linejoin:miter;stroke-miterlimit:4;stroke-dasharray:none;stroke-dashoffset:0;stroke-opacity:1;marker:none;color-rendering:auto;image-rendering:auto;shape-rendering:auto;text-rendering:auto;enable-background:accumulate"
       ry="6.000001" />
    <path
       inkscape:connector-curvature="0"
       style="color:#000000;clip-rule:nonzero;display:inline;overflow:visible;visibility:visible;opacity:1;color-interpolation:sRGB;color-interpolation-filters:linearRGB;fill:#4d6570;fill-opacity:1;fill-rule:nonzero;stroke:none;stroke-width:0.34016225;stroke-linecap:round;stroke-linejoin:miter;stroke-miterlimit:4;stroke-dasharray:none;stroke-dashoffset:0;stroke-opacity:1;marker:none;color-rendering:auto;image-rendering:auto;shape-rendering:auto;text-rendering:auto;enable-background:accumulate"
       d="m 310.85714,458.94826 v 1 c 0,3.324 2.676,6 6,6 h 24 c 3.324,0 6,-2.676 6,-6 v -1 c 0,3.324 -2.676,6 -6,6 h -24 c -3.324,0 -6,-2.676 -6,-6 z"
       id="rect12496" />
    <path
       inkscape:connector-curvature="0"
       style="color:#000000;clip-rule:nonzero;display:inline;overflow:visible;visibility:visible;opacity:1;color-interpolation:sRGB;color-interpolation-filters:linearRGB;fill:#4d6570;fill-opacity:1;fill-rule:nonzero;stroke:none;stroke-width:0.34016225;stroke-linecap:round;stroke-linejoin:miter;stroke-miterlimit:4;stroke-dasharray:none;stroke-dashoffset:0;stroke-opacity:1;marker:none;color-rendering:auto;image-rendering:auto;shape-rendering:auto;text-rendering:auto;enable-background:accumulate"
       d="m 378.85715,458.94826 v 1 c 0,3.324 2.676,6 6,6 h 24 c 3.324,0 6,-2.676 6,-6 v -1 c 0,3.324 -2.676,6 -6,6 h -24 c -3.324,0 -6,-2.676 -6,-6 z"
       id="path12514" />
    <path
       inkscape:connector-curvature="0"
       style="color:#000000;clip-rule:nonzero;display:inline;overflow:visible;visibility:visible;opacity:1;color-interpolation:sRGB;color-interpolation-filters:linearRGB;fill:#8097a2;fill-opacity:1;fill-rule:nonzero;stroke:none;stroke-width:0.34016225;stroke-linecap:round;stroke-linejoin:miter;stroke-miterlimit:4;stroke-dasharray:none;stroke-dashoffset:0;stroke-opacity:1;marker:none;color-rendering:auto;image-rendering:auto;shape-rendering:auto;text-rendering:auto;enable-background:accumulate"
       d="m 316.85714,445.94826 c -3.324,0 -6,2.676 -6,6 v 1 c 0,-3.324 2.676,-6 6,-6 h 24 c 3.324,0 6,2.676 6,6 v -1 c 0,-3.324 -2.676,-6 -6,-6 z"
       id="path12516" />
    <path
       inkscape:connector-curvature="0"
       style="color:#000000;clip-rule:nonzero;display:inline;overflow:visible;visibility:visible;opacity:1;color-interpolation:sRGB;color-interpolation-filters:linearRGB;fill:#8097a2;fill-opacity:1;fill-rule:nonzero;stroke:none;stroke-width:0.34016225;stroke-linecap:round;stroke-linejoin:miter;stroke-miterlimit:4;stroke-dasharray:none;stroke-dashoffset:0;stroke-opacity:1;marker:none;color-rendering:auto;image-rendering:auto;shape-rendering:auto;text-rendering:auto;enable-background:accumulate"
       d="m 384.85715,445.94826 c -3.324,0 -6,2.676 -6,6 v 1 c 0,-3.324 2.676,-6 6,-6 h 24 c 3.324,0 6,2.676 6,6 v -1 c 0,-3.324 -2.676,-6 -6,-6 z"
       id="path12518" />
    <path
       inkscape:connector-curvature="0"
       id="path14047"
       d="m 298.85715,553.94826 v 12 l 25.60742,38 c 2.06983,3.58859 5.93583,6 10.39258,6 h 56 c 4.45675,0 8.32275,-2.41141 10.39258,-6 h 0.0117 l 25.59572,-38 v -12 z"
       style="fill:url(#linearGradient14078);fill-opacity:1;fill-rule:evenodd;stroke:none;stroke-width:0.37600005px;stroke-linecap:butt;stroke-linejoin:miter;stroke-opacity:1" />
    <g
       transform="translate(266.85714,297.64826)"
       id="g13270">
      <rect
         ry="12.000002"
         style="color:#000000;clip-rule:nonzero;display:inline;overflow:visible;visibility:visible;opacity:0.2;color-interpolation:sRGB;color-interpolation-filters:linearRGB;fill:#000000;fill-opacity:1;fill-rule:nonzero;stroke:none;stroke-width:0.34016225;stroke-linecap:round;stroke-linejoin:miter;stroke-miterlimit:4;stroke-dasharray:none;stroke-dashoffset:0;stroke-opacity:1;marker:none;filter:url(#filter13052);color-rendering:auto;image-rendering:auto;shape-rendering:auto;text-rendering:auto;enable-background:accumulate"
         id="rect13038"
         width="92"
         height="152"
         x="180.3"
         y="-172"
         rx="12.000002"
         transform="rotate(90)" />
      <rect
         style="color:#000000;clip-rule:nonzero;display:inline;overflow:visible;visibility:visible;opacity:0.2;color-interpolation:sRGB;color-interpolation-filters:linearRGB;fill:#000000;fill-opacity:1;fill-rule:nonzero;stroke:none;stroke-width:0.34016225;stroke-linecap:round;stroke-linejoin:miter;stroke-miterlimit:4;stroke-dasharray:none;stroke-dashoffset:0;stroke-opacity:1;marker:none;filter:url(#filter13165);color-rendering:auto;image-rendering:auto;shape-rendering:auto;text-rendering:auto;enable-background:accumulate"
         id="rect13151"
         width="92"
         height="152"
         x="176.3"
         y="-172"
         rx="12.000002"
         transform="rotate(90)" />
      <rect
         transform="rotate(90)"
         rx="12.000002"
         y="-172"
         x="176.3"
         height="152"
         width="92"
         id="rect11599"
         style="color:#000000;clip-rule:nonzero;display:inline;overflow:visible;visibility:visible;opacity:1;color-interpolation:sRGB;color-interpolation-filters:linearRGB;fill:#ff1744;fill-opacity:1;fill-rule:nonzero;stroke:none;stroke-width:0.34016225;stroke-linecap:round;stroke-linejoin:miter;stroke-miterlimit:4;stroke-dasharray:none;stroke-dashoffset:0;stroke-opacity:1;marker:none;color-rendering:auto;image-rendering:auto;shape-rendering:auto;text-rendering:auto;enable-background:accumulate" />
      <path
         style="fill:none;fill-rule:evenodd;stroke:#fbe9e7;stroke-width:6;stroke-linecap:round;stroke-linejoin:miter;stroke-miterlimit:4;stroke-dasharray:none;stroke-opacity:1"
         d="m 36,192.3 60,32 60,-32"
         id="path11029-3"
         inkscape:connector-curvature="0"
         sodipodi:nodetypes="ccc" />
      <path
         inkscape:connector-curvature="0"
         style="color:#000000;clip-rule:nonzero;display:inline;overflow:visible;visibility:visible;opacity:1;color-interpolation:sRGB;color-interpolation-filters:linearRGB;fill:#ff4569;fill-opacity:1;fill-rule:nonzero;stroke:none;stroke-width:0.34016225;stroke-linecap:round;stroke-linejoin:miter;stroke-miterlimit:4;stroke-dasharray:none;stroke-dashoffset:0;stroke-opacity:1;marker:none;color-rendering:auto;image-rendering:auto;shape-rendering:auto;text-rendering:auto;enable-background:accumulate"
         d="m 32,36 c -6.648001,0 -12,5.352 -12,12 v 1 c 0,-6.648 5.351999,-12 12,-12 h 128 c 6.648,0 12,5.352 12,12 v -1 c 0,-6.648 -5.352,-12 -12,-12 z"
         transform="translate(0,140.3)"
         id="rect12531" />
      <path
         inkscape:connector-curvature="0"
         style="color:#000000;clip-rule:nonzero;display:inline;overflow:visible;visibility:visible;opacity:1;color-interpolation:sRGB;color-interpolation-filters:linearRGB;fill:#d81a3d;fill-opacity:1;fill-rule:nonzero;stroke:none;stroke-width:0.34016225;stroke-linecap:round;stroke-linejoin:miter;stroke-miterlimit:4;stroke-dasharray:none;stroke-dashoffset:0;stroke-opacity:1;marker:none;color-rendering:auto;image-rendering:auto;shape-rendering:auto;text-rendering:auto;enable-background:accumulate"
         d="m 20,115 v 1 c 0,6.648 5.351999,12 12,12 h 128 c 6.648,0 12,-5.352 12,-12 v -1 c 0,6.648 -5.352,12 -12,12 H 32 c -6.648001,0 -12,-5.352 -12,-12 z"
         transform="translate(0,140.3)"
         id="path12537" />
    </g>
    <g
       transform="translate(266.85714,297.64826)"
       id="g13464">
      <path
         style="color:#000000;clip-rule:nonzero;display:inline;overflow:visible;visibility:visible;opacity:0.2;color-interpolation:sRGB;color-interpolation-filters:linearRGB;fill:#000000;fill-opacity:1;fill-rule:nonzero;stroke:none;stroke-width:8.99999523;stroke-linecap:round;stroke-linejoin:miter;stroke-miterlimit:4;stroke-dasharray:none;stroke-dashoffset:0;stroke-opacity:1;marker:none;filter:url(#filter13488);color-rendering:auto;image-rendering:auto;shape-rendering:auto;text-rendering:auto;enable-background:accumulate"
         d="m 90,296.3 c -3.324,0 -6,2.676 -6,6 v 12 c 0,0.27298 0.02557,0.53962 0.06055,0.80273 2.55e-4,0.002 -2.57e-4,0.004 0,0.006 A 11.999994,11.999994 0 0 0 84,316.3 a 11.999994,11.999994 0 0 0 12,12 11.999994,11.999994 0 0 0 12,-12 11.999994,11.999994 0 0 0 -0.0664,-1.15234 C 107.9726,314.8702 108,314.58855 108,314.3 v -12 c 0,-3.324 -2.676,-6 -6,-6 z"
         id="path13466"
         inkscape:connector-curvature="0" />
      <path
         inkscape:connector-curvature="0"
         id="circle13321"
         transform="translate(0,140.3)"
         d="m 90,152 c -3.324,0 -6,2.676 -6,6 v 12 c 0,0.27298 0.02557,0.53962 0.06055,0.80273 2.55e-4,0.002 -2.57e-4,0.004 0,0.006 A 11.999994,11.999994 0 0 0 84,172 a 11.999994,11.999994 0 0 0 12,12 11.999994,11.999994 0 0 0 12,-12 11.999994,11.999994 0 0 0 -0.0664,-1.15234 C 107.9726,170.5702 108,170.28855 108,170 v -12 c 0,-3.324 -2.676,-6 -6,-6 z"
         style="color:#000000;clip-rule:nonzero;display:inline;overflow:visible;visibility:visible;opacity:0.2;color-interpolation:sRGB;color-interpolation-filters:linearRGB;fill:#000000;fill-opacity:1;fill-rule:nonzero;stroke:none;stroke-width:8.99999523;stroke-linecap:round;stroke-linejoin:miter;stroke-miterlimit:4;stroke-dasharray:none;stroke-dashoffset:0;stroke-opacity:1;marker:none;filter:url(#filter13338);color-rendering:auto;image-rendering:auto;shape-rendering:auto;text-rendering:auto;enable-background:accumulate" />
      <rect
         ry="6"
         style="color:#000000;clip-rule:nonzero;display:inline;overflow:visible;visibility:visible;opacity:1;color-interpolation:sRGB;color-interpolation-filters:linearRGB;fill:#263238;fill-opacity:1;fill-rule:nonzero;stroke:none;stroke-width:0.34016225;stroke-linecap:round;stroke-linejoin:miter;stroke-miterlimit:4;stroke-dasharray:none;stroke-dashoffset:0;stroke-opacity:1;marker:none;color-rendering:auto;image-rendering:auto;shape-rendering:auto;text-rendering:auto;enable-background:accumulate"
         id="rect11618"
         width="24.000019"
         height="23.999996"
         x="292.29999"
         y="-108"
         rx="6"
         transform="rotate(90)" />
      <circle
         r="11.999994"
         cy="312.29999"
         cx="96"
         id="path11616"
         style="color:#000000;clip-rule:nonzero;display:inline;overflow:visible;visibility:visible;opacity:1;color-interpolation:sRGB;color-interpolation-filters:linearRGB;fill:#263238;fill-opacity:1;fill-rule:nonzero;stroke:none;stroke-width:8.99999523;stroke-linecap:round;stroke-linejoin:miter;stroke-miterlimit:4;stroke-dasharray:none;stroke-dashoffset:0;stroke-opacity:1;marker:none;color-rendering:auto;image-rendering:auto;shape-rendering:auto;text-rendering:auto;enable-background:accumulate" />
      <path
         inkscape:connector-curvature="0"
         style="color:#000000;clip-rule:nonzero;display:inline;overflow:visible;visibility:visible;opacity:1;color-interpolation:sRGB;color-interpolation-filters:linearRGB;fill:#37474f;fill-opacity:1;fill-rule:nonzero;stroke:none;stroke-width:0.34016225;stroke-linecap:round;stroke-linejoin:miter;stroke-miterlimit:4;stroke-dasharray:none;stroke-dashoffset:0;stroke-opacity:1;marker:none;color-rendering:auto;image-rendering:auto;shape-rendering:auto;text-rendering:auto;enable-background:accumulate"
         d="m 90,152 c -3.324,0 -6,2.676 -6,6 v 1 c 0,-3.324 2.676,-6 6,-6 h 12 c 3.324,0 6,2.676 6,6 v -1 c 0,-3.324 -2.676,-6 -6,-6 z"
         transform="translate(0,140.3)"
         id="rect12574" />
      <path
         inkscape:connector-curvature="0"
         style="color:#000000;clip-rule:nonzero;display:inline;overflow:visible;visibility:visible;opacity:1;color-interpolation:sRGB;color-interpolation-filters:linearRGB;fill:#1a252a;fill-opacity:1;fill-rule:nonzero;stroke:none;stroke-width:8.99999523;stroke-linecap:round;stroke-linejoin:miter;stroke-miterlimit:4;stroke-dasharray:none;stroke-dashoffset:0;stroke-opacity:1;marker:none;color-rendering:auto;image-rendering:auto;shape-rendering:auto;text-rendering:auto;enable-background:accumulate"
         d="M 84.021484,171.42969 A 11.999994,11.999994 0 0 0 84,172 11.999994,11.999994 0 0 0 96,184 11.999994,11.999994 0 0 0 108,172 11.999994,11.999994 0 0 0 107.9805,171.58594 11.999994,11.999994 0 0 1 96,183 11.999994,11.999994 0 0 1 84.021484,171.42969 Z"
         transform="translate(0,140.3)"
         id="circle12577" />
    </g>
    <path
       style="fill:url(#radialGradient5715);fill-opacity:1;fill-rule:evenodd;stroke:none;stroke-width:0.37600005px;stroke-linecap:butt;stroke-linejoin:miter;stroke-opacity:1"
       d="m 316.85692,445.94826 c -3.324,0 -6,2.676 -6,6 v 8 c 0,3.324 2.676,6 6,6 h 14 v 8 h -32 c -6.648,0 -12,5.352 -12,12 v 68 c 0,6.648 5.352,12 12,12 l 25.60743,38 c 2.06983,3.58859 5.93582,6 10.39257,6 h 16 a 11.999994,11.999994 0 0 0 12,12 11.999994,11.999994 0 0 0 11.99806,-12 h 16.00194 c 4.45675,0 8.32275,-2.41141 10.39258,-6 h 0.01 l 25.59765,-38 c 6.64709,-10e-4 12,-5.35265 12,-12 v -68 c 0,-6.648 -5.35395,-12 -12.00195,-12 h -31.99805 v -8 h 13.99805 c 3.324,0 6.00195,-2.676 6.00195,-6 v -8 c 0,-3.324 -2.67795,-6 -6.00195,-6 h -23.99804 c -3.324,0 -6,2.676 -6,6 v 8 c 0,3.324 2.676,6 6,6 h 2 v 8 h -48.00001 v -8 h 1.99805 c 3.324,0 6.00195,-2.676 6.00195,-6 v -8 c 0,-3.324 -2.67795,-6 -6.00195,-6 z"
       id="path13540-7"
       inkscape:connector-curvature="0" />
    <path
       inkscape:connector-curvature="0"
       id="path5092"
       d="m 316.85692,445.94826 c -3.324,0 -6,2.676 -6,6 v 8 c 0,3.324 2.676,6 6,6 h 14 v 8 h -32 c -6.648,0 -12,5.352 -12,12 v 68 c 0,6.648 5.352,12 12,12 l 25.60743,38 c 2.06983,3.58859 5.93582,6 10.39257,6 h 16 a 11.999994,11.999994 0 0 0 12,12 11.999994,11.999994 0 0 0 11.99806,-12 h 16.00194 c 4.45675,0 8.32275,-2.41141 10.39258,-6 h 0.01 l 25.59765,-38 c 6.64709,-10e-4 12,-5.35265 12,-12 v -68 c 0,-6.648 -5.35395,-12 -12.00195,-12 h -31.99805 v -8 h 13.99805 c 3.324,0 6.00195,-2.676 6.00195,-6 v -8 c 0,-3.324 -2.67795,-6 -6.00195,-6 h -23.99804 c -3.324,0 -6,2.676 -6,6 v 8 c 0,3.324 2.676,6 6,6 h 2 v 8 h -48.00001 v -8 h 1.99805 c 3.324,0 6.00195,-2.676 6.00195,-6 v -8 c 0,-3.324 -2.67795,-6 -6.00195,-6 z"
       style="fill:url(#linearGradient5094);fill-opacity:1;fill-rule:evenodd;stroke:none;stroke-width:0.37600005px;stroke-linecap:butt;stroke-linejoin:miter;stroke-opacity:1" />
  </g>
</svg>
