<?xml version="1.0" encoding="UTF-8" standalone="no"?>
<!-- Created with Inkscape (http://www.inkscape.org/) -->
<svg
   xmlns:dc="http://purl.org/dc/elements/1.1/"
   xmlns:cc="http://creativecommons.org/ns#"
   xmlns:rdf="http://www.w3.org/1999/02/22-rdf-syntax-ns#"
   xmlns:svg="http://www.w3.org/2000/svg"
   xmlns="http://www.w3.org/2000/svg"
   xmlns:sodipodi="http://sodipodi.sourceforge.net/DTD/sodipodi-0.dtd"
   xmlns:inkscape="http://www.inkscape.org/namespaces/inkscape"
   width="744.09448819"
   height="1052.3622047"
   id="svg2"
   sodipodi:version="0.32"
   inkscape:version="0.46"
   sodipodi:docname="k9.svg"
   inkscape:output_extension="org.inkscape.output.svg.inkscape">
  <defs
     id="defs4">
    <inkscape:perspective
       sodipodi:type="inkscape:persp3d"
       inkscape:vp_x="0 : 526.18109 : 1"
       inkscape:vp_y="6.123234e-14 : 1000 : 0"
       inkscape:vp_z="744.09448 : 526.18109 : 1"
       inkscape:persp3d-origin="372.04724 : 350.78739 : 1"
       id="perspective10" />
  </defs>
  <sodipodi:namedview
     id="base"
     pagecolor="#ffffff"
     bordercolor="#666666"
     borderopacity="1.0"
     gridtolerance="10000"
     guidetolerance="10"
     objecttolerance="10"
     inkscape:pageopacity="0.0"
     inkscape:pageshadow="2"
     inkscape:zoom="0.70710678"
     inkscape:cx="406.12061"
     inkscape:cy="751.92295"
     inkscape:document-units="px"
     inkscape:current-layer="layer1"
     showgrid="false"
     inkscape:window-width="691"
     inkscape:window-height="722"
     inkscape:window-x="515"
     inkscape:window-y="179" />
  <metadata
     id="metadata7">
    <rdf:RDF>
      <cc:Work
         rdf:about="">
        <dc:format>image/svg+xml</dc:format>
        <dc:type
           rdf:resource="http://purl.org/dc/dcmitype/StillImage" />
      </cc:Work>
    </rdf:RDF>
  </metadata>
  <g
     inkscape:label="Layer 1"
     inkscape:groupmode="layer"
     id="layer1"
     style="display:inline">
    <path
       style="fill:none;fill-opacity:0.75;fill-rule:evenodd;stroke:#000000;stroke-width:1px;stroke-linecap:butt;stroke-linejoin:miter;stroke-opacity:1"
       d="M 118.18785,382.63105 L 445.47727,439.19959 L 551.54329,357.37723 L 246.47722,303.83915 L 118.18785,382.63105 z"
       id="path2385"
       sodipodi:nodetypes="ccccc" />
    <path
       style="fill:#cacaca;fill-opacity:1;fill-rule:evenodd;stroke:#000000;stroke-width:1px;stroke-linecap:butt;stroke-linejoin:miter;stroke-opacity:1"
       d="M 120.20815,382.63105 L 149.50258,301.81884 L 422.24376,350.30616 L 444.46712,439.19959 L 120.20815,382.63105 z"
       id="path2401" />
    <path
       style="fill:#cacaca;fill-opacity:1;fill-rule:evenodd;stroke:#000000;stroke-width:1px;stroke-linecap:butt;stroke-linejoin:miter;stroke-opacity:1"
       d="M 415.2977,252.46667 L 421.23361,350.30616 L 443.45697,439.19959 L 551.54329,357.37723 L 504.06612,304.8493 L 442.96712,242.08469 L 415.2977,252.46667 z"
       id="path2403"
       sodipodi:nodetypes="ccccccc" />
    <path
       style="fill:#cacaca;fill-opacity:1;fill-rule:evenodd;stroke:#000000;stroke-width:1px;stroke-linecap:butt;stroke-linejoin:miter;stroke-opacity:1"
       d="M 150.51273,300.80869 L 179.80715,274.54472 L 208.09142,224.0371 L 228.29448,211.91526 L 443.45697,242.21984 L 415.1727,252.32137 L 208.08127,225.01679 L 180.81731,274.54472 L 150.51273,300.80869 z"
       id="path2405"
       sodipodi:nodetypes="ccccccccc" />
    <path
       style="fill:none;fill-opacity:0.75;fill-rule:evenodd;stroke:#000000;stroke-width:1px;stroke-linecap:butt;stroke-linejoin:miter;stroke-opacity:1"
       d="M 139.6612,386.1615 L 162.40486,326.4375 L 175.64154,348.30616 L 150.51273,386.67166 L 139.6612,386.1615 z"
       id="path2407"
       sodipodi:nodetypes="ccccc" />
    <path
       style="fill:none;fill-opacity:0.75;fill-rule:evenodd;stroke:#000000;stroke-width:1px;stroke-linecap:butt;stroke-linejoin:miter;stroke-opacity:1"
       d="M 162.63456,326.0625 L 406.08132,365.45845 L 420.22346,434.14882 L 139.40105,386.67166 L 162.63456,326.0625 z"
       id="path2409" />
    <path
       style="fill:none;fill-opacity:0.75;fill-rule:evenodd;stroke:#000000;stroke-width:1px;stroke-linecap:butt;stroke-linejoin:miter;stroke-opacity:1"
       d="M 163.13456,326.19766 L 175.76654,348.28586 L 410.36178,386.67166 L 406.18602,365.70845 L 163.13456,326.19766 z"
       id="path2411"
       sodipodi:nodetypes="ccccc" />
    <path
       style="fill:#cacaca;fill-opacity:1;fill-rule:evenodd;stroke:#000000;stroke-width:1px;stroke-linecap:butt;stroke-linejoin:miter;stroke-opacity:1"
       d="M 143.44166,376.57013 L 417.6727,421.96449 L 418.15081,435.40898 L 139.40105,386.67166 L 143.44166,376.57013 z"
       id="path2413"
       sodipodi:nodetypes="ccccc" />
    <path
       style="fill:none;fill-opacity:0.75;fill-rule:evenodd;stroke:#000000;stroke-width:1px;stroke-linecap:butt;stroke-linejoin:miter;stroke-opacity:1"
       d="M 445.47727,363.43815 L 462.64987,423.03715 L 533.36054,369.49906 L 497.2097,328.73941 L 445.47727,363.43815 z"
       id="path2415"
       sodipodi:nodetypes="ccccc" />
    <path
       style="fill:none;fill-opacity:0.75;fill-rule:evenodd;stroke:#000000;stroke-width:1px;stroke-linecap:butt;stroke-linejoin:miter;stroke-opacity:1"
       d="M 446.48743,366.4686 L 496.37005,333.02888 L 496.99505,329.09296 L 445.40151,363.51391 L 446.48743,366.4686 z"
       id="path2417"
       sodipodi:nodetypes="ccccc" />
    <path
       style="fill:#cacaca;fill-opacity:1;fill-rule:evenodd;stroke:#000000;stroke-width:1px;stroke-linecap:butt;stroke-linejoin:miter;stroke-opacity:1"
       d="M 492.18414,335.81949 L 523.25902,377.58028 L 533.81378,370.24538 L 497.31073,328.95406 L 492.18414,335.81949 z"
       id="path2419"
       sodipodi:nodetypes="ccccc" />
    <path
       style="fill:#cacaca;fill-opacity:1;fill-rule:evenodd;stroke:#000000;stroke-width:1px;stroke-linecap:butt;stroke-linejoin:miter;stroke-opacity:1"
       d="M 463.66002,424.0473 L 458.60926,412.93562 L 526.28948,362.42799 L 533.36054,370.50921 L 463.66002,424.0473 z"
       id="path2421" />
    <path
       style="fill:#333333;fill-opacity:1;fill-rule:evenodd;stroke:#000000;stroke-width:1px;stroke-linecap:butt;stroke-linejoin:miter;stroke-opacity:1"
       d="M 439.0123,253.38203 C 439.0123,253.38203 451.77019,251.07921 450.52804,239.18938 C 450.3796,237.76855 506.08643,274.54472 506.08643,274.54472 C 506.08643,274.54472 493.9646,299.79854 477.80215,304.8493 C 460.02373,310.40505 438.00215,253.38203 439.0123,253.38203 z"
       id="path2435"
       sodipodi:nodetypes="cscsc" />
    <path
       style="fill:#cacaca;fill-opacity:1;fill-rule:evenodd;stroke:#000000;stroke-width:1px;stroke-linecap:butt;stroke-linejoin:miter;stroke-opacity:1"
       d="M 453.5585,172.51931 C 453.5585,172.51931 448.36992,253.75771 451.53819,255.35182 C 533.82875,296.75626 575.31753,315.97036 581.84787,313.94067 C 592.26612,310.70259 646.49763,267.47365 646.49763,267.47365 L 644.47733,244.24014 L 551.54329,210.90511 L 541.3155,161.50865 L 468.35723,140.24494 L 453.5585,172.51931 z"
       id="path2437"
       sodipodi:nodetypes="csscccccc" />
    <path
       style="fill:none;fill-opacity:0.75;fill-rule:evenodd;stroke:#000000;stroke-width:1px;stroke-linecap:butt;stroke-linejoin:miter;stroke-opacity:1"
       d="M 578.81741,313.94067 C 579.15413,313.94067 579.49084,313.94067 578.81741,313.94067 z"
       id="path2439" />
    <path
       style="fill:#cacaca;fill-opacity:1;fill-rule:evenodd;stroke:#000000;stroke-width:1px;stroke-linecap:butt;stroke-linejoin:miter;stroke-opacity:1"
       d="M 583.09787,313.44067 L 598.0103,311.92037 L 655.68196,264.51585 L 644.73748,267.47365 L 583.09787,313.44067 z"
       id="path2445"
       sodipodi:nodetypes="ccccc" />
    <path
       style="fill:#cacaca;fill-opacity:1;fill-rule:evenodd;stroke:#000000;stroke-width:1px;stroke-linecap:butt;stroke-linejoin:miter;stroke-opacity:1"
       d="M 655.589,264.4432 L 653.0687,241.21984 L 644.51952,244.29249 L 646.49763,266.4635 L 655.589,264.4432 z"
       id="path2447"
       sodipodi:nodetypes="ccccc" />
    <path
       style="fill:#cacaca;fill-opacity:1;fill-rule:evenodd;stroke:#000000;stroke-width:1px;stroke-linecap:butt;stroke-linejoin:miter;stroke-opacity:1"
       d="M 652.28745,240.61594 L 564.67527,200.80359 L 552.23079,211.01996 L 644.76952,244.53234 L 652.28745,240.61594 z"
       id="path2449"
       sodipodi:nodetypes="ccccc" />
    <path
       style="fill:#ff0000;fill-opacity:1;fill-rule:evenodd;stroke:#000000;stroke-width:1px;stroke-linecap:butt;stroke-linejoin:miter;stroke-opacity:1"
       d="M 551.54329,210.4758 L 565.02882,200.77833 L 553.86664,157.21551 L 540.86093,161.58442 L 551.54329,210.4758 z"
       id="path2451"
       sodipodi:nodetypes="ccccc" />
    <path
       style="fill:#cacaca;fill-opacity:1;fill-rule:evenodd;stroke:#000000;stroke-width:1px;stroke-linecap:butt;stroke-linejoin:miter;stroke-opacity:1"
       d="M 468.71078,140.19443 L 482.85292,135.14367 L 553.56359,157.36703 L 541.44176,161.40764 L 468.71078,140.19443 z"
       id="path2453" />
    <path
       style="fill:#cacaca;fill-opacity:1;fill-rule:evenodd;stroke:#000000;stroke-width:1px;stroke-linecap:butt;stroke-linejoin:miter;stroke-opacity:1"
       d="M 646,259.36218 L 646.125,263.86218 L 685.125,264.98718 L 685,260.36218 L 646,259.36218 z"
       id="path2455"
       sodipodi:nodetypes="ccccc" />
    <path
       style="fill:#cacaca;fill-opacity:1;fill-rule:evenodd;stroke:#000000;stroke-width:1px;stroke-linecap:butt;stroke-linejoin:miter;stroke-opacity:1"
       d="M 532.42971,150.86836 L 534.42971,115.86836 C 534.42971,115.86836 551.42971,114.86836 553.42971,130.86836 C 555.42971,146.86836 535.42971,138.86836 535.42971,138.86836 L 532.42971,150.86836 z"
       id="path2459" />
    <path
       style="fill:#cacaca;fill-opacity:1;fill-rule:evenodd;stroke:#000000;stroke-width:1px;stroke-linecap:butt;stroke-linejoin:miter;stroke-opacity:1"
       d="M 150,301.36218 L 181,274.36218 L 207,225.36218 L 415.25,252.48718 L 421,350.36218 L 150,301.36218 z"
       id="path3235"
       sodipodi:nodetypes="cccccc" />
    <path
       style="fill:#ffffff;fill-opacity:1;fill-rule:evenodd;stroke:#000000;stroke-width:5;stroke-linecap:butt;stroke-linejoin:miter;stroke-miterlimit:4;stroke-dasharray:none;stroke-opacity:1"
       d="M 270.30069,244.26666 L 253.98006,304.04662 L 269.10266,306.37631 L 275.68897,280.67145 L 293.35277,283.5953 L 287.51841,308.88317 L 301.09036,310.82719 L 309.61106,271.91554 C 309.61106,271.91554 294.02678,269.3617 291.34044,269.74737 C 291.34044,269.74737 296.14527,246.88316 296.14527,247.6545 L 288.09405,246.38785 L 282.95465,267.79014 L 276.66395,266.82351 L 281.06164,245.51764 L 270.30069,244.26666 z"
       id="path2425"
       sodipodi:nodetypes="ccccccccccccccc" />
    <path
       sodipodi:type="arc"
       style="fill:#ffffff;fill-opacity:1;stroke:#000000;stroke-width:3.24915368;stroke-miterlimit:4;stroke-dasharray:none;stroke-opacity:1"
       id="path3231"
       sodipodi:cx="324.4375"
       sodipodi:cy="282.23718"
       sodipodi:rx="5.1875"
       sodipodi:ry="5.125"
       d="M 329.625,282.23718 A 5.1875,5.125 0 1 1 319.25,282.23718 A 5.1875,5.125 0 1 1 329.625,282.23718 z"
       transform="matrix(1.5350509,0,0,1.5426831,-171.93627,-153.16263)" />
    <path
       style="fill:#ffffff;fill-opacity:1;fill-rule:evenodd;stroke:#000000;stroke-width:5;stroke-linecap:butt;stroke-linejoin:miter;stroke-miterlimit:4;stroke-dasharray:none;stroke-opacity:1"
       d="M 354.48112,256.13926 L 342.85914,296.9166 L 362.66481,300.80464 L 356.81487,319.2444 L 372.32122,322.32977 L 390.14574,260.08993 L 354.48112,256.13926 z"
       id="path2429"
       sodipodi:nodetypes="ccccccc" />
    <path
       style="fill:#cacaca;fill-opacity:1;fill-rule:evenodd;stroke:#000000;stroke-width:5;stroke-linecap:butt;stroke-linejoin:miter;stroke-miterlimit:4;stroke-dasharray:none;stroke-opacity:1"
       d="M 362.63236,267.02838 L 356.633,289.33386 L 370.95464,292.63087 L 377.52317,269.00392 L 362.63236,267.02838 z"
       id="path2431"
       sodipodi:nodetypes="ccccc" />
    <path
       style="fill:#1c6919;fill-opacity:1;fill-rule:evenodd;stroke:#000000;stroke-width:1px;stroke-linecap:butt;stroke-linejoin:miter;stroke-opacity:1"
       d="M 433.35544,260.40259 C 433.35544,260.40259 434.36559,294.74777 451.53819,304.8493 C 468.71078,314.95082 470.73109,314.95082 470.73109,314.95082 C 479.82246,304.8493 478.81231,304.8493 478.81231,304.8493 C 478.81231,304.8493 453.05584,303.23557 442.14377,252.92746 C 441.2353,248.73914 433.35544,261.41274 433.35544,260.40259 z"
       id="path2433"
       sodipodi:nodetypes="csccsc" />
    <path
       style="fill:#cacaca;fill-opacity:1;fill-rule:evenodd;stroke:#000000;stroke-width:1px;stroke-linecap:butt;stroke-linejoin:miter;stroke-opacity:1"
       d="M 514,150.36218 L 516,115.36218 C 516,115.36218 533,114.36218 535,130.36218 C 537,146.36218 517,138.36218 517,138.36218 L 514,150.36218 z"
       id="path2457" />
    <path
       style="fill:none;fill-opacity:0.75000000000000000;fill-rule:evenodd;stroke:#000000;stroke-width:5;stroke-linecap:butt;stroke-linejoin:miter;stroke-opacity:1;stroke-miterlimit:4;stroke-dasharray:none"
       d="M 120,383.36218 L 443,438.36218 L 552,357.36218 L 494,295.36218 L 503,281.36218 L 578,313.36218 L 598,311.36218 L 655,266.36218 L 686,266.36218 L 688,258.36218 L 657,257.36218 L 654,240.36218 L 567,200.36218 L 556,155.36218 L 535,149.36218 L 537.41421,141.36218 C 537.41421,141.36218 547.22703,142.71573 551.11612,141.83185 C 555.84953,140.75607 555.11612,131.89771 554.05546,127.65507 C 552.95315,123.24586 550.34018,119.53206 547.05546,117.65507 C 543.34315,115.53375 532.40381,114.1854 532.40381,114.1854 L 532,120.36218 C 532,120.36218 527.0052,115.24606 524,114.36218 C 519.91565,113.1609 517.2981,113.24606 513.93934,112.71573 L 511.7019,142.30152 L 483,133.36218 L 468,139.36218 L 452,170.36218 L 450,245.36218 L 444,241.36218 L 231,212.36218 L 209,225.36218 L 180,272.36218 L 150,301.36218 L 120,383.36218 z"
       id="path4796"
       sodipodi:nodetypes="cccccccccccccccccccccccccccccccccc" />
    <path
       style="fill:#ff0000;fill-opacity:1;fill-rule:evenodd;stroke:#000000;stroke-width:5;stroke-linecap:butt;stroke-linejoin:miter;stroke-opacity:1;stroke-miterlimit:4;stroke-dasharray:none"
       d="M 252.79586,259.65015 L 250.1644,144.98747 L 194.90375,144.98747 L 194.90375,179.21513 L 221.21834,179.21513 L 223.84982,257.93877 L 252.79586,259.65015 z"
       id="path2423" />
    <path
       style="fill:none;fill-opacity:0.75000000000000000;fill-rule:evenodd;stroke:#000000;stroke-width:5;stroke-linecap:butt;stroke-linejoin:miter;stroke-opacity:1;stroke-miterlimit:4;stroke-dasharray:none"
       d="M 515.73223,143.75863 L 515.98223,138.50863 C 515.98223,138.50863 523.46176,140.86218 526.75,140.86218 C 529.25,140.86218 530.75,141.11218 530.75,141.11218 L 531,147.86218 L 515.73223,143.75863 z"
       id="path4808"
       sodipodi:nodetypes="cccccc" />
  </g>
  <g
     inkscape:groupmode="layer"
     id="layer2"
     style="display:inline" />
</svg>
