<?xml version="1.0" encoding="UTF-8" standalone="no"?>
<svg
   xmlns:sketch="http://www.bohemiancoding.com/sketch/ns"
   xmlns:dc="http://purl.org/dc/elements/1.1/"
   xmlns:cc="http://creativecommons.org/ns#"
   xmlns:rdf="http://www.w3.org/1999/02/22-rdf-syntax-ns#"
   xmlns:svg="http://www.w3.org/2000/svg"
   xmlns="http://www.w3.org/2000/svg"
   xmlns:sodipodi="http://sodipodi.sourceforge.net/DTD/sodipodi-0.dtd"
   xmlns:inkscape="http://www.inkscape.org/namespaces/inkscape"
   width="150"
   height="100"
   viewBox="0 0 149.99999 99.999998"
   id="svg3344"
   version="1.1"
   inkscape:version="0.48.5 r10040"
   sodipodi:docname="status_lock_dots_1.svg">
  <sodipodi:namedview
     pagecolor="#ffffff"
     bordercolor="#666666"
     borderopacity="1"
     objecttolerance="10"
     gridtolerance="10"
     guidetolerance="10"
     inkscape:pageopacity="0"
     inkscape:pageshadow="2"
     inkscape:window-width="1920"
     inkscape:window-height="1056"
     id="namedview11"
     showgrid="false"
     inkscape:zoom="2.18"
     inkscape:cx="75"
     inkscape:cy="50"
     inkscape:window-x="0"
     inkscape:window-y="24"
     inkscape:window-maximized="0"
     inkscape:current-layer="layer1" />
  <defs
     id="defs3346" />
  <metadata
     id="metadata3349">
    <rdf:RDF>
      <cc:Work
         rdf:about="">
        <dc:format>image/svg+xml</dc:format>
        <dc:type
           rdf:resource="http://purl.org/dc/dcmitype/StillImage" />
        <dc:title />
      </cc:Work>
    </rdf:RDF>
  </metadata>
  <g
     id="layer1"
     transform="translate(-17.144857,-22.362199)">
    <circle
       style="opacity:1;fill:#000000;fill-opacity:1;stroke:#000000;stroke-width:5;stroke-linecap:butt;stroke-linejoin:miter;stroke-miterlimit:4;stroke-dasharray:none;stroke-dashoffset:0;stroke-opacity:1"
       id="circle4219"
       cx="138.57143"
       cy="106.8622"
       r="13"
       d="m 151.57143,106.8622 c 0,7.1797 -5.8203,13 -13,13 -7.17971,0 -13,-5.8203 -13,-13 0,-7.179704 5.82029,-13.000002 13,-13.000002 7.1797,0 13,5.820298 13,13.000002 z" />
    <g
       id="Page-1"
       sketch:type="MSPage"
       style="fill:none;fill-rule:evenodd;stroke:none;stroke-width:1"
       transform="translate(17.144849,22.526199)">
      <g
         id="lock-closed"
         sketch:type="MSArtboardGroup"
         style="fill:#000000">
        <path
           d="m 81.502,45.132 -1.925,0 0,-15.653 C 79.479,10.285 66.387,-0.164 50.476,-0.164 34.57,-0.164 20.304,10.782 20.801,29.479 l -0.016,15.633 c 0,0 0.24,0.021 -0.96,0.021 -1.27,0 -9.64,1.473 -9.64,8.936 l 0,35.824 c 0,7.959 9.42,9.943 9.64,9.943 l 61.202,0 c 0.22,0 9.154,-0.993 9.154,-9.943 l 0,-35.329 c 0.001,-8.455 -8.454,-9.432 -8.679,-9.432 z m -47.241,0 0.016,-15.446 c 0,-9.949 6.071,-17.903 15.906,-17.903 9.741,0 15.905,6.958 15.905,17.903 l 0.01,15.446 -31.837,0 z"
           sketch:type="MSShapeGroup"
           id="path12" />
      </g>
    </g>
  </g>
</svg>
