<?xml version="1.0" encoding="UTF-8" standalone="no"?>
<!-- Generator: Adobe Illustrator 16.0.0, SVG Export Plug-In . SVG Version: 6.00 Build 0)  -->
<svg id="Capa_1" xmlns:rdf="http://www.w3.org/1999/02/22-rdf-syntax-ns#" style="enable-background:new 0 0 457.47 457.469;" xmlns="http://www.w3.org/2000/svg" xml:space="preserve" height="457.47px" viewBox="0 0 457.47 457.469" width="457.47px" version="1.1" y="0px" x="0px" xmlns:cc="http://creativecommons.org/ns#" xmlns:dc="http://purl.org/dc/elements/1.1/"><metadata id="metadata41"><rdf:RDF><cc:Work rdf:about=""><dc:format>image/svg+xml</dc:format><dc:type rdf:resource="http://purl.org/dc/dcmitype/StillImage"/><dc:title/></cc:Work></rdf:RDF></metadata><g id="g3" transform="matrix(0.57627118,0,0,0.57627118,96.921399,96.921399)"><path id="path5" d="M228.75,96.906c-72.8,0-131.84,59.044-131.84,131.84,0,72.8,59.044,131.81,131.84,131.81,72.8,0,131.81-59.01,131.81-131.81s-59.01-131.84-131.81-131.84zm0,76.594c30.51,0,55.22,24.74,55.22,55.25s-24.71,55.22-55.22,55.22-55.25-24.71-55.25-55.22,24.74-55.25,55.25-55.25z" transform="matrix(1.7352942,0,0,1.7352942,-168.18714,-168.18714)"/></g></svg>
