<?xml version="1.0" encoding="UTF-8" standalone="no"?>
<svg width="100px" height="100px" viewBox="0 0 100 100" version="1.1" xmlns="http://www.w3.org/2000/svg" xmlns:xlink="http://www.w3.org/1999/xlink" xmlns:sketch="http://www.bohemiancoding.com/sketch/ns">
    <!-- Generator: Sketch 3.0.4 (8053) - http://www.bohemiancoding.com/sketch -->
    <title>signature-expired-cutout</title>
    <desc>Created with Sketch.</desc>
    <defs></defs>
    <g id="Page-1" stroke="none" stroke-width="1" fill="none" fill-rule="evenodd" sketch:type="MSPage">
        <g id="signature-expired-cutout" sketch:type="MSArtboardGroup" transform="translate(0.110156, 0.000000)" fill="#000000">
            <path d="M5.21763502,25.9334098 C4.62201801,24.5421709 5.31408066,20.2649627 6.50270803,18.5737297 C7.69394204,16.8824967 14.8139764,11.1118682 18.0827017,9.51888655 C21.3514269,7.92852492 25.1232335,10.7136228 25.1232335,10.7136228 L31.1693326,18.5737297 C21.6564037,21.754453 12.2477403,33.889148 12.2477403,33.889148 C12.2477403,33.889148 5.81325202,27.3259588 5.21763502,25.9334098 Z M50.7969868,98.0040129 C30.5564763,98.0040129 14.1592664,81.3860653 14.1592664,60.910451 C14.1592664,41.4138456 29.0387981,25.4459175 47.9423376,23.9707712 L47.9423376,18.3341735 L41.6333009,18.3341735 L41.6333009,9.02828206 L59.2561767,9.02828206 L59.2561767,18.3341735 L53.6477076,18.3341735 L53.6477076,23.9707712 C72.5460092,25.4445909 87.4333977,41.412519 87.4333977,60.910451 C87.4333977,81.3847387 71.0296405,98.0040129 50.7969868,98.0040129 Z M51.541054,71.6933659 C57.6539179,71.6933659 62.6093732,66.7455263 62.6093732,60.6420567 C62.6093732,54.5385872 57.6539179,49.5907476 51.541054,49.5907476 C45.4281901,49.5907476 40.4727348,54.5385872 40.4727348,60.6420567 C40.4727348,66.7455263 45.4281901,71.6933659 51.541054,71.6933659 Z M96.3766201,25.9341425 C95.7811759,27.3252533 89.3433427,33.889148 89.3433427,33.889148 C89.3433427,33.889148 79.9321974,21.7542607 70.4233315,18.5751403 L76.4676764,10.7157573 C76.4676764,10.7157573 80.2396916,7.92829614 83.5087714,9.5185113 C86.7765483,11.1152759 93.8997286,16.884063 95.0880111,18.5751403 C96.2775965,20.2635977 96.9694584,24.540412 96.3766201,25.9341425 Z" sketch:type="MSShapeGroup"></path>
        </g>
    </g>
</svg>