<?xml version="1.0" encoding="UTF-8" standalone="no"?>
<svg
   xmlns:sketch="http://www.bohemiancoding.com/sketch/ns"
   xmlns:dc="http://purl.org/dc/elements/1.1/"
   xmlns:cc="http://creativecommons.org/ns#"
   xmlns:rdf="http://www.w3.org/1999/02/22-rdf-syntax-ns#"
   xmlns:svg="http://www.w3.org/2000/svg"
   xmlns="http://www.w3.org/2000/svg"
   id="svg2"
   version="1.1"
   viewBox="0 0 100 100"
   height="100px"
   width="100px">
  <metadata
     id="metadata16">
    <rdf:RDF>
      <cc:Work
         rdf:about="">
        <dc:format>image/svg+xml</dc:format>
        <dc:type
           rdf:resource="http://purl.org/dc/dcmitype/StillImage" />
        <dc:title>lock-closed</dc:title>
      </cc:Work>
    </rdf:RDF>
  </metadata>
  <!-- Generator: Sketch 3.0.4 (8053) - http://www.bohemiancoding.com/sketch -->
  <title
     id="title4">lock-closed</title>
  <desc
     id="desc6">Created with Sketch.</desc>
  <defs
     id="defs8" />
  <g
     sketch:type="MSPage"
     fill-rule="evenodd"
     fill="none"
     stroke-width="1"
     stroke="none"
     id="Page-1">
    <g
       fill="#000000"
       sketch:type="MSArtboardGroup"
       id="lock-closed">
      <path
         id="path12"
         sketch:type="MSShapeGroup"
         d="m 81.502,45.132 -1.925,0 0,-15.653 C 79.479,10.285 66.387,-0.164 50.476,-0.164 34.57,-0.164 20.304,10.782 20.801,29.479 l -0.016,15.633 c 0,0 0.24,0.021 -0.96,0.021 -1.27,0 -9.64,1.473 -9.64,8.936 l 0,35.824 c 0,7.959 9.42,9.943 9.64,9.943 l 61.202,0 c 0.22,0 9.154,-0.993 9.154,-9.943 l 0,-35.329 c 0.001,-8.455 -8.454,-9.432 -8.679,-9.432 z m -47.241,0 0.016,-15.446 c 0,-9.949 6.071,-17.903 15.906,-17.903 9.741,0 15.905,6.958 15.905,17.903 l 0.01,15.446 -31.837,0 z" />
    </g>
  </g>
</svg>
